<?xml version="1.0" encoding="utf-8"?>
<!-- Generator: Adobe Illustrator 26.5.0, SVG Export Plug-In . SVG Version: 6.00 Build 0)  -->
<svg version="1.1" id="Слой_1" xmlns="http://www.w3.org/2000/svg" xmlns:xlink="http://www.w3.org/1999/xlink" x="0px" y="0px"
	 viewBox="0 0 138.3 16.6" style="enable-background:new 0 0 138.3 16.6;" xml:space="preserve">
<style type="text/css">
	.st0{fill:#050400;}
	.st1{fill:#E13440;}
</style>
<g>
	<path class="st0" d="M2.8,15.9c-1.2-0.3-2.1-0.8-2.8-1.3l1.2-2.8c0.7,0.5,1.5,0.9,2.4,1.2c0.9,0.3,1.9,0.5,2.8,0.5
		c1,0,1.8-0.2,2.3-0.5s0.7-0.7,0.7-1.2c0-0.4-0.1-0.7-0.4-0.9c-0.3-0.2-0.7-0.4-1.1-0.6S6.8,10,6,9.8C4.8,9.5,3.8,9.2,3,8.9
		S1.6,8.2,1,7.5C0.5,6.9,0.2,6,0.2,5c0-0.9,0.2-1.8,0.7-2.5s1.2-1.3,2.2-1.8C4.1,0.3,5.3,0,6.8,0c1,0,2,0.1,3,0.4
		c1,0.2,1.8,0.6,2.5,1l-0.9,2.8C9.9,3.4,8.5,3,7,3C6,3,5.2,3.2,4.7,3.5S4,4.2,4,4.8S4.3,5.7,4.8,6c0.6,0.3,1.4,0.5,2.6,0.8
		s2.2,0.6,3,0.9s1.4,0.7,2,1.4c0.5,0.6,0.8,1.5,0.8,2.5c0,0.9-0.3,1.7-0.8,2.5c-0.5,0.7-1.3,1.3-2.3,1.8c-1,0.4-2.2,0.7-3.7,0.7
		C5.2,16.4,4,16.2,2.8,15.9z"/>
	<path class="st0" d="M18.9,15.3c-1.3-0.7-2.3-1.7-3.1-2.9c-0.7-1.2-1.1-2.6-1.1-4.2s0.4-3,1.1-4.2s1.8-2.2,3.1-2.9
		C20.2,0.4,21.7,0,23.3,0c1.4,0,2.6,0.2,3.7,0.7s2,1.2,2.8,2.1L27.5,5c-1.1-1.2-2.4-1.9-4-1.9c-1,0-1.9,0.2-2.6,0.6
		c-0.8,0.4-1.4,1-1.8,1.8s-0.6,1.6-0.6,2.6s0.2,1.9,0.6,2.6s1,1.4,1.8,1.8s1.6,0.6,2.6,0.6c1.6,0,2.9-0.6,4-1.9l2.3,2.2
		C29,14.3,28.1,15,27,15.5c-1.1,0.5-2.4,0.7-3.7,0.7C21.6,16.4,20.2,16,18.9,15.3z"/>
	<path class="st0" d="M46.6,16.1V6.6l-4.7,7.8h-1.6l-4.6-7.6v9.3h-3.5V0.3h3l5.9,9.8l5.8-9.8h3v15.8C49.9,16.1,46.6,16.1,46.6,16.1z
		"/>
	<path class="st1" d="M64.5,8h3.3v6.4c-0.9,0.6-1.9,1.1-3,1.5c-1.1,0.3-2.3,0.5-3.4,0.5c-1.6,0-3.1-0.3-4.4-1s-2.3-1.7-3.1-2.9
		c-0.7-1.3-1.1-2.7-1.1-4.3s0.4-3,1.1-4.2c0.7-1.2,1.8-2.2,3.1-2.9C58.3,0.4,59.8,0,61.5,0c1.4,0,2.6,0.2,3.8,0.7
		c1.1,0.5,2.1,1.1,2.8,2l-2.3,2.2c-1.1-1.2-2.5-1.8-4.1-1.8c-1,0-1.9,0.2-2.7,0.6c-0.8,0.4-1.4,1-1.8,1.8c-0.4,0.8-0.7,1.6-0.7,2.6
		s0.2,1.9,0.7,2.6s1,1.4,1.8,1.8s1.7,0.6,2.7,0.6c1.1,0,2-0.2,2.8-0.7V8z"/>
	<path class="st1" d="M81.3,16.1l-3-4.4h-0.2h-3.2v4.4h-3.7V0.3H78c1.4,0,2.6,0.2,3.6,0.7s1.8,1.1,2.4,2s0.8,1.9,0.8,3
		c0,1.2-0.3,2.2-0.8,3c-0.6,0.9-1.4,1.5-2.4,2l3.5,5.1H81.3z M80.4,4c-0.6-0.5-1.4-0.7-2.5-0.7h-3v5.5h3c1.1,0,1.9-0.2,2.5-0.7
		s0.9-1.2,0.9-2C81.2,5.1,80.9,4.5,80.4,4z"/>
	<path class="st1" d="M91,15.3c-1.3-0.7-2.3-1.7-3.1-2.9c-0.7-1.2-1.1-2.6-1.1-4.2s0.4-2.9,1.1-4.2c0.7-1.2,1.8-2.2,3.1-2.9
		S93.8,0,95.4,0s3.1,0.4,4.4,1.1s2.3,1.7,3.1,2.9c0.8,1.2,1.1,2.6,1.1,4.2s-0.4,2.9-1.1,4.2c-0.8,1.2-1.8,2.2-3.1,2.9
		c-1.3,0.7-2.8,1.1-4.4,1.1C93.8,16.4,92.3,16,91,15.3z M98,12.6c0.8-0.4,1.3-1,1.8-1.8c0.4-0.8,0.6-1.6,0.6-2.6s-0.2-1.9-0.6-2.6
		c-0.4-0.8-1-1.4-1.8-1.8c-0.8-0.4-1.6-0.6-2.5-0.6S93.7,3.4,93,3.8c-0.8,0.4-1.3,1-1.8,1.8c-0.4,0.8-0.6,1.6-0.6,2.6
		s0.2,1.9,0.6,2.6s1,1.4,1.8,1.8s1.6,0.6,2.5,0.6C96.4,13.3,97.2,13,98,12.6z"/>
	<path class="st1" d="M108.6,14.5c-1.3-1.2-1.9-3-1.9-5.4V0.2h3.7v8.7c0,2.8,1.2,4.2,3.5,4.2c1.1,0,2-0.3,2.6-1s0.9-1.8,0.9-3.2V0.2
		h3.6v8.9c0,2.3-0.6,4.1-1.9,5.4c-1.3,1.2-3,1.9-5.3,1.9C111.6,16.4,109.9,15.7,108.6,14.5z"/>
	<path class="st1" d="M135.1,1c1,0.5,1.8,1.1,2.4,2c0.6,0.9,0.8,1.9,0.8,3c0,1.2-0.3,2.2-0.8,3c-0.6,0.9-1.4,1.5-2.4,2
		s-2.2,0.7-3.6,0.7h-3.2v4.4h-3.7V0.3h6.8C132.9,0.3,134.1,0.5,135.1,1z M133.8,8.1c0.6-0.5,0.9-1.1,0.9-2s-0.3-1.6-0.9-2
		c-0.6-0.5-1.4-0.7-2.5-0.7h-3v5.5h3C132.4,8.8,133.2,8.5,133.8,8.1z"/>
</g>
</svg>
