<?xml version="1.0" encoding="utf-8"?>
<!-- Generator: Adobe Illustrator 26.5.0, SVG Export Plug-In . SVG Version: 6.00 Build 0)  -->
<svg version="1.1" id="Слой_1" xmlns="http://www.w3.org/2000/svg" xmlns:xlink="http://www.w3.org/1999/xlink" x="0px" y="0px"
	 viewBox="0 0 140 40" style="enable-background:new 0 0 140 40;" xml:space="preserve">
<style type="text/css">
	.st0{fill:#050400;}
	.st1{fill:#E13440;}
</style>
<g>
	<path class="st0" d="M3.6,27.7c-1.2-0.3-2.1-0.8-2.8-1.3l1.2-2.8c0.7,0.5,1.5,0.9,2.4,1.2c0.9,0.3,1.9,0.5,2.8,0.5
		c1,0,1.8-0.2,2.3-0.5c0.5-0.3,0.7-0.7,0.7-1.2c0-0.4-0.1-0.7-0.4-0.9c-0.3-0.2-0.7-0.4-1.1-0.6s-1.1-0.3-1.9-0.5
		c-1.2-0.3-2.2-0.6-3-0.9c-0.8-0.3-1.4-0.7-2-1.4c-0.5-0.6-0.8-1.5-0.8-2.5c0-0.9,0.2-1.8,0.7-2.5c0.5-0.7,1.2-1.3,2.2-1.8
		c1-0.4,2.2-0.7,3.7-0.7c1,0,2,0.1,3,0.4c1,0.2,1.8,0.6,2.5,1L12.2,16c-1.5-0.8-2.9-1.2-4.4-1.2c-1,0-1.8,0.2-2.3,0.5
		C5,15.6,4.8,16,4.8,16.6s0.3,0.9,0.8,1.2c0.6,0.3,1.4,0.5,2.6,0.8c1.2,0.3,2.2,0.6,3,0.9s1.4,0.7,2,1.4c0.5,0.6,0.8,1.5,0.8,2.5
		c0,0.9-0.3,1.7-0.8,2.5c-0.5,0.7-1.3,1.3-2.3,1.8c-1,0.4-2.2,0.7-3.7,0.7C6,28.2,4.8,28,3.6,27.7z"/>
	<path class="st0" d="M19.7,27.1c-1.3-0.7-2.3-1.7-3.1-2.9c-0.7-1.2-1.1-2.6-1.1-4.2s0.4-3,1.1-4.2c0.7-1.2,1.8-2.2,3.1-2.9
		c1.3-0.7,2.8-1.1,4.4-1.1c1.4,0,2.6,0.2,3.7,0.7c1.1,0.5,2,1.2,2.8,2.1l-2.3,2.2c-1.1-1.2-2.4-1.9-4-1.9c-1,0-1.9,0.2-2.6,0.6
		c-0.8,0.4-1.4,1-1.8,1.8c-0.4,0.8-0.6,1.6-0.6,2.6s0.2,1.9,0.6,2.6s1,1.4,1.8,1.8c0.8,0.4,1.6,0.6,2.6,0.6c1.6,0,2.9-0.6,4-1.9
		l2.3,2.2c-0.8,0.9-1.7,1.6-2.8,2.1c-1.1,0.5-2.4,0.7-3.7,0.7C22.4,28.2,21,27.8,19.7,27.1z"/>
	<path class="st0" d="M47.4,27.9l0-9.5l-4.7,7.8h-1.6l-4.6-7.6v9.3H33V12.1h3l5.9,9.8l5.8-9.8h3l0,15.8H47.4z"/>
	<path class="st1" d="M65.3,19.8h3.3v6.4c-0.9,0.6-1.9,1.1-3,1.5c-1.1,0.3-2.3,0.5-3.4,0.5c-1.6,0-3.1-0.3-4.4-1s-2.3-1.7-3.1-2.9
		C54,23,53.6,21.6,53.6,20s0.4-3,1.1-4.2c0.7-1.2,1.8-2.2,3.1-2.9c1.3-0.7,2.8-1.1,4.5-1.1c1.4,0,2.6,0.2,3.8,0.7
		c1.1,0.5,2.1,1.1,2.8,2l-2.3,2.2c-1.1-1.2-2.5-1.8-4.1-1.8c-1,0-1.9,0.2-2.7,0.6c-0.8,0.4-1.4,1-1.8,1.8c-0.4,0.8-0.7,1.6-0.7,2.6
		c0,1,0.2,1.9,0.7,2.6s1,1.4,1.8,1.8c0.8,0.4,1.7,0.6,2.7,0.6c1.1,0,2-0.2,2.8-0.7V19.8z"/>
	<path class="st1" d="M82.1,27.9l-3-4.4h-0.2h-3.2v4.4H72V12.1h6.8c1.4,0,2.6,0.2,3.6,0.7c1,0.5,1.8,1.1,2.4,2
		c0.6,0.9,0.8,1.9,0.8,3c0,1.2-0.3,2.2-0.8,3c-0.6,0.9-1.4,1.5-2.4,2l3.5,5.1H82.1z M81.2,15.8c-0.6-0.5-1.4-0.7-2.5-0.7h-3v5.5h3
		c1.1,0,1.9-0.2,2.5-0.7c0.6-0.5,0.9-1.2,0.9-2C82,16.9,81.7,16.3,81.2,15.8z"/>
	<path class="st1" d="M91.8,27.1c-1.3-0.7-2.3-1.7-3.1-2.9c-0.7-1.2-1.1-2.6-1.1-4.2c0-1.6,0.4-2.9,1.1-4.2c0.7-1.2,1.8-2.2,3.1-2.9
		s2.8-1.1,4.4-1.1c1.6,0,3.1,0.4,4.4,1.1s2.3,1.7,3.1,2.9c0.8,1.2,1.1,2.6,1.1,4.2c0,1.6-0.4,2.9-1.1,4.2c-0.8,1.2-1.8,2.2-3.1,2.9
		c-1.3,0.7-2.8,1.1-4.4,1.1C94.6,28.2,93.1,27.8,91.8,27.1z M98.8,24.4c0.8-0.4,1.3-1,1.8-1.8c0.4-0.8,0.6-1.6,0.6-2.6
		s-0.2-1.9-0.6-2.6c-0.4-0.8-1-1.4-1.8-1.8c-0.8-0.4-1.6-0.6-2.5-0.6c-0.9,0-1.8,0.2-2.5,0.6c-0.8,0.4-1.3,1-1.8,1.8
		c-0.4,0.8-0.6,1.6-0.6,2.6s0.2,1.9,0.6,2.6s1,1.4,1.8,1.8c0.8,0.4,1.6,0.6,2.5,0.6C97.2,25.1,98,24.8,98.8,24.4z"/>
	<path class="st1" d="M109.4,26.3c-1.3-1.2-1.9-3-1.9-5.4v-8.9h3.7v8.7c0,2.8,1.2,4.2,3.5,4.2c1.1,0,2-0.3,2.6-1
		c0.6-0.7,0.9-1.8,0.9-3.2v-8.7h3.6v8.9c0,2.3-0.6,4.1-1.9,5.4c-1.3,1.2-3,1.9-5.3,1.9C112.4,28.2,110.7,27.5,109.4,26.3z"/>
	<path class="st1" d="M135.9,12.8c1,0.5,1.8,1.1,2.4,2c0.6,0.9,0.8,1.9,0.8,3c0,1.2-0.3,2.2-0.8,3c-0.6,0.9-1.4,1.5-2.4,2
		c-1,0.5-2.2,0.7-3.6,0.7h-3.2v4.4h-3.7V12.1h6.8C133.7,12.1,134.9,12.3,135.9,12.8z M134.6,19.9c0.6-0.5,0.9-1.1,0.9-2
		c0-0.9-0.3-1.6-0.9-2c-0.6-0.5-1.4-0.7-2.5-0.7h-3v5.5h3C133.2,20.6,134,20.3,134.6,19.9z"/>
</g>
</svg>
