<?xml version="1.0" encoding="UTF-8"?>
<!DOCTYPE svg PUBLIC "-//W3C//DTD SVG 1.1//EN" "http://www.w3.org/Graphics/SVG/1.1/DTD/svg11.dtd">
<svg xmlns="http://www.w3.org/2000/svg" version="1.1" width="779px" height="750px" style="shape-rendering:geometricPrecision; text-rendering:geometricPrecision; image-rendering:optimizeQuality; fill-rule:evenodd; clip-rule:evenodd" xmlns:xlink="http://www.w3.org/1999/xlink">
<g><path style="opacity:1" fill="#0b2840" d="M -0.5,-0.5 C 256.167,-0.5 512.833,-0.5 769.5,-0.5C 769.5,249.5 769.5,499.5 769.5,749.5C 512.833,749.5 256.167,749.5 -0.5,749.5C -0.5,499.5 -0.5,249.5 -0.5,-0.5 Z"/></g>
<g><path style="opacity:1" fill="#082943" d="M 769.5,-0.5 C 771.5,-0.5 773.5,-0.5 775.5,-0.5C 775.5,249.5 775.5,499.5 775.5,749.5C 773.5,749.5 771.5,749.5 769.5,749.5C 769.5,499.5 769.5,249.5 769.5,-0.5 Z"/></g>
<g><path style="opacity:1" fill="#304559" d="M 775.5,-0.5 C 776.5,-0.5 777.5,-0.5 778.5,-0.5C 778.5,249.5 778.5,499.5 778.5,749.5C 777.5,749.5 776.5,749.5 775.5,749.5C 775.5,499.5 775.5,249.5 775.5,-0.5 Z"/></g>
<g><path style="opacity:1" fill="#bb4b53" d="M 367.5,332.5 C 361.491,332.334 355.491,332.501 349.5,333C 347.091,334.707 344.425,335.54 341.5,335.5C 343.493,333.837 345.826,332.67 348.5,332C 355.014,331.18 361.347,331.347 367.5,332.5 Z"/></g>
<g><path style="opacity:1" fill="#2e262f" d="M 628.5,333.5 C 628.5,333.167 628.5,332.833 628.5,332.5C 637.607,332.041 643.607,336.041 646.5,344.5C 645.833,344.167 645.167,343.833 644.5,343.5C 642.855,339.855 640.188,337.188 636.5,335.5C 634.118,333.954 631.451,333.287 628.5,333.5 Z"/></g>
<g><path style="opacity:1" fill="#c7494e" d="M 511.5,342.5 C 507.628,339.794 503.628,337.294 499.5,335C 495.794,336.233 492.46,335.566 489.5,333C 486.167,332.333 482.833,332.333 479.5,333C 476.223,334.143 472.89,334.977 469.5,335.5C 474.366,332.09 479.866,330.757 486,331.5C 493.032,331.986 499.865,333.319 506.5,335.5C 507.702,338.056 509.369,340.389 511.5,342.5 Z"/></g>
<g><path style="opacity:1" fill="#eaeae9" d="M 315.5,333.5 C 315.5,352.833 315.5,372.167 315.5,391.5C 311.167,391.5 306.833,391.5 302.5,391.5C 302.667,379.829 302.5,368.162 302,356.5C 301.283,357.044 300.783,357.711 300.5,358.5C 296.5,365.5 292.5,372.5 288.5,379.5C 287.03,381.151 285.697,382.985 284.5,385C 282.5,385.667 280.5,385.667 278.5,385C 272.875,376.251 267.375,367.417 262,358.5C 261.5,369.495 261.333,380.495 261.5,391.5C 257.167,391.5 252.833,391.5 248.5,391.5C 248.5,371.833 248.5,352.167 248.5,332.5C 252.555,332.176 256.555,332.509 260.5,333.5C 267.165,345.501 274.332,357.168 282,368.5C 289.167,356.667 296.333,344.833 303.5,333C 307.689,332.188 311.689,332.355 315.5,333.5 Z"/></g>
<g><path style="opacity:1" fill="#a54955" d="M 431.5,334.5 C 419.52,333.662 407.52,333.328 395.5,333.5C 395.5,352.5 395.5,371.5 395.5,390.5C 399.5,390.5 403.5,390.5 407.5,390.5C 407.179,385.305 407.513,380.305 408.5,375.5C 408.5,380.833 408.5,386.167 408.5,391.5C 403.833,391.5 399.167,391.5 394.5,391.5C 394.5,371.5 394.5,351.5 394.5,331.5C 404.172,331.334 413.839,331.5 423.5,332C 426.379,332.546 429.046,333.379 431.5,334.5 Z"/></g>
<g><path style="opacity:1" fill="#3d1627" d="M 568.5,332.5 C 568.5,344.167 568.5,355.833 568.5,367.5C 568.585,370.649 567.585,373.316 565.5,375.5C 565.5,374.833 565.5,374.167 565.5,373.5C 565.987,372.527 566.487,371.527 567,370.5C 567.169,357.66 567.669,344.993 568.5,332.5 Z"/></g>
<g><path style="opacity:1" fill="#9f4655" d="M 568.5,332.5 C 573.167,332.5 577.833,332.5 582.5,332.5C 582.5,345.167 582.5,357.833 582.5,370.5C 582.167,370.5 581.833,370.5 581.5,370.5C 581.667,358.495 581.5,346.495 581,334.5C 577.27,333.54 573.437,333.207 569.5,333.5C 569.5,344.833 569.5,356.167 569.5,367.5C 569.167,367.5 568.833,367.5 568.5,367.5C 568.5,355.833 568.5,344.167 568.5,332.5 Z"/></g>
<g><path style="opacity:1" fill="#833b49" d="M 625.5,332.5 C 615.833,332.5 606.167,332.5 596.5,332.5C 596.5,352.167 596.5,371.833 596.5,391.5C 595.503,371.674 595.17,351.674 595.5,331.5C 605.681,331.173 615.681,331.506 625.5,332.5 Z"/></g>
<g><path style="opacity:1" fill="#cf5158" d="M 625.5,332.5 C 626.5,332.5 627.5,332.5 628.5,332.5C 628.5,332.833 628.5,333.167 628.5,333.5C 618.167,333.5 607.833,333.5 597.5,333.5C 597.5,352.167 597.5,370.833 597.5,389.5C 601.065,390.466 604.565,390.466 608,389.5C 608.648,384.796 608.481,380.129 607.5,375.5C 608.167,375.5 608.833,375.5 609.5,375.5C 609.5,380.5 609.5,385.5 609.5,390.5C 605.366,391.485 601.032,391.818 596.5,391.5C 596.5,371.833 596.5,352.167 596.5,332.5C 606.167,332.5 615.833,332.5 625.5,332.5 Z"/></g>
<g><path style="opacity:1" fill="#9b4c52" d="M 340.5,335.5 C 339.415,337.587 337.749,338.92 335.5,339.5C 336.585,337.413 338.251,336.08 340.5,335.5 Z"/></g>
<g><path style="opacity:1" fill="#e74647" d="M 367.5,332.5 C 373.032,333.687 377.866,336.354 382,340.5C 382.667,341.167 382.667,341.833 382,342.5C 379.672,343.999 377.505,345.666 375.5,347.5C 373.315,347.296 371.315,346.63 369.5,345.5C 368.508,345.672 367.842,345.338 367.5,344.5C 365.603,343.195 363.269,342.529 360.5,342.5C 357.975,342.503 355.641,342.837 353.5,343.5C 351.883,344.038 350.216,344.371 348.5,344.5C 345.245,344.986 342.578,343.986 340.5,341.5C 339.15,342.95 337.484,343.617 335.5,343.5C 335.5,342.167 335.5,340.833 335.5,339.5C 337.749,338.92 339.415,337.587 340.5,335.5C 340.833,335.5 341.167,335.5 341.5,335.5C 344.425,335.54 347.091,334.707 349.5,333C 355.491,332.501 361.491,332.334 367.5,332.5 Z"/></g>
<g><path style="opacity:1" fill="#ea4545" d="M 431.5,334.5 C 432.959,334.433 434.292,334.766 435.5,335.5C 437.374,337.813 439.374,340.146 441.5,342.5C 441.631,343.239 441.464,343.906 441,344.5C 439.989,343.663 438.822,343.33 437.5,343.5C 437.162,346.157 437.829,348.49 439.5,350.5C 440.806,349.088 441.64,347.421 442,345.5C 443.563,350.718 443.896,356.051 443,361.5C 441.441,363.217 440.608,365.217 440.5,367.5C 438.521,369.479 436.521,371.479 434.5,373.5C 435.952,374.94 436.952,376.606 437.5,378.5C 438.136,380.795 439.469,382.461 441.5,383.5C 442.89,384.899 443.89,386.566 444.5,388.5C 441.316,390.414 437.649,391.08 433.5,390.5C 433.5,389.167 433.5,387.833 433.5,386.5C 431.012,386.317 429.012,385.317 427.5,383.5C 425.5,381.167 423.5,378.833 421.5,376.5C 419.777,375.2 417.61,374.533 415,374.5C 412.639,374.504 410.473,374.837 408.5,375.5C 407.513,380.305 407.179,385.305 407.5,390.5C 403.5,390.5 399.5,390.5 395.5,390.5C 395.5,371.5 395.5,352.5 395.5,333.5C 407.52,333.328 419.52,333.662 431.5,334.5 Z"/></g>
<g><path style="opacity:1" fill="#aa4c4d" d="M 435.5,335.5 C 440.406,337.727 443.406,341.394 444.5,346.5C 443.857,344.924 442.857,343.59 441.5,342.5C 439.374,340.146 437.374,337.813 435.5,335.5 Z"/></g>
<g><path style="opacity:1" fill="#c04e5b" d="M 636.5,335.5 C 640.188,337.188 642.855,339.855 644.5,343.5C 643.5,342.833 642.5,342.167 641.5,341.5C 640.33,339.721 638.664,338.721 636.5,338.5C 636.5,337.5 636.5,336.5 636.5,335.5 Z"/></g>
<g><path style="opacity:1" fill="#da494f" d="M 335.5,339.5 C 335.5,340.833 335.5,342.167 335.5,343.5C 337.484,343.617 339.15,342.95 340.5,341.5C 342.578,343.986 345.245,344.986 348.5,344.5C 345.81,346.193 343.81,348.527 342.5,351.5C 342.167,351.5 341.833,351.5 341.5,351.5C 341.393,349.097 342.393,347.264 344.5,346C 341.705,344.857 338.872,344.357 336,344.5C 335.333,349.833 334.667,349.833 334,344.5C 332.989,345.337 331.822,345.67 330.5,345.5C 330.289,348.848 329.289,351.848 327.5,354.5C 327.5,353.5 327.5,352.5 327.5,351.5C 328.167,346.2 330.834,342.2 335.5,339.5 Z"/></g>
<g><path style="opacity:1" fill="#a2434e" d="M 353.5,343.5 C 355.641,342.837 357.975,342.503 360.5,342.5C 363.269,342.529 365.603,343.195 367.5,344.5C 362.881,343.686 358.214,343.353 353.5,343.5 Z"/></g>
<g><path style="opacity:1" fill="#ba4b5b" d="M 408.5,343.5 C 414.319,342.347 420.319,342.181 426.5,343C 427.381,343.708 428.047,344.542 428.5,345.5C 426.883,344.962 425.216,344.629 423.5,344.5C 418.695,343.513 413.695,343.179 408.5,343.5 Z"/></g>
<g><path style="opacity:1" fill="#341a21" d="M 408.5,343.5 C 413.695,343.179 418.695,343.513 423.5,344.5C 418.833,344.5 414.167,344.5 409.5,344.5C 409.5,350.833 409.5,357.167 409.5,363.5C 408.51,357.355 408.177,351.022 408.5,344.5C 408.5,344.167 408.5,343.833 408.5,343.5 Z"/></g>
<g><path style="opacity:1" fill="#a1434f" d="M 369.5,345.5 C 371.315,346.63 373.315,347.296 375.5,347.5C 375.631,348.376 375.298,349.043 374.5,349.5C 372.214,348.867 370.548,347.534 369.5,345.5 Z"/></g>
<g><path style="opacity:1" fill="#db4851" d="M 441.5,342.5 C 442.857,343.59 443.857,344.924 444.5,346.5C 445.338,346.842 445.672,347.508 445.5,348.5C 446.409,355.412 445.075,361.746 441.5,367.5C 441.167,367.5 440.833,367.5 440.5,367.5C 440.608,365.217 441.441,363.217 443,361.5C 443.896,356.051 443.563,350.718 442,345.5C 441.64,347.421 440.806,349.088 439.5,350.5C 437.829,348.49 437.162,346.157 437.5,343.5C 438.822,343.33 439.989,343.663 441,344.5C 441.464,343.906 441.631,343.239 441.5,342.5 Z"/></g>
<g><path style="opacity:1" fill="#9e4649" d="M 541.5,332.5 C 541.5,333.167 541.5,333.833 541.5,334.5C 541.167,334.5 540.833,334.5 540.5,334.5C 537.038,333.518 533.371,333.185 529.5,333.5C 529.344,347.849 529.677,362.183 530.5,376.5C 528.036,373.03 527.036,369.03 527.5,364.5C 527.5,353.833 527.5,343.167 527.5,332.5C 532.167,332.5 536.833,332.5 541.5,332.5 Z"/></g>
<g><path style="opacity:1" fill="#b64c58" d="M 463.5,339.5 C 460.403,343.254 457.737,347.254 455.5,351.5C 456.172,346.163 458.839,342.163 463.5,339.5 Z"/></g>
<g><path style="opacity:1" fill="#0e2740" d="M 381.5,360.5 C 377.298,360.183 373.298,360.517 369.5,361.5C 368.833,366.5 368.167,371.5 367.5,376.5C 367.5,375.167 367.5,373.833 367.5,372.5C 362.167,372.5 356.833,372.5 351.5,372.5C 351.5,371.5 351.5,370.5 351.5,369.5C 353.734,369.38 355.901,369.713 358,370.5C 360.912,368.934 364.079,368.101 367.5,368C 362.177,367.501 356.844,367.334 351.5,367.5C 351.5,361.5 351.5,355.5 351.5,349.5C 357.137,351.039 362.637,350.706 368,348.5C 368.374,349.416 368.874,350.25 369.5,351C 367.75,352.754 367.083,354.921 367.5,357.5C 371.846,357.334 376.179,357.501 380.5,358C 381.624,358.249 382.624,358.749 383.5,359.5C 383.043,360.298 382.376,360.631 381.5,360.5 Z"/></g>
<g><path style="opacity:1" fill="#ae4550" d="M 431.5,348.5 C 432.765,349.514 433.431,351.014 433.5,353C 433.333,354.5 433.167,356 433,357.5C 432.617,358.056 432.117,358.389 431.5,358.5C 431.5,355.167 431.5,351.833 431.5,348.5 Z"/></g>
<g><path style="opacity:1" fill="#e84546" d="M 511.5,342.5 C 511.5,342.833 511.5,343.167 511.5,343.5C 512.7,347.744 514.533,351.744 517,355.5C 517.499,359.486 517.666,363.486 517.5,367.5C 516.733,371.698 515.399,375.698 513.5,379.5C 510.876,382.158 508.209,384.825 505.5,387.5C 502.011,388.658 498.678,389.991 495.5,391.5C 488.132,391.683 480.799,391.35 473.5,390.5C 471.821,390.108 470.154,389.608 468.5,389C 464.93,386.266 461.93,383.099 459.5,379.5C 458.513,376.854 457.513,374.188 456.5,371.5C 456.043,370.702 455.376,370.369 454.5,370.5C 453.627,366.232 453.294,361.898 453.5,357.5C 453.259,355.102 453.926,353.102 455.5,351.5C 457.737,347.254 460.403,343.254 463.5,339.5C 464.663,337.018 466.663,335.684 469.5,335.5C 472.89,334.977 476.223,334.143 479.5,333C 482.833,332.333 486.167,332.333 489.5,333C 492.46,335.566 495.794,336.233 499.5,335C 503.628,337.294 507.628,339.794 511.5,342.5 Z"/></g>
<g><path style="opacity:1" fill="#122740" d="M 493.5,349.5 C 495.5,349.5 497.5,349.5 499.5,349.5C 500.5,350.167 501.5,350.833 502.5,351.5C 504.18,356.61 504.847,361.943 504.5,367.5C 501.491,371.53 498.491,375.53 495.5,379.5C 490.195,380.442 484.861,380.609 479.5,380C 476.062,378.389 473.062,376.223 470.5,373.5C 470.5,372.833 470.5,372.167 470.5,371.5C 472.997,370.919 474.664,369.419 475.5,367C 475.926,365.016 476.26,363.016 476.5,361C 475.141,358.042 474.474,354.876 474.5,351.5C 475.5,351.5 476.5,351.5 477.5,351.5C 477.201,353.604 477.534,355.604 478.5,357.5C 479.318,354.893 479.818,352.226 480,349.5C 484.453,350.676 488.953,350.676 493.5,349.5 Z"/></g>
<g><path style="opacity:1" fill="#a8454b" d="M 495.5,344.5 C 489.167,343.167 482.833,343.167 476.5,344.5C 478.915,343.186 481.748,342.519 485,342.5C 487.833,342.667 490.667,342.833 493.5,343C 494.416,343.278 495.082,343.778 495.5,344.5 Z"/></g>
<g><path style="opacity:1" fill="#092b3c" d="M 493.5,349.5 C 488.953,350.676 484.453,350.676 480,349.5C 479.818,352.226 479.318,354.893 478.5,357.5C 477.534,355.604 477.201,353.604 477.5,351.5C 476.5,351.5 475.5,351.5 474.5,351.5C 474.474,354.876 475.141,358.042 476.5,361C 476.26,363.016 475.926,365.016 475.5,367C 474.664,369.419 472.997,370.919 470.5,371.5C 470.5,370.167 470.5,368.833 470.5,367.5C 471.552,367.649 472.552,367.483 473.5,367C 471.995,363.138 470.995,359.138 470.5,355C 471.314,352.373 472.647,350.04 474.5,348C 475.899,347.405 477.232,347.572 478.5,348.5C 479.281,347.263 480.281,346.263 481.5,345.5C 485.104,347.831 488.938,348.165 493,346.5C 496.037,347.32 496.204,348.32 493.5,349.5 Z"/></g>
<g><path style="opacity:1" fill="#8d3f4c" d="M 541.5,332.5 C 542.167,332.5 542.5,332.833 542.5,333.5C 542.203,346.883 542.536,360.216 543.5,373.5C 541.519,360.876 540.852,347.876 541.5,334.5C 541.5,333.833 541.5,333.167 541.5,332.5 Z"/></g>
<g><path style="opacity:1" fill="#e34648" d="M 641.5,341.5 C 642.5,342.167 643.5,342.833 644.5,343.5C 645.598,348.092 646.265,352.759 646.5,357.5C 645.99,362.856 643.656,367.189 639.5,370.5C 634.296,372.568 628.962,374.235 623.5,375.5C 618.833,375.5 614.167,375.5 609.5,375.5C 608.833,375.5 608.167,375.5 607.5,375.5C 607.5,373.833 607.5,372.167 607.5,370.5C 610.418,372.339 613.752,373.339 617.5,373.5C 619.5,373.167 621.5,372.833 623.5,372.5C 624.853,371.476 625.52,370.143 625.5,368.5C 608.234,369.013 608.234,368.513 625.5,367C 619.936,366.751 614.602,365.918 609.5,364.5C 614.363,364.819 619.03,364.486 623.5,363.5C 627.002,363.924 629.335,362.59 630.5,359.5C 631.391,358.89 632.391,358.557 633.5,358.5C 633.649,359.552 633.483,360.552 633,361.5C 631.513,362.155 630.347,363.155 629.5,364.5C 631.936,365.332 634.103,364.665 636,362.5C 638.153,356.391 638.319,350.391 636.5,344.5C 637.675,344.281 638.675,344.614 639.5,345.5C 638.571,348.462 639.738,350.462 643,351.5C 643.5,351.167 644,350.833 644.5,350.5C 643.87,347.312 642.87,344.312 641.5,341.5 Z"/></g>
<g><path style="opacity:1" fill="#a2475a" d="M 644.5,343.5 C 645.167,343.833 645.833,344.167 646.5,344.5C 647.662,348.98 647.662,353.313 646.5,357.5C 646.265,352.759 645.598,348.092 644.5,343.5 Z"/></g>
<g><path style="opacity:1" fill="#11283d" d="M 423.5,344.5 C 425.216,344.629 426.883,344.962 428.5,345.5C 429.167,346.833 430.167,347.833 431.5,348.5C 431.5,351.833 431.5,355.167 431.5,358.5C 430.038,359.458 428.705,360.624 427.5,362C 421.565,363.239 415.565,363.739 409.5,363.5C 409.5,357.167 409.5,350.833 409.5,344.5C 414.167,344.5 418.833,344.5 423.5,344.5 Z"/></g>
<g><path style="opacity:1" fill="#122544" d="M 345.5,375.5 C 343.178,374.198 341.845,372.198 341.5,369.5C 343.48,370.368 345.147,369.701 346.5,367.5C 347.177,362.208 347.177,356.874 346.5,351.5C 347.5,351.5 348.5,351.5 349.5,351.5C 350.44,359.516 350.44,367.183 349.5,374.5C 347.901,374.232 346.568,374.566 345.5,375.5 Z"/></g>
<g><path style="opacity:1" fill="#411c26" d="M 341.5,351.5 C 341.833,351.5 342.167,351.5 342.5,351.5C 340.915,356.678 340.248,362.012 340.5,367.5C 339.13,362.197 339.463,356.863 341.5,351.5 Z"/></g>
<g><path style="opacity:1" fill="#bb5052" d="M 502.5,351.5 C 505.584,356.493 506.251,361.827 504.5,367.5C 504.847,361.943 504.18,356.61 502.5,351.5 Z"/></g>
<g><path style="opacity:1" fill="#262439" d="M 495.5,344.5 C 496.75,346.154 498.084,347.821 499.5,349.5C 497.5,349.5 495.5,349.5 493.5,349.5C 496.204,348.32 496.037,347.32 493,346.5C 488.938,348.165 485.104,347.831 481.5,345.5C 480.281,346.263 479.281,347.263 478.5,348.5C 477.232,347.572 475.899,347.405 474.5,348C 472.647,350.04 471.314,352.373 470.5,355C 470.995,359.138 471.995,363.138 473.5,367C 472.552,367.483 471.552,367.649 470.5,367.5C 470.5,368.833 470.5,370.167 470.5,371.5C 469.034,370.653 468.2,369.32 468,367.5C 467.294,363.113 467.46,358.78 468.5,354.5C 470.201,350.451 472.868,347.118 476.5,344.5C 482.833,343.167 489.167,343.167 495.5,344.5 Z"/></g>
<g><path style="opacity:1" fill="#b04a58" d="M 511.5,343.5 C 512.458,343.953 513.292,344.619 514,345.5C 515.546,348.592 517.046,351.592 518.5,354.5C 518.818,359.032 518.485,363.366 517.5,367.5C 517.666,363.486 517.499,359.486 517,355.5C 514.533,351.744 512.7,347.744 511.5,343.5 Z"/></g>
<g><path style="opacity:1" fill="#833746" d="M 408.5,344.5 C 408.177,351.022 408.51,357.355 409.5,363.5C 415.565,363.739 421.565,363.239 427.5,362C 428.705,360.624 430.038,359.458 431.5,358.5C 431.141,360.371 430.141,361.871 428.5,363C 421.574,364.339 414.574,364.839 407.5,364.5C 407.176,357.646 407.509,350.979 408.5,344.5 Z"/></g>
<g><path style="opacity:1" fill="#4d2133" d="M 445.5,348.5 C 446.117,348.611 446.617,348.944 447,349.5C 447.577,353.888 447.244,358.221 446,362.5C 444.953,364.708 443.453,366.374 441.5,367.5C 445.075,361.746 446.409,355.412 445.5,348.5 Z"/></g>
<g><path style="opacity:1" fill="#ecedeb" d="M 173.5,383.5 C 172.448,383.351 171.448,383.517 170.5,384C 167.548,387.309 163.881,389.309 159.5,390C 152.444,390.788 145.444,390.455 138.5,389C 135.998,387.663 133.998,385.829 132.5,383.5C 132.453,382 133.119,381 134.5,380.5C 136.889,381.18 139.222,382.014 141.5,383C 141.167,383.333 140.833,383.667 140.5,384C 141.416,384.374 142.25,384.874 143,385.5C 145.746,384.857 148.579,384.524 151.5,384.5C 154.613,384.562 157.446,385.229 160,386.5C 160.692,385.975 161.192,385.308 161.5,384.5C 158.215,383.676 154.882,383.176 151.5,383C 154.956,382.82 158.289,382.153 161.5,381C 160.944,380.617 160.611,380.117 160.5,379.5C 162.574,377.285 162.907,374.785 161.5,372C 154.378,369.052 147.045,366.719 139.5,365C 128.767,360.353 125.6,352.52 130,341.5C 133.365,336.814 137.865,333.647 143.5,332C 149.833,331.333 156.167,331.333 162.5,332C 166.604,332.914 170.27,334.581 173.5,337C 172.357,340.101 171.024,343.101 169.5,346C 165.942,345.043 162.275,344.043 158.5,343C 154.5,342.333 150.5,342.333 146.5,343C 141.378,345.003 140.378,348.17 143.5,352.5C 150.961,355.561 158.628,358.061 166.5,360C 176.907,365.376 179.24,373.21 173.5,383.5 Z"/></g>
<g><path style="opacity:1" fill="#606f79" d="M 302.5,391.5 C 301.833,380.5 301.167,369.5 300.5,358.5C 300.783,357.711 301.283,357.044 302,356.5C 302.5,368.162 302.667,379.829 302.5,391.5 Z"/></g>
<g><path style="opacity:1" fill="#3f1824" d="M 453.5,357.5 C 453.294,361.898 453.627,366.232 454.5,370.5C 454.5,371.167 454.5,371.833 454.5,372.5C 453.883,372.389 453.383,372.056 453,371.5C 452.185,366.648 452.352,361.981 453.5,357.5 Z"/></g>
<g><path style="opacity:1" fill="#b84d58" d="M 468.5,354.5 C 467.46,358.78 467.294,363.113 468,367.5C 468.2,369.32 469.034,370.653 470.5,371.5C 470.5,372.167 470.5,372.833 470.5,373.5C 468.827,372.657 467.66,371.324 467,369.5C 466.333,364.833 466.333,360.167 467,355.5C 467.383,354.944 467.883,354.611 468.5,354.5 Z"/></g>
<g><path style="opacity:1" fill="#18283a" d="M 527.5,364.5 C 527.036,369.03 528.036,373.03 530.5,376.5C 531.088,379.063 532.088,381.396 533.5,383.5C 541.272,392.029 550.939,394.862 562.5,392C 565.894,390.925 569.228,389.758 572.5,388.5C 569.375,390.673 566.042,392.673 562.5,394.5C 556.19,395.54 549.857,395.707 543.5,395C 540.971,392.971 538.304,391.138 535.5,389.5C 534.833,389.667 534.167,389.833 533.5,390C 534.696,390.654 534.696,391.154 533.5,391.5C 533.167,391.167 532.833,390.833 532.5,390.5C 530.405,385.46 528.071,380.126 525.5,374.5C 524.407,378.14 522.407,381.14 519.5,383.5C 519.551,380.937 519.217,378.271 518.5,375.5C 516.815,376.953 515.149,378.286 513.5,379.5C 515.399,375.698 516.733,371.698 517.5,367.5C 518.485,363.366 518.818,359.032 518.5,354.5C 519.688,355.684 520.855,355.684 522,354.5C 522.54,352.865 522.04,351.532 520.5,350.5C 521.244,347.557 521.744,344.557 522,341.5C 522.333,341.833 522.667,342.167 523,342.5C 526.114,348.523 526.447,354.523 524,360.5C 520.573,363.86 519.74,367.86 521.5,372.5C 521.833,372.333 522.167,372.167 522.5,372C 523.328,368.818 524.994,366.318 527.5,364.5 Z"/></g>
<g><path style="opacity:1" fill="#3e1926" d="M 325.5,357.5 C 325.413,362.537 325.746,367.537 326.5,372.5C 326.167,372.5 325.833,372.5 325.5,372.5C 324.908,369.873 324.575,367.206 324.5,364.5C 324.198,361.941 324.532,359.607 325.5,357.5 Z"/></g>
<g><path style="opacity:1" fill="#592230" d="M 369.5,361.5 C 370.117,367.598 369.45,373.265 367.5,378.5C 367.5,377.833 367.5,377.167 367.5,376.5C 368.167,371.5 368.833,366.5 369.5,361.5 Z"/></g>
<g><path style="opacity:1" fill="#a84850" d="M 381.5,360.5 C 382.138,364.753 382.471,369.086 382.5,373.5C 382.491,377.893 381.824,381.893 380.5,385.5C 380.5,377.833 380.5,370.167 380.5,362.5C 377.167,362.5 373.833,362.5 370.5,362.5C 370.666,368.176 370.499,373.843 370,379.5C 367.894,381.291 365.394,381.958 362.5,381.5C 359.615,381.806 356.948,381.473 354.5,380.5C 359.122,380.844 363.455,380.177 367.5,378.5C 369.45,373.265 370.117,367.598 369.5,361.5C 373.298,360.517 377.298,360.183 381.5,360.5 Z"/></g>
<g><path style="opacity:1" fill="#b24957" d="M 454.5,370.5 C 455.376,370.369 456.043,370.702 456.5,371.5C 457.513,374.188 458.513,376.854 459.5,379.5C 457.086,377.66 455.419,375.327 454.5,372.5C 454.5,371.833 454.5,371.167 454.5,370.5 Z"/></g>
<g><path style="opacity:1" fill="#d44850" d="M 341.5,351.5 C 339.463,356.863 339.13,362.197 340.5,367.5C 340.328,368.492 340.662,369.158 341.5,369.5C 341.845,372.198 343.178,374.198 345.5,375.5C 346.262,377.262 347.596,378.262 349.5,378.5C 350.78,379.931 352.447,380.598 354.5,380.5C 356.948,381.473 359.615,381.806 362.5,381.5C 357.336,382.352 352.003,382.352 346.5,381.5C 345.702,377.91 343.536,375.577 340,374.5C 337.987,369.435 336.987,364.102 337,358.5C 336.5,358 336,357.5 335.5,357C 337.67,355.202 339.67,353.369 341.5,351.5 Z"/></g>
<g><path style="opacity:1" fill="#e84546" d="M 540.5,334.5 C 540.5,348.167 540.5,361.833 540.5,375.5C 538.645,375.272 537.812,375.939 538,377.5C 539.569,377.153 541.402,376.986 543.5,377C 546.064,378.851 546.064,380.684 543.5,382.5C 544,382.833 544.5,383.167 545,383.5C 546.092,382.704 547.259,382.037 548.5,381.5C 561.52,385.445 568.52,380.778 569.5,367.5C 569.5,356.167 569.5,344.833 569.5,333.5C 573.437,333.207 577.27,333.54 581,334.5C 581.5,346.495 581.667,358.495 581.5,370.5C 580.758,377.787 577.758,383.787 572.5,388.5C 569.228,389.758 565.894,390.925 562.5,392C 550.939,394.862 541.272,392.029 533.5,383.5C 533.818,380.519 532.818,378.185 530.5,376.5C 529.677,362.183 529.344,347.849 529.5,333.5C 533.371,333.185 537.038,333.518 540.5,334.5 Z"/></g>
<g><path style="opacity:1" fill="#292135" d="M 542.5,333.5 C 543.331,345.326 543.831,357.326 544,369.5C 546.228,373.377 549.061,376.71 552.5,379.5C 553.251,378.624 553.751,377.624 554,376.5C 557.095,377.395 560.262,377.395 563.5,376.5C 563.285,374.821 563.952,373.821 565.5,373.5C 565.5,374.167 565.5,374.833 565.5,375.5C 564.032,376.806 562.699,378.306 561.5,380C 557.5,380.667 553.5,380.667 549.5,380C 546.591,378.594 544.591,376.428 543.5,373.5C 542.536,360.216 542.203,346.883 542.5,333.5 Z"/></g>
<g><path style="opacity:1" fill="#ebecec" d="M 205.5,331.5 C 214.961,330.483 223.961,331.983 232.5,336C 234.976,337.309 236.976,339.142 238.5,341.5C 236.146,344.688 233.312,347.355 230,349.5C 223.555,343.798 216.055,341.964 207.5,344C 197.625,349.259 194.125,357.425 197,368.5C 201.71,378.605 209.543,382.438 220.5,380C 224.174,378.981 227.341,377.148 230,374.5C 232.951,376.447 235.618,378.781 238,381.5C 238.507,382.996 238.007,384.163 236.5,385C 222.94,394.139 208.94,394.805 194.5,387C 183.851,378.263 180.018,367.096 183,353.5C 187.109,342.557 194.609,335.223 205.5,331.5 Z"/></g>
<g><path style="opacity:1" fill="#49232e" d="M 421.5,376.5 C 417.5,376.5 413.5,376.5 409.5,376.5C 409.821,381.695 409.487,386.695 408.5,391.5C 408.5,386.167 408.5,380.833 408.5,375.5C 410.473,374.837 412.639,374.504 415,374.5C 417.61,374.533 419.777,375.2 421.5,376.5 Z"/></g>
<g><path style="opacity:1" fill="#d04b50" d="M 540.5,334.5 C 540.833,334.5 541.167,334.5 541.5,334.5C 540.852,347.876 541.519,360.876 543.5,373.5C 544.591,376.428 546.591,378.594 549.5,380C 553.5,380.667 557.5,380.667 561.5,380C 562.699,378.306 564.032,376.806 565.5,375.5C 567.585,373.316 568.585,370.649 568.5,367.5C 568.833,367.5 569.167,367.5 569.5,367.5C 568.52,380.778 561.52,385.445 548.5,381.5C 547.259,382.037 546.092,382.704 545,383.5C 544.5,383.167 544,382.833 543.5,382.5C 546.064,380.684 546.064,378.851 543.5,377C 541.402,376.986 539.569,377.153 538,377.5C 537.812,375.939 538.645,375.272 540.5,375.5C 540.5,361.833 540.5,348.167 540.5,334.5 Z"/></g>
<g><path style="opacity:1" fill="#b4484c" d="M 504.5,367.5 C 503.364,372.96 500.364,376.96 495.5,379.5C 498.491,375.53 501.491,371.53 504.5,367.5 Z"/></g>
<g><path style="opacity:1" fill="#c74c52" d="M 327.5,351.5 C 327.5,352.5 327.5,353.5 327.5,354.5C 326.643,362.534 327.81,370.201 331,377.5C 332.714,378.925 334.047,378.592 335,376.5C 335.44,378.076 336.273,379.41 337.5,380.5C 336.807,381.518 336.141,382.518 335.5,383.5C 333.983,383.489 332.816,382.823 332,381.5C 329.626,378.737 327.792,375.737 326.5,372.5C 325.746,367.537 325.413,362.537 325.5,357.5C 325.595,355.214 326.262,353.214 327.5,351.5 Z"/></g>
<g><path style="opacity:1" fill="#ac5258" d="M 437.5,378.5 C 439.543,379.579 440.876,381.246 441.5,383.5C 439.469,382.461 438.136,380.795 437.5,378.5 Z"/></g>
<g><path style="opacity:1" fill="#b64b57" d="M 470.5,373.5 C 473.062,376.223 476.062,378.389 479.5,380C 484.861,380.609 490.195,380.442 495.5,379.5C 494.737,380.268 493.737,380.768 492.5,381C 486.509,381.499 480.509,381.666 474.5,381.5C 473.618,378.615 472.284,375.948 470.5,373.5 Z"/></g>
<g><path style="opacity:1" fill="#b6505b" d="M 530.5,376.5 C 532.818,378.185 533.818,380.519 533.5,383.5C 532.088,381.396 531.088,379.063 530.5,376.5 Z"/></g>
<g><path style="opacity:1" fill="#e6ebed" d="M 160.5,379.5 C 160.611,380.117 160.944,380.617 161.5,381C 158.289,382.153 154.956,382.82 151.5,383C 154.882,383.176 158.215,383.676 161.5,384.5C 161.192,385.308 160.692,385.975 160,386.5C 157.446,385.229 154.613,384.562 151.5,384.5C 148.579,384.524 145.746,384.857 143,385.5C 142.25,384.874 141.416,384.374 140.5,384C 140.833,383.667 141.167,383.333 141.5,383C 139.222,382.014 136.889,381.18 134.5,380.5C 133.119,381 132.453,382 132.5,383.5C 133.998,385.829 135.998,387.663 138.5,389C 145.444,390.455 152.444,390.788 159.5,390C 163.881,389.309 167.548,387.309 170.5,384C 171.448,383.517 172.448,383.351 173.5,383.5C 169.999,388.091 165.333,390.924 159.5,392C 148.273,393.967 137.773,392.133 128,386.5C 127.928,382.389 129.261,378.722 132,375.5C 140.842,381.713 150.342,383.047 160.5,379.5 Z"/></g>
<g><path style="opacity:1" fill="#3f1928" d="M 609.5,375.5 C 614.167,375.5 618.833,375.5 623.5,375.5C 623.158,376.338 622.492,376.672 621.5,376.5C 620.5,376.5 619.5,376.5 618.5,376.5C 615.833,376.5 613.167,376.5 610.5,376.5C 610.819,381.363 610.486,386.03 609.5,390.5C 609.5,385.5 609.5,380.5 609.5,375.5 Z"/></g>
<g><path style="opacity:1" fill="#312235" d="M 581.5,370.5 C 581.833,370.5 582.167,370.5 582.5,370.5C 582.664,373.187 582.497,375.854 582,378.5C 580.165,380.449 578.999,382.783 578.5,385.5C 576.87,387.264 574.87,388.264 572.5,388.5C 577.758,383.787 580.758,377.787 581.5,370.5 Z"/></g>
<g><path style="opacity:1" fill="#e94544" d="M 341.5,351.5 C 339.67,353.369 337.67,355.202 335.5,357C 336,357.5 336.5,358 337,358.5C 336.987,364.102 337.987,369.435 340,374.5C 343.536,375.577 345.702,377.91 346.5,381.5C 352.003,382.352 357.336,382.352 362.5,381.5C 365.394,381.958 367.894,381.291 370,379.5C 370.499,373.843 370.666,368.176 370.5,362.5C 373.833,362.5 377.167,362.5 380.5,362.5C 380.5,370.167 380.5,377.833 380.5,385.5C 376.777,388.537 372.443,390.537 367.5,391.5C 361.491,391.666 355.491,391.499 349.5,391C 344.395,389.48 339.728,387.313 335.5,384.5C 335.5,384.167 335.5,383.833 335.5,383.5C 336.141,382.518 336.807,381.518 337.5,380.5C 336.273,379.41 335.44,378.076 335,376.5C 334.047,378.592 332.714,378.925 331,377.5C 327.81,370.201 326.643,362.534 327.5,354.5C 329.289,351.848 330.289,348.848 330.5,345.5C 331.822,345.67 332.989,345.337 334,344.5C 334.667,349.833 335.333,349.833 336,344.5C 338.872,344.357 341.705,344.857 344.5,346C 342.393,347.264 341.393,349.097 341.5,351.5 Z"/></g>
<g><path style="opacity:1" fill="#2c2134" d="M 349.5,378.5 C 355.5,378.5 361.5,378.5 367.5,378.5C 363.455,380.177 359.122,380.844 354.5,380.5C 352.447,380.598 350.78,379.931 349.5,378.5 Z"/></g>
<g><path style="opacity:1" fill="#11244a" d="M 618.5,376.5 C 619.5,376.5 620.5,376.5 621.5,376.5C 621.946,382.021 621.446,387.355 620,392.5C 618.554,387.355 618.054,382.021 618.5,376.5 Z"/></g>
<g><path style="opacity:1" fill="#ea4544" d="M 628.5,333.5 C 631.451,333.287 634.118,333.954 636.5,335.5C 636.5,336.5 636.5,337.5 636.5,338.5C 638.664,338.721 640.33,339.721 641.5,341.5C 642.87,344.312 643.87,347.312 644.5,350.5C 644,350.833 643.5,351.167 643,351.5C 639.738,350.462 638.571,348.462 639.5,345.5C 638.675,344.614 637.675,344.281 636.5,344.5C 638.319,350.391 638.153,356.391 636,362.5C 634.103,364.665 631.936,365.332 629.5,364.5C 630.347,363.155 631.513,362.155 633,361.5C 633.483,360.552 633.649,359.552 633.5,358.5C 634.486,354.03 634.819,349.363 634.5,344.5C 629.537,343.047 624.37,342.38 619,342.5C 615.648,342.502 612.482,342.835 609.5,343.5C 608.503,343.47 607.836,343.97 607.5,345C 608.833,351 608.833,357 607.5,363C 607.836,364.03 608.503,364.53 609.5,364.5C 614.602,365.918 619.936,366.751 625.5,367C 608.234,368.513 608.234,369.013 625.5,368.5C 625.52,370.143 624.853,371.476 623.5,372.5C 621.5,372.833 619.5,373.167 617.5,373.5C 613.752,373.339 610.418,372.339 607.5,370.5C 607.5,372.167 607.5,373.833 607.5,375.5C 608.481,380.129 608.648,384.796 608,389.5C 604.565,390.466 601.065,390.466 597.5,389.5C 597.5,370.833 597.5,352.167 597.5,333.5C 607.833,333.5 618.167,333.5 628.5,333.5 Z"/></g>
<g><path style="opacity:1" fill="#112544" d="M 618.5,344.5 C 620.099,344.232 621.432,344.566 622.5,345.5C 621.539,347.265 621.205,349.265 621.5,351.5C 622.552,351.351 623.552,351.517 624.5,352C 623.62,353.356 623.286,354.856 623.5,356.5C 622.167,356.5 620.833,356.5 619.5,356.5C 619.5,357.5 619.5,358.5 619.5,359.5C 621.57,359.551 623.403,358.885 625,357.5C 625.5,357.833 626,358.167 626.5,358.5C 625.754,359.736 625.421,361.07 625.5,362.5C 622.482,362.665 619.482,362.498 616.5,362C 614.893,360.951 614.227,359.451 614.5,357.5C 613.167,357.5 611.833,357.5 610.5,357.5C 610.5,354.5 610.5,351.5 610.5,348.5C 611.833,348.5 613.167,348.5 614.5,348.5C 614.52,350.143 613.853,351.476 612.5,352.5C 614.791,353.59 617.124,354.09 619.5,354C 619.957,353.586 620.291,353.086 620.5,352.5C 618.777,350.132 618.11,347.466 618.5,344.5 Z"/></g>
<g><path style="opacity:1" fill="#382533" d="M 628.5,345.5 C 630.752,345.916 632.252,347.249 633,349.5C 633.498,352.482 633.665,355.482 633.5,358.5C 632.391,358.557 631.391,358.89 630.5,359.5C 627.742,358.033 628.075,357.367 631.5,357.5C 631.96,353.061 630.96,349.061 628.5,345.5 Z"/></g>
<g><path style="opacity:1" fill="#13273b" d="M 622.5,345.5 C 624.5,345.5 626.5,345.5 628.5,345.5C 630.96,349.061 631.96,353.061 631.5,357.5C 628.075,357.367 627.742,358.033 630.5,359.5C 629.335,362.59 627.002,363.924 623.5,363.5C 619.167,363.5 614.833,363.5 610.5,363.5C 610.5,361.5 610.5,359.5 610.5,357.5C 611.833,357.5 613.167,357.5 614.5,357.5C 614.227,359.451 614.893,360.951 616.5,362C 619.482,362.498 622.482,362.665 625.5,362.5C 625.421,361.07 625.754,359.736 626.5,358.5C 626,358.167 625.5,357.833 625,357.5C 623.403,358.885 621.57,359.551 619.5,359.5C 619.5,358.5 619.5,357.5 619.5,356.5C 620.833,356.5 622.167,356.5 623.5,356.5C 623.286,354.856 623.62,353.356 624.5,352C 623.552,351.517 622.552,351.351 621.5,351.5C 621.205,349.265 621.539,347.265 622.5,345.5 Z"/></g>
<g><path style="opacity:1" fill="#c2555d" d="M 609.5,343.5 C 609.5,350.5 609.5,357.5 609.5,364.5C 608.503,364.53 607.836,364.03 607.5,363C 608.833,357 608.833,351 607.5,345C 607.836,343.97 608.503,343.47 609.5,343.5 Z"/></g>
<g><path style="opacity:1" fill="#072c3c" d="M 618.5,344.5 C 618.11,347.466 618.777,350.132 620.5,352.5C 620.291,353.086 619.957,353.586 619.5,354C 617.124,354.09 614.791,353.59 612.5,352.5C 613.853,351.476 614.52,350.143 614.5,348.5C 613.167,348.5 611.833,348.5 610.5,348.5C 610.5,347.167 610.5,345.833 610.5,344.5C 613.167,344.5 615.833,344.5 618.5,344.5 Z"/></g>
<g><path style="opacity:1" fill="#4c1d30" d="M 609.5,343.5 C 614.844,343.334 620.177,343.501 625.5,344C 626.737,344.232 627.737,344.732 628.5,345.5C 626.5,345.5 624.5,345.5 622.5,345.5C 621.432,344.566 620.099,344.232 618.5,344.5C 615.833,344.5 613.167,344.5 610.5,344.5C 610.5,345.833 610.5,347.167 610.5,348.5C 610.5,351.5 610.5,354.5 610.5,357.5C 610.5,359.5 610.5,361.5 610.5,363.5C 614.833,363.5 619.167,363.5 623.5,363.5C 619.03,364.486 614.363,364.819 609.5,364.5C 609.5,357.5 609.5,350.5 609.5,343.5 Z"/></g>
<g><path style="opacity:1" fill="#ca514f" d="M 609.5,343.5 C 612.482,342.835 615.648,342.502 619,342.5C 624.37,342.38 629.537,343.047 634.5,344.5C 634.819,349.363 634.486,354.03 633.5,358.5C 633.665,355.482 633.498,352.482 633,349.5C 632.252,347.249 630.752,345.916 628.5,345.5C 627.737,344.732 626.737,344.232 625.5,344C 620.177,343.501 614.844,343.334 609.5,343.5 Z"/></g>
<g><path style="opacity:1" fill="#c45356" d="M 427.5,383.5 C 429.012,385.317 431.012,386.317 433.5,386.5C 433.5,387.833 433.5,389.167 433.5,390.5C 437.649,391.08 441.316,390.414 444.5,388.5C 445.267,389.172 445.934,390.005 446.5,391C 441.467,391.829 436.467,391.662 431.5,390.5C 429.89,388.275 428.557,385.941 427.5,383.5 Z"/></g>
<g><path style="opacity:1" fill="#a74a54" d="M 335.5,384.5 C 339.728,387.313 344.395,389.48 349.5,391C 355.491,391.499 361.491,391.666 367.5,391.5C 358.333,393.421 349.333,392.588 340.5,389C 338.602,387.583 336.936,386.083 335.5,384.5 Z"/></g>
<g><path style="opacity:1" fill="#9d4850" d="M 473.5,390.5 C 480.799,391.35 488.132,391.683 495.5,391.5C 490.36,392.488 485.026,392.821 479.5,392.5C 477.102,392.741 475.102,392.074 473.5,390.5 Z"/></g>
<g><path style="opacity:1" fill="#341e38" d="M 505.5,387.5 C 503.228,389.24 500.895,391.073 498.5,393C 491.986,393.82 485.653,393.653 479.5,392.5C 485.026,392.821 490.36,392.488 495.5,391.5C 498.678,389.991 502.011,388.658 505.5,387.5 Z"/></g>
<g><path style="opacity:1" fill="#0f293c" d="M 315.5,333.5 C 316.332,353.329 316.832,373.329 317,393.5C 317.414,393.043 317.914,392.709 318.5,392.5C 319.331,386.193 319.831,379.859 320,373.5C 321.653,370.46 323.153,367.46 324.5,364.5C 324.575,367.206 324.908,369.873 325.5,372.5C 323.054,377.171 321.388,382.171 320.5,387.5C 321.762,390.022 322.429,392.689 322.5,395.5C 320.473,395.338 318.473,395.505 316.5,396C 317.833,397 317.833,398 316.5,399C 312.129,399.828 307.795,399.661 303.5,398.5C 306.714,397.956 309.714,396.956 312.5,395.5C 311.91,394.201 310.91,393.368 309.5,393C 306.242,392.788 303.076,392.288 300,391.5C 299.666,384.148 299,376.815 298,369.5C 293.871,373.076 292.705,377.41 294.5,382.5C 293.833,383.167 293.167,383.833 292.5,384.5C 294.878,389.227 295.878,394.06 295.5,399C 293.866,399.494 292.199,399.66 290.5,399.5C 290.803,393.815 290.97,388.148 291,382.5C 290.302,381.309 289.469,380.309 288.5,379.5C 292.5,372.5 296.5,365.5 300.5,358.5C 301.167,369.5 301.833,380.5 302.5,391.5C 306.833,391.5 311.167,391.5 315.5,391.5C 315.5,372.167 315.5,352.833 315.5,333.5 Z"/></g>
</svg>
