<?xml version="1.0"?>
<svg width="384" height="262.6" xmlns="http://www.w3.org/2000/svg" xmlns:svg="http://www.w3.org/2000/svg" xmlns:xlink="http://www.w3.org/1999/xlink" enable-background="new 0 0 384 262.6" version="1.1" xml:space="preserve">
 <style type="text/css">.st0{fill:#FFFFFF;}
	.st1{fill:#2F3339;}
	.st2{fill:none;stroke:#2F3339;stroke-width:3;stroke-miterlimit:10;}
	.st3{fill:#2F3339;stroke:#2F3339;stroke-width:2.9;stroke-linecap:round;stroke-linejoin:round;stroke-miterlimit:10;}
	.st4{fill:#FFFFFF;stroke:#FFFFFF;stroke-width:2;stroke-miterlimit:10;}
	.st5{clip-path:url(#SVGID_2_);}
	.st6{fill:#1D1D1B;}
	.st7{fill:#2F2FC0;}
	.st8{fill:none;stroke:#2F3339;stroke-width:3;stroke-linecap:round;stroke-linejoin:round;stroke-miterlimit:10;}
	.st9{fill:none;stroke:#2F2FC0;stroke-width:5;stroke-linecap:round;stroke-linejoin:round;stroke-miterlimit:10;}
	.st10{fill:none;stroke:#2F3339;stroke-width:2;stroke-linecap:round;stroke-linejoin:round;stroke-miterlimit:10;}
	.st11{fill:#2F3339;stroke:#2F3339;stroke-width:2.7116;stroke-linecap:round;stroke-linejoin:round;stroke-miterlimit:10;}
	.st12{fill:#FFFFFF;stroke:#FFFFFF;stroke-width:1.8311;stroke-miterlimit:10;}
	.st13{clip-path:url(#SVGID_4_);}
	.st14{fill:none;stroke:#2F2FC0;stroke-width:4.5779;stroke-linecap:round;stroke-linejoin:round;stroke-miterlimit:10;}
	.st15{fill:#2F3339;stroke:#2F3339;stroke-width:2.8083;stroke-linecap:round;stroke-linejoin:round;stroke-miterlimit:10;}
	.st16{fill:#FFFFFF;stroke:#FFFFFF;stroke-width:1.8964;stroke-miterlimit:10;}
	.st17{clip-path:url(#SVGID_6_);}
	.st18{fill:none;stroke:#2F2FC0;stroke-width:4.7411;stroke-linecap:round;stroke-linejoin:round;stroke-miterlimit:10;}
	.st19{fill:#2F3339;stroke:#2F3339;stroke-width:2.3651;stroke-linecap:round;stroke-linejoin:round;stroke-miterlimit:10;}
	.st20{fill:#FFFFFF;stroke:#FFFFFF;stroke-width:1.9275;stroke-miterlimit:10;}
	.st21{clip-path:url(#SVGID_8_);}
	.st22{fill:none;stroke:#2F2FC0;stroke-width:4.8188;stroke-linecap:round;stroke-linejoin:round;stroke-miterlimit:10;}</style>
 <g class="layer">
  <title>Layer 1</title>
  <g id="svg_1">
   <rect class="st0" height="262.6" id="svg_2" stroke-width="0" transform="matrix(1 0 0 1 0 0)" width="384"/>
   <g id="svg_3">
    <path class="st1" d="m123.1,169.8l6.7,0c2.7,0 4.9,6.5 4.9,14.5c0,8 -2.2,14.5 -4.9,14.5l-6.7,0c-2.7,0 -4.9,-6.5 -4.9,-14.5c0,-8 2.2,-14.5 4.9,-14.5z" id="svg_4" stroke-width="0"/>
    <path class="st1" d="m106.2,172.3l7.5,0c3.1,0 5.6,7.4 5.6,16.4c0,9 -2.5,16.4 -5.6,16.4l-7.5,0c-3.1,0 -5.6,-7.4 -5.6,-16.4c0.1,-9 2.6,-16.4 5.6,-16.4z" id="svg_5" stroke-width="0"/>
    <path class="st0" d="m113.8,204.8c-3.1,0 -5.6,-7.3 -5.6,-16.3c0,-9 2.5,-16.3 5.6,-16.3c3.1,0 5.6,7.3 5.6,16.3c-0.1,9 -2.6,16.3 -5.6,16.3z" id="svg_6" stroke-width="0"/>
    <path class="st1" d="m188.3,170.2l6.4,0c2.6,0 4.8,6.1 4.8,13.7s-2.1,13.7 -4.8,13.7l-6.4,0c-2.6,0 -4.8,-6.1 -4.8,-13.7s2.2,-13.7 4.8,-13.7z" id="svg_7" stroke-width="0"/>
    <path class="st0" d="m194.7,197.5c-2.6,0 -4.8,-6.2 -4.8,-13.8s2.1,-13.8 4.8,-13.8c2.6,0 4.8,6.2 4.8,13.8s-2.1,13.8 -4.8,13.8z" id="svg_8" stroke-width="0"/>
    <path class="st1" d="m176.1,171l6.4,0c2.6,0 4.8,6.1 4.8,13.7c0,7.6 -2.1,13.7 -4.8,13.7l-6.4,0c-2.6,0 -4.8,-6.1 -4.8,-13.7c0,-7.6 2.2,-13.7 4.8,-13.7z" id="svg_9" stroke-width="0"/>
    <path class="st0" d="m182.5,198.3c-2.6,0 -4.8,-6.2 -4.8,-13.8s2.1,-13.8 4.8,-13.8s4.8,6.2 4.8,13.8s-2.1,13.8 -4.8,13.8z" id="svg_10" stroke-width="0"/>
    <path class="st1" d="m163.4,171l6.7,0c2.7,0 4.9,6.5 4.9,14.5c0,8 -2.2,14.5 -4.9,14.5l-6.7,0c-2.7,0 -4.9,-6.5 -4.9,-14.5c-0.1,-7.9 2.1,-14.5 4.9,-14.5z" id="svg_11" stroke-width="0"/>
    <path class="st0" d="m170,199.9c-2.7,0 -4.9,-6.5 -4.9,-14.5c0,-8 2.2,-14.5 4.9,-14.5c2.7,0 4.9,6.5 4.9,14.5c0.1,8 -2.1,14.5 -4.9,14.5z" id="svg_12" stroke-width="0"/>
    <path class="st1" d="m238.5,174l7.8,0c3.2,0 5.8,7.6 5.8,17c0,9.4 -2.6,17 -5.8,17l-7.8,0c-3.2,0 -5.8,-7.6 -5.8,-17c0.1,-9.4 2.6,-17 5.8,-17z" id="svg_13" stroke-width="0"/>
    <path class="st0" d="m202.4,184.3l0,-125.7l121,22.2l0,95.8l-121,7.7z" id="svg_14" stroke-width="0"/>
    <path class="st0" d="m108.2,76.7l106.9,0l0,93.4l-106.9,0l0,-93.4z" id="svg_15" stroke-width="0"/>
    <path class="st1" d="m181.5,180.2l9.1,0c3.7,0 6.7,9 6.7,20c0,11 -3,20 -6.7,20l-9.1,0c-3.7,0 -6.7,-9 -6.7,-20c0,-11.1 3,-20 6.7,-20z" id="svg_16" stroke-width="0"/>
    <path class="st0" d="m190.6,219.1c-3.7,0 -6.7,-8.8 -6.7,-19.6c0,-10.8 3,-19.6 6.7,-19.6c3.7,0 6.7,8.8 6.7,19.6c-0.1,10.9 -3,19.6 -6.7,19.6z" id="svg_17" stroke-width="0"/>
    <path class="st1" d="m190.6,219.7c4,0 7.2,-8.8 7.2,-20.1c0,-11.3 -3.2,-20.1 -7.2,-20.1c-4,0 -7.2,8.8 -7.2,20.1s3.1,20.1 7.2,20.1zm0,-39.2c3,0 6.1,7.7 6.1,19c0,11.4 -3.2,19 -6.1,19c-3,0 -6.1,-7.7 -6.1,-19c-0.1,-11.4 3.1,-19 6.1,-19z" id="svg_18" stroke-width="0"/>
    <path class="st1" d="m108,179.3l9,0c3.7,0 6.6,9.2 6.6,20.4c0,11.3 -3,20.4 -6.6,20.4l-9,0c-3.7,0 -6.6,-9.2 -6.6,-20.4c0,-11.2 3,-20.4 6.6,-20.4z" id="svg_19" stroke-width="0"/>
    <path class="st0" d="m117.1,218.5c-3.7,0 -6.7,-8.8 -6.7,-19.7s3,-19.7 6.7,-19.7c3.7,0 6.7,8.8 6.7,19.7s-3,19.7 -6.7,19.7z" id="svg_20" stroke-width="0"/>
    <path class="st1" d="m117.1,219c4.1,0 7.3,-8.9 7.3,-20.3s-3.2,-20.3 -7.3,-20.3c-4.1,0 -7.3,8.9 -7.3,20.3s3.2,20.3 7.3,20.3zm0,-39.5c3,0 6.2,7.7 6.2,19.2s-3.2,19.2 -6.2,19.2c-3,0 -6.2,-7.7 -6.2,-19.2s3.2,-19.2 6.2,-19.2z" id="svg_21" stroke-width="0"/>
    <path class="st0" d="m209.8,87.8l0.3,81.8l-3.1,2.6c-0.6,0.5 -1,1.1 -1.3,1.7c-0.3,0.7 -0.4,1.4 -0.4,2.1l1.3,29.4c0,0.3 0,0.6 -0.1,0.9c-0.1,0.3 -0.3,0.5 -0.5,0.7c-0.2,0.2 -0.4,0.4 -0.7,0.5c-0.3,0.1 -0.6,0.2 -0.9,0.2c-1,0 -4.4,0.1 -4.4,0c0,-18.4 -0.9,-33.5 -5.4,-33.5c-4.5,0 -8.1,14.9 -8.1,33.3c0,0.1 -10.7,0.2 -10.7,0.2l0,-119.6l34,-0.3z" id="svg_22" stroke-width="0"/>
    <path class="st0" d="m99.9,97.3l75.3,0l0,110.5l-81.6,0c-1.2,0 -2.3,-0.4 -3.1,-1.2c-0.8,-0.8 -1.3,-1.8 -1.3,-2.9l0,-35.4c0,-9.8 0.9,-19.7 2.8,-29.3l7.9,-41.7z" id="svg_23" stroke-width="0"/>
    <path class="st1" d="m100.6,157l63.1,0c1.3,0 2.5,-0.4 3.4,-1.1c0.9,-0.7 1.4,-1.7 1.4,-2.8l0,-9.7c0,-0.1 -0.1,-0.2 -0.2,-0.3c-0.1,-0.1 -0.2,-0.1 -0.4,-0.1l-30,0c-2.4,0 -4.7,0.4 -6.9,1.2c-2.2,0.8 -4.2,1.9 -5.8,3.3c-1.6,1.3 -3.4,2.4 -5.5,3.1c-2.1,0.7 -4.3,1.1 -6.5,1.1l-16.7,0c-0.1,0 -0.2,0 -0.3,0.1c-0.1,0.1 -0.2,0.2 -0.2,0.3l-0.1,0.4c-0.1,0.6 -0.1,1.2 0.1,1.7c0.2,0.6 0.5,1.1 1,1.5c0.5,0.4 1,0.8 1.7,1c0.5,0.1 1.2,0.3 1.9,0.3l0,0z" id="svg_24" stroke-width="0"/>
    <path class="st1" d="m183.6,153.2c0,0 0,0 0.5,0c0.5,-0.1 4.8,-4.1 4.8,-4.1s1.9,-1.5 2.8,-2.6c0.9,-1 1.4,-2.4 1.4,-3.7l0,-20c0,-0.8 -0.3,-1.5 -0.9,-2.1c-0.6,-0.5 -0.6,-0.9 -2.2,-0.9c-1.6,0 -5.7,1.8 -5.7,1.8s-1.6,0.6 -2.3,1.2c-0.7,0.6 -1.1,1.5 -1,2.4l0,25.3c0,0.7 0.3,1.3 0.8,1.8s1.1,0.9 1.8,0.9zm4.7,-5.2l-4.4,4.1c-0.2,0 -0.5,0 -0.7,0c-0.2,-0.1 -0.4,-0.2 -0.6,-0.3c-0.2,-0.1 -0.3,-0.3 -0.4,-0.5c-0.1,-0.2 -0.1,-0.4 -0.1,-0.6l0,-25.3c0,-0.6 0.3,-1.2 0.7,-1.7c0.5,-0.4 1,-0.7 1.7,-0.9c0,0 4.9,-1.8 5.6,-1.8c0.7,0 1,0.2 1.4,0.6c0.4,0.4 0.6,0.8 0.6,1.3l0,20c0,1.1 -0.4,2.2 -1.2,3.1c-0.8,0.6 -2.6,2 -2.6,2z" id="svg_25" stroke-width="0"/>
    <path class="st8" d="m165.1,107.1c1.4,0 2.7,0.6 3.7,1.5c1,1 1.5,2.3 1.5,3.7l-1.4,39.8c0,1 -0.4,2.1 -1.1,2.8c-0.7,0.7 -1.7,1.2 -2.8,1.2l-65.3,0c-0.6,0 -1.1,-0.1 -1.7,-0.4c-0.5,-0.2 -1,-0.6 -1.3,-1c-0.4,-0.4 -0.6,-1 -0.8,-1.5c-0.2,-0.6 -0.2,-1.2 -0.1,-1.7l7.3,-40.7c0.2,-1.2 0.8,-2.3 1.8,-3.1c0.9,-0.8 2.1,-1.2 3.3,-1.2l56.9,0.6z" id="svg_26" stroke-width="0"/>
    <path class="st1" d="m193.2,120.8l-2.2,0c-0.6,0 -1.1,0.2 -1.6,0.5c-0.4,0.3 -0.6,0.8 -0.6,1.2l0,22.6c0,0.5 0.2,0.9 0.6,1.2c0.4,0.3 1,0.5 1.5,0.5l0.7,0c1.7,0 3.3,-0.5 4.4,-1.4c1.2,-0.9 1.8,-2.2 1.8,-3.5l0,-17.3c0.1,-3.4 -0.5,-3.6 -0.5,-3.6c-0.8,-0.3 -3.4,-0.2 -4.1,-0.2z" id="svg_27" stroke-width="0"/>
    <path class="st1" d="m86.7,120.1l2.2,0c0.6,0 1.1,0.2 1.6,0.5c0.4,0.3 0.6,0.8 0.6,1.2l0,22.6c0,0.5 -0.2,0.9 -0.6,1.2c-0.4,0.3 -1,0.5 -1.5,0.5l-0.7,0c-1.7,0 -3.3,-0.5 -4.4,-1.4c-1.2,-0.9 -1.8,-2.2 -1.8,-3.5l0,-17.3c-0.1,-3.4 0.5,-3.6 0.5,-3.6c0.9,-0.4 3.5,-0.2 4.1,-0.2z" id="svg_28" stroke-width="0"/>
    <g id="svg_29">
     <path class="st1" d="m144.6,197.1c-0.6,-0.4 -1.2,-0.7 -1.9,-0.7l-24.8,0c-0.7,0 -1.3,0.2 -1.9,0.7c-0.6,0.4 -1.1,1.1 -1.4,1.8l-0.5,2.4c-0.1,0.3 -0.2,0.6 -0.2,0.9c0,0.3 0.1,0.6 0.2,0.9c0.1,0.3 0.3,0.5 0.5,0.7c0.2,0.2 0.4,0.2 0.7,0.2l29.7,0c0.2,0 0.5,-0.1 0.7,-0.2c0.2,-0.2 0.4,-0.4 0.5,-0.7c0.1,-0.3 0.2,-0.6 0.2,-0.9c0,-0.1 -0.3,-3 -0.4,-3.3c-0.2,-0.3 -0.9,-1.4 -1.4,-1.8zm-28.8,1.6c0,0 0.1,0 0.1,0l28.7,0c0,0 0.1,0 0.1,0c0.2,0.2 0.3,0.5 0.5,0.8l0.2,2.1l-30.5,0l0.4,-2.1c0.1,-0.3 0.3,-0.6 0.5,-0.8z" id="svg_30" stroke-width="0"/>
     <path class="st1" d="m146.4,202.1c0,0.2 0,-0.3 0,0l0,0z" id="svg_31" stroke-width="0"/>
    </g>
    <path class="st19" d="m158.4,165.2l-3.8,-0.2l-45.7,0l-5.5,0.2l0.8,6l4.3,21.9l44.4,-0.8l4.6,-21.6l0.9,-5.5z" id="svg_32" stroke-width="0"/>
    <path class="st1" d="m95.3,192.3l7.3,0c0.3,0 0.5,-0.1 0.7,-0.2s0.4,-0.4 0.6,-0.6c0.1,-0.3 0.2,-0.6 0.3,-0.9c0,-0.3 0,-0.7 -0.1,-1l-0.6,-2.2c-0.3,-1.3 -1,-2.4 -1.8,-3.1s-1.8,-1.2 -2.9,-1.2l-5.7,0c0,0 -0.1,0 -0.1,0c0,0 -0.1,0.1 -0.1,0.1c0,0 -0.1,0.1 -0.1,0.2c0,0.1 0,0.1 0,0.2l0,5.3c0,0.9 0.3,1.8 0.8,2.4c0.3,0.7 1,1 1.7,1zm3.5,-8.2c0.9,0 1.7,0.4 2.4,1c0.7,0.7 1.3,1.6 1.5,2.7l0.6,2.2c0,0.2 0.1,0.3 0,0.5c0,0.2 -0.1,0.3 -0.1,0.5c-0.1,0.1 -0.2,0.3 -0.3,0.3c-0.1,0.1 -0.2,0.1 -0.4,0.1l-7.3,0c-0.5,0 -1,-0.3 -1.3,-0.7c-0.4,-0.5 -0.6,-1.1 -0.6,-1.7l0,-4.8l5.5,0l0,-0.1z" id="svg_33" stroke-width="0"/>
    <path class="st1" d="m167.8,192.3l-8.7,0c-0.3,0 -0.6,-0.1 -0.9,-0.2c-0.3,-0.1 -0.5,-0.4 -0.7,-0.6c-0.2,-0.3 -0.3,-0.6 -0.3,-0.9c0,-0.3 0,-0.7 0.1,-1l0.7,-2.2c0.4,-1.3 1.2,-2.4 2.2,-3.1s2.2,-1.2 3.4,-1.2l6.9,0c0.1,0 0.1,0 0.2,0c0.1,0 0.1,0.1 0.1,0.1c0,0 0.1,0.1 0.1,0.2c0,0.1 0,0.1 0,0.2l0,5.3c0,0.9 -0.3,1.8 -0.9,2.4c-0.5,0.7 -1.3,1 -2.2,1zm-4.1,-8.2c-1,0 -2.1,0.4 -2.9,1c-0.9,0.7 -1.5,1.6 -1.8,2.7l-0.7,2.2c-0.1,0.2 -0.1,0.3 0,0.5c0,0.2 0.1,0.3 0.2,0.5c0.1,0.1 0.2,0.3 0.3,0.3c0.1,0.1 0.3,0.1 0.5,0.1l8.7,0c0.6,0 1.2,-0.3 1.6,-0.7c0.4,-0.5 0.7,-1.1 0.7,-1.7l0,-4.8l-6.6,0l0,-0.1z" id="svg_34" stroke-width="0"/>
    <path class="st20" d="m110.4,179.3l40.4,0c0.1,0 0.2,-0.1 0.3,-0.2c0.1,-0.1 0.1,-0.2 0.1,-0.4c0,-0.1 0,-0.3 -0.1,-0.4c-0.1,-0.1 -0.2,-0.2 -0.3,-0.2l-40.4,0c-0.1,0 -0.2,0.1 -0.3,0.2c-0.1,0.1 -0.1,0.2 -0.1,0.4c0,0.1 0,0.3 0.1,0.4c0.1,0.2 0.2,0.2 0.3,0.2z" id="svg_35" stroke-width="0"/>
    <path class="st20" d="m109.6,172.3l42,0c0.1,0 0.2,-0.1 0.3,-0.2c0.1,-0.1 0.1,-0.2 0.1,-0.4c0,-0.1 0,-0.3 -0.1,-0.4c-0.1,-0.1 -0.2,-0.2 -0.3,-0.2l-42,0c-0.1,0 -0.2,0.1 -0.3,0.2c-0.1,0.1 -0.1,0.2 -0.1,0.4c0,0.1 0,0.3 0.1,0.4c0.1,0.1 0.2,0.2 0.3,0.2z" id="svg_36" stroke-width="0"/>
    <path class="st20" d="m112.8,186.4l35.9,0c0.1,0 0.2,-0.1 0.2,-0.2c0.1,-0.1 0.1,-0.2 0.1,-0.4c0,-0.1 0,-0.3 -0.1,-0.4c-0.1,-0.1 -0.1,-0.2 -0.2,-0.2l-35.9,0c-0.1,0 -0.2,0.1 -0.2,0.2c-0.1,0.1 -0.1,0.2 -0.1,0.4c0,0.1 0,0.3 0.1,0.4c0.1,0.2 0.1,0.2 0.2,0.2z" id="svg_37" stroke-width="0"/>
    <g id="svg_38" opacity="0.1" transform="matrix(1 0 0 1 0 0) matrix(3.34568 0 0 1 -804.301 -116.359)">
     <g id="svg_39" transform="translate(71.8539 116.359) translate(240.4 116.359) scale(3.34568 1) translate(-240.4 -116.359)">
      <defs stroke-width="0">
       <path d="m241.3,118.8c13.6,1.2 27.2,2.8 40.8,4c-0.1,4.8 -0.1,7.5 -0.1,12.3c-13.6,-0.7 -27.2,-2 -40.8,-2.3c0,-4.9 0,-9.2 0.1,-14z" id="SVGID_7_" stroke-width="0"/>
      </defs>
      <clipPath id="SVGID_2_" stroke-width="0" transform="translate(-1 -6) translate(0 1) translate(240.4 116.359) scale(3.34568 1) translate(-240.4 -116.359) translate(71.8539 116.359) scale(3.34568 1) translate(-71.8539 -116.359)">
       <use id="svg_40" overflow="visible" stroke-width="0" xlink:href="#SVGID_7_"/>
      </clipPath>
      <g class="st5" id="svg_41">
       <path class="st6" d="m279.58,119.6c7.84,0 14.55,0.3 21.27,0.8c5.6,0.4 11.19,1.1 13.43,1.8c-6.72,0.2 -8.95,0.3 -15.67,0.5c-2.24,-0.4 -4.48,-0.7 -7.84,-1c-3.36,-0.2 -7.84,-0.4 -12.31,-0.4c-3.36,0 -6.72,0 -8.95,0.1s-5.6,0.3 -7.84,0.5c-4.48,0.5 -6.72,1.2 -6.72,1.8c0,0.7 2.24,1.3 6.72,1.8c2.24,0.2 4.48,0.4 7.84,0.5c3.36,0.1 5.6,0.2 8.95,0.2c4.48,0 7.84,-0.1 12.31,-0.3c3.36,-0.2 6.72,-0.5 8.95,-0.8c5.6,0.3 8.95,0.4 15.67,0.6c-3.36,0.6 -8.95,1.2 -14.55,1.5c-6.72,0.3 -13.43,0.5 -21.27,0.5c-11.19,0 -20.15,-0.4 -27.98,-1.1c-6.72,-0.8 -11.19,-1.8 -11.19,-2.9c0,-1.1 4.48,-2.3 12.31,-3.1c3.36,-0.4 8.95,-0.7 13.43,-0.9s7.84,-0.1 13.43,-0.1z" id="svg_42" stroke-width="0"/>
       <path class="st6" d="m331.07,127.9c-6.72,0 -10.07,0 -16.79,-0.1c13.43,-2.8 20.15,-4.5 34.7,-7.6c5.6,0 7.84,0.1 13.43,0.1c11.19,3.3 17.91,5 30.22,7.9c-6.72,0 -10.07,-0.1 -16.79,-0.1c-2.24,-0.5 -3.36,-0.8 -5.6,-1.3c-13.43,-0.1 -19.03,-0.1 -32.46,-0.2c-3.36,0.6 -4.48,0.8 -6.72,1.3zm32.46,-2.6c-3.36,-1 -5.6,-1.6 -10.07,-2.7c-4.48,1 -6.72,1.6 -11.19,2.6c8.95,0.1 13.43,0.1 21.27,0.1z" id="svg_43" stroke-width="0"/>
       <path class="st6" d="m399.35,120.6c13.43,0.1 20.15,0.2 34.7,0.3c3.36,0 6.72,0.1 10.07,0.3c3.36,0.2 5.6,0.4 8.95,0.6c2.24,0.3 4.48,0.5 5.6,0.9s2.24,0.7 2.24,1c0,0.5 -1.12,0.9 -3.36,1.3c-2.24,0.4 -5.6,0.7 -10.07,0.8c6.72,1.2 10.07,1.7 16.79,2.8c-6.72,0 -10.07,-0.1 -17.91,-0.1c-5.6,-1 -8.95,-1.5 -14.55,-2.5c-6.72,0 -8.95,-0.1 -15.67,-0.1c0,1 0,1.5 0,2.4c-6.72,0 -10.07,-0.1 -15.67,-0.1c-2.24,-2.7 -2.24,-4.5 -1.12,-7.6zm33.58,1.8c-7.84,-0.1 -11.19,-0.1 -19.03,-0.1c0,0.9 0,1.3 0,2.1c7.84,0.1 11.19,0.1 19.03,0.1c1.12,0 2.24,0 4.48,0c1.12,0 2.24,-0.1 3.36,-0.2c1.12,-0.1 2.24,-0.2 2.24,-0.3c0,-0.1 1.12,-0.3 1.12,-0.4c0,-0.1 0,-0.3 -1.12,-0.4c0,-0.1 -1.12,-0.3 -2.24,-0.4s-2.24,-0.2 -3.36,-0.3c-1.12,0 -3.36,-0.1 -4.48,-0.1c0,0 0,0 0,0z" id="svg_44" stroke-width="0"/>
       <path class="st7" d="m515.76,123.4c3.36,0.3 5.6,0.6 7.84,1.1c1.12,0.3 2.24,0.6 2.24,0.9c0,0.3 0,0.6 -2.24,0.9c-1.12,0.3 -3.36,0.5 -5.6,0.7c-2.24,0.2 -4.48,0.3 -7.84,0.4c-5.6,0.2 -12.31,0.2 -17.91,-0.1c-3.36,-0.1 -5.6,-0.3 -7.84,-0.5c-2.24,-0.2 -3.36,-0.5 -4.48,-0.8c-2.24,-0.4 -2.24,-0.9 -1.12,-1.4c1.12,-0.4 3.36,-0.8 6.72,-1.1c3.36,0.9 5.6,1.3 8.95,2.2c4.48,-0.2 7.84,-0.3 12.31,-0.4c-6.72,-1.5 -8.95,-2.3 -15.67,-3.9c0,0 -1.12,0 -2.24,0c-1.12,0 -1.12,0 -2.24,0c-10.07,0.4 -16.79,1 -21.27,2c-3.36,0.7 -4.48,1.5 -2.24,2.3c1.12,0.8 5.6,1.5 10.07,2c5.6,0.6 12.31,0.9 20.15,1.1c7.84,0.2 15.67,0.2 22.39,-0.1c4.48,-0.1 8.95,-0.4 12.31,-0.7c3.36,-0.3 6.72,-0.7 7.84,-1.2c3.36,-0.9 3.36,-1.9 -1.12,-3c-1.12,0 -2.24,0 -2.24,0c-4.48,0.1 -10.07,-0.1 -16.79,-0.4z" id="svg_45" stroke-width="0"/>
       <path class="st7" d="m520.24,121.9c1.12,0.1 2.24,0.2 3.36,0.2c-1.12,0 -1.12,-0.1 -1.12,-0.1c-1.12,-0.1 -1.12,-0.1 -2.24,-0.1z" id="svg_46" stroke-width="0"/>
       <path class="st7" d="m572.85,120.5c0,-0.5 -1.12,-1 -3.36,-1.5c-2.24,-0.5 -4.48,-0.9 -8.95,-1.3c-3.36,-0.4 -7.84,-0.7 -12.31,-0.9c-4.48,-0.2 -10.07,-0.4 -14.55,-0.4c-5.6,-0.1 -10.07,0 -14.55,0.1c-4.48,0.1 -8.95,0.4 -12.31,0.7c-6.72,0.6 -11.19,1.5 -10.07,2.6c0,1 4.48,2.1 11.19,2.9c2.24,0.3 5.6,0.6 8.95,0.8c-3.36,-0.3 -11.19,-2.2 -11.19,-2.2c5.6,0.1 11.19,0.3 15.67,0.7c-1.12,-0.1 -1.12,-0.1 -2.24,-0.2c-4.48,-0.5 -6.72,-1.1 -6.72,-1.7c0,-0.6 2.24,-1.2 5.6,-1.6c2.24,-0.2 4.48,-0.3 6.72,-0.4c2.24,-0.1 5.6,-0.1 8.95,-0.1c3.36,0 5.6,0.1 8.95,0.3c2.24,0.1 5.6,0.3 7.84,0.5c4.48,0.5 6.72,1.1 6.72,1.7c0,0.6 -2.24,1.2 -5.6,1.6c-2.24,0.2 -4.48,0.4 -6.72,0.4c-2.24,0.1 -5.6,0.1 -8.95,0.1c-3.36,0 -7.84,-0.1 -11.19,-0.3c0,0 0,0 0,0c5.6,0.5 10.07,1.1 13.43,1.9c10.07,0 19.03,-0.3 25.75,-1c5.6,-0.9 8.95,-1.8 8.95,-2.7c0,0 0,0 0,0z" id="svg_47" stroke-width="0"/>
       <path class="st7" d="m523.6,122.1c0,0 0,0 0,0c-1.12,-0.1 -2.24,-0.2 -3.36,-0.3c-4.48,-0.3 -10.07,-0.6 -15.67,-0.7c0,0 7.84,1.9 11.19,2.2c5.6,0.3 12.31,0.5 19.03,0.6c1.12,0 2.24,0 2.24,0c-2.24,-0.6 -6.72,-1.3 -13.43,-1.8z" id="svg_48" stroke-width="0"/>
       <path class="st6" d="m572.85,122.1c22.39,0.2 33.58,0.3 55.97,0.4c-2.24,0.5 -3.36,0.8 -6.72,1.4c-13.43,-0.1 -20.15,-0.1 -33.58,-0.2c0,0.6 0,0.9 0,1.5c13.43,0.1 20.15,0.1 33.58,0.2c0,0.6 0,0.8 0,1.4c-13.43,-0.1 -20.15,-0.1 -33.58,-0.2c0,1.2 0,1.7 1.12,2.8c-6.72,0 -8.95,-0.1 -15.67,-0.1c0,-2.7 -1.12,-4.3 -1.12,-7.2z" id="svg_49" stroke-width="0"/>
       <path class="st6" d="m636.65,122.6c22.39,0.2 33.58,0.2 57.09,0.4c-2.24,0.5 -4.48,0.8 -6.72,1.3c-13.43,-0.1 -20.15,-0.1 -33.58,-0.2c0,0.6 0,0.9 0,1.5c13.43,0.1 20.15,0.1 34.7,0.2c0,0.5 0,0.8 0,1.4c-13.43,-0.1 -20.15,-0.1 -33.58,-0.2c0,1.1 0,1.7 0,2.8c-6.72,0 -8.95,0 -15.67,-0.1c-1.12,-2.7 -1.12,-4.2 -2.24,-7.1z" id="svg_50" stroke-width="0"/>
      </g>
     </g>
    </g>
    <polyline class="st8" id="svg_51" points="120.40000915527344,70.80000305175781 212.6999969482422,71.4000015258789 213.60000610351562,163.3000030517578 308.5,162.89999389648438 308.5,87.5999984741211 213.60000610351562,71.69999694824219 " stroke-width="0"/>
    <polyline class="st8" id="svg_52" points="308.79998779296875,163.8000030517578 308.79998779296875,187.3000030517578 250.8000030517578,190.1999969482422 " stroke-width="0"/>
    <path class="st1" d="m276.7,168.8l7.5,0c3.1,0 5.6,7.9 5.6,17.8c0,9.9 -2.5,17.8 -5.6,17.8l-7.5,0c-3.1,0 -5.6,-7.9 -5.6,-17.8c0.1,-9.9 2.6,-17.8 5.6,-17.8z" id="svg_53" stroke-width="0"/>
    <path class="st0" d="m284.2,202.9c-3.1,0 -5.6,-7.5 -5.6,-16.8c0,-9.3 2.5,-16.8 5.6,-16.8c3.1,0 5.6,7.5 5.6,16.8c0,9.3 -2.5,16.8 -5.6,16.8z" id="svg_54" stroke-width="0"/>
    <path class="st1" d="m284.2,203.5c3.8,0 6.1,-8.9 6.1,-17.4c0,-8.6 -2.3,-17.4 -6.1,-17.4c-3.8,0 -6.1,8.9 -6.1,17.4c0,8.6 2.3,17.4 6.1,17.4zm0,-33.7c2.4,0 5,6.7 5,16.3c0,9.6 -2.6,16.3 -5,16.3c-2.4,0 -5,-6.7 -5,-16.3c0,-9.6 2.6,-16.3 5,-16.3z" id="svg_55" stroke-width="0"/>
    <line class="st8" id="svg_56" stroke-width="0" x1="204.9" x2="204.7" y1="96.3" y2="164.1"/>
    <line class="st8" id="svg_57" stroke-width="0" x1="205.8" x2="265" y1="192.6" y2="190.2"/>
    <path class="st8" d="m196.3,92.3l-18.7,2.7l-3.2,107.8c0,0 -77,0.2 -80.9,-0.5c-3.9,-0.7 -5.4,-7.7 -5.4,-7.7l0,-52.6l9.6,-48.4l57.5,0" id="svg_58" stroke-width="0"/>
    <path class="st1" d="m92.4,189.5l10.7,0c0,0 0,2.5 -1.4,3.1c-1.5,0.6 -8.8,1.1 -9,0.3c-0.2,-0.7 -0.3,-3.4 -0.3,-3.4z" id="svg_59" stroke-width="0"/>
    <path class="st1" d="m156.5,189.5l13.2,0c0,0 0.1,2.5 -1.8,3.1s-10.9,1.1 -11.1,0.4c-0.3,-0.8 -0.3,-3.5 -0.3,-3.5z" id="svg_60" stroke-width="0"/>
    <path class="st8" d="m174.4,202.7l10.6,-0.2c0,0 1,-15.1 2.6,-22.2c1.6,-7.1 5.1,-15.6 9.2,-8.4c4,7.1 3.4,30.8 3.4,30.8l4,-0.2l0.5,-38.5" id="svg_61" stroke-width="0"/>
    <polyline class="st8" id="svg_62" points="97.69999694824219,93.4000015258789 125.5,88.0999984741211 198.5,88.0999984741211 " stroke-width="0"/>
   </g>
  </g>
 </g>
</svg>