<?xml version="1.0" encoding="utf-8"?>
<!-- Generator: Adobe Illustrator 23.0.0, SVG Export Plug-In . SVG Version: 6.00 Build 0)  -->
<svg version="1.1" id="Слой_1" xmlns="http://www.w3.org/2000/svg" xmlns:xlink="http://www.w3.org/1999/xlink" x="0px" y="0px"
	 viewBox="0 0 384 262.6" style="enable-background:new 0 0 384 262.6;" xml:space="preserve">
<style type="text/css">
	.st0{fill:#FFFFFF;}
	.st1{fill:#2F3339;}
	.st2{fill:none;stroke:#2F3339;stroke-width:3;stroke-miterlimit:10;}
	.st3{fill:#2F3339;stroke:#2F3339;stroke-width:2.9;stroke-linecap:round;stroke-linejoin:round;stroke-miterlimit:10;}
	.st4{fill:#FFFFFF;stroke:#FFFFFF;stroke-width:2;stroke-miterlimit:10;}
	.st5{clip-path:url(#SVGID_2_);}
	.st6{fill:#1D1D1B;}
	.st7{fill:#2F2FC0;}
	.st8{fill:none;stroke:#2F3339;stroke-width:3;stroke-linecap:round;stroke-linejoin:round;stroke-miterlimit:10;}
	.st9{fill:none;stroke:#2F2FC0;stroke-width:5;stroke-linecap:round;stroke-linejoin:round;stroke-miterlimit:10;}
	.st10{fill:none;stroke:#2F3339;stroke-width:2;stroke-linecap:round;stroke-linejoin:round;stroke-miterlimit:10;}
	.st11{fill:#2F3339;stroke:#2F3339;stroke-width:2.7116;stroke-linecap:round;stroke-linejoin:round;stroke-miterlimit:10;}
	.st12{fill:#FFFFFF;stroke:#FFFFFF;stroke-width:1.8311;stroke-miterlimit:10;}
	.st13{clip-path:url(#SVGID_4_);}
	.st14{fill:none;stroke:#2F2FC0;stroke-width:4.5779;stroke-linecap:round;stroke-linejoin:round;stroke-miterlimit:10;}
	.st15{fill:#2F3339;stroke:#2F3339;stroke-width:2.8083;stroke-linecap:round;stroke-linejoin:round;stroke-miterlimit:10;}
	.st16{fill:#FFFFFF;stroke:#FFFFFF;stroke-width:1.8964;stroke-miterlimit:10;}
	.st17{clip-path:url(#SVGID_6_);}
	.st18{fill:none;stroke:#2F2FC0;stroke-width:4.7411;stroke-linecap:round;stroke-linejoin:round;stroke-miterlimit:10;}
	.st19{fill:#2F3339;stroke:#2F3339;stroke-width:2.3651;stroke-linecap:round;stroke-linejoin:round;stroke-miterlimit:10;}
	.st20{fill:#FFFFFF;stroke:#FFFFFF;stroke-width:1.9275;stroke-miterlimit:10;}
	.st21{clip-path:url(#SVGID_8_);}
	.st22{fill:none;stroke:#2F2FC0;stroke-width:4.8188;stroke-linecap:round;stroke-linejoin:round;stroke-miterlimit:10;}
</style>
<g>
	<rect class="st0" width="384" height="262.6"/>
	<g>
		<path class="st1" d="M123.1,169.8h6.7c2.7,0,4.9,6.5,4.9,14.5c0,8-2.2,14.5-4.9,14.5h-6.7c-2.7,0-4.9-6.5-4.9-14.5
			C118.2,176.3,120.4,169.8,123.1,169.8z"/>
		<path class="st1" d="M106.2,172.3h7.5c3.1,0,5.6,7.4,5.6,16.4c0,9-2.5,16.4-5.6,16.4h-7.5c-3.1,0-5.6-7.4-5.6-16.4
			C100.7,179.7,103.2,172.3,106.2,172.3z"/>
		<path class="st0" d="M113.8,204.8c-3.1,0-5.6-7.3-5.6-16.3c0-9,2.5-16.3,5.6-16.3c3.1,0,5.6,7.3,5.6,16.3
			C119.3,197.5,116.8,204.8,113.8,204.8z"/>
		<path class="st1" d="M188.3,170.2h6.4c2.6,0,4.8,6.1,4.8,13.7s-2.1,13.7-4.8,13.7h-6.4c-2.6,0-4.8-6.1-4.8-13.7
			S185.7,170.2,188.3,170.2z"/>
		<path class="st0" d="M194.7,197.5c-2.6,0-4.8-6.2-4.8-13.8s2.1-13.8,4.8-13.8c2.6,0,4.8,6.2,4.8,13.8S197.4,197.5,194.7,197.5z"/>
		<path class="st1" d="M176.1,171h6.4c2.6,0,4.8,6.1,4.8,13.7c0,7.6-2.1,13.7-4.8,13.7h-6.4c-2.6,0-4.8-6.1-4.8-13.7
			C171.3,177.1,173.5,171,176.1,171z"/>
		<path class="st0" d="M182.5,198.3c-2.6,0-4.8-6.2-4.8-13.8s2.1-13.8,4.8-13.8s4.8,6.2,4.8,13.8S185.2,198.3,182.5,198.3z"/>
		<path class="st1" d="M163.4,171h6.7c2.7,0,4.9,6.5,4.9,14.5c0,8-2.2,14.5-4.9,14.5h-6.7c-2.7,0-4.9-6.5-4.9-14.5
			C158.4,177.6,160.6,171,163.4,171z"/>
		<path class="st0" d="M170,199.9c-2.7,0-4.9-6.5-4.9-14.5c0-8,2.2-14.5,4.9-14.5c2.7,0,4.9,6.5,4.9,14.5
			C175,193.4,172.8,199.9,170,199.9z"/>
		<path class="st1" d="M238.5,174h7.8c3.2,0,5.8,7.6,5.8,17c0,9.4-2.6,17-5.8,17h-7.8c-3.2,0-5.8-7.6-5.8-17
			C232.8,181.6,235.3,174,238.5,174z"/>
		<path class="st0" d="M189.4,198.3V72.6l121,22.2v95.8L189.4,198.3z"/>
		<path class="st0" d="M108.2,76.7h106.9v93.4H108.2V76.7z"/>
		<path class="st1" d="M181.5,180.2h9.1c3.7,0,6.7,9,6.7,20c0,11-3,20-6.7,20h-9.1c-3.7,0-6.7-9-6.7-20
			C174.8,189.1,177.8,180.2,181.5,180.2z"/>
		<path class="st0" d="M190.6,219.1c-3.7,0-6.7-8.8-6.7-19.6c0-10.8,3-19.6,6.7-19.6c3.7,0,6.7,8.8,6.7,19.6
			C197.2,210.4,194.3,219.1,190.6,219.1z"/>
		<path class="st1" d="M190.6,219.7c4,0,7.2-8.8,7.2-20.1c0-11.3-3.2-20.1-7.2-20.1c-4,0-7.2,8.8-7.2,20.1S186.5,219.7,190.6,219.7z
			 M190.6,180.5c3,0,6.1,7.7,6.1,19c0,11.4-3.2,19-6.1,19c-3,0-6.1-7.7-6.1-19C184.4,188.1,187.6,180.5,190.6,180.5z"/>
		<path class="st1" d="M108,179.3h9c3.7,0,6.6,9.2,6.6,20.4c0,11.3-3,20.4-6.6,20.4h-9c-3.7,0-6.6-9.2-6.6-20.4
			C101.4,188.5,104.4,179.3,108,179.3z"/>
		<path class="st0" d="M117.1,218.5c-3.7,0-6.7-8.8-6.7-19.7s3-19.7,6.7-19.7c3.7,0,6.7,8.8,6.7,19.7S120.8,218.5,117.1,218.5z"/>
		<path class="st1" d="M117.1,219c4.1,0,7.3-8.9,7.3-20.3s-3.2-20.3-7.3-20.3c-4.1,0-7.3,8.9-7.3,20.3S113,219,117.1,219z
			 M117.1,179.5c3,0,6.2,7.7,6.2,19.2s-3.2,19.2-6.2,19.2c-3,0-6.2-7.7-6.2-19.2S114.1,179.5,117.1,179.5z"/>
		<path class="st0" d="M209.8,87.8l0.3,81.8l-3.1,2.6c-0.6,0.5-1,1.1-1.3,1.7c-0.3,0.7-0.4,1.4-0.4,2.1l1.3,29.4
			c0,0.3,0,0.6-0.1,0.9c-0.1,0.3-0.3,0.5-0.5,0.7c-0.2,0.2-0.4,0.4-0.7,0.5c-0.3,0.1-0.6,0.2-0.9,0.2c-1,0-4.4,0.1-4.4,0
			c0-18.4-0.9-33.5-5.4-33.5c-4.5,0-8.1,14.9-8.1,33.3c0,0.1-10.7,0.2-10.7,0.2V88.1L209.8,87.8z"/>
		<path class="st0" d="M99.9,97.3h75.3v110.5H93.6c-1.2,0-2.3-0.4-3.1-1.2c-0.8-0.8-1.3-1.8-1.3-2.9v-35.4c0-9.8,0.9-19.7,2.8-29.3
			L99.9,97.3z"/>
		<path class="st1" d="M100.6,157h63.1c1.3,0,2.5-0.4,3.4-1.1c0.9-0.7,1.4-1.7,1.4-2.8v-9.7c0-0.1-0.1-0.2-0.2-0.3
			c-0.1-0.1-0.2-0.1-0.4-0.1h-30c-2.4,0-4.7,0.4-6.9,1.2c-2.2,0.8-4.2,1.9-5.8,3.3c-1.6,1.3-3.4,2.4-5.5,3.1
			c-2.1,0.7-4.3,1.1-6.5,1.1H96.5c-0.1,0-0.2,0-0.3,0.1c-0.1,0.1-0.2,0.2-0.2,0.3l-0.1,0.4c-0.1,0.6-0.1,1.2,0.1,1.7
			c0.2,0.6,0.5,1.1,1,1.5c0.5,0.4,1,0.8,1.7,1C99.2,156.8,99.9,157,100.6,157L100.6,157z"/>
		<path class="st1" d="M183.6,153.2c0,0,0,0,0.5,0c0.5-0.1,4.8-4.1,4.8-4.1s1.9-1.5,2.8-2.6c0.9-1,1.4-2.4,1.4-3.7v-20
			c0-0.8-0.3-1.5-0.9-2.1c-0.6-0.5-0.6-0.9-2.2-0.9c-1.6,0-5.7,1.8-5.7,1.8s-1.6,0.6-2.3,1.2c-0.7,0.6-1.1,1.5-1,2.4v25.3
			c0,0.7,0.3,1.3,0.8,1.8S182.9,153.2,183.6,153.2z M188.3,148l-4.4,4.1c-0.2,0-0.5,0-0.7,0c-0.2-0.1-0.4-0.2-0.6-0.3
			c-0.2-0.1-0.3-0.3-0.4-0.5c-0.1-0.2-0.1-0.4-0.1-0.6v-25.3c0-0.6,0.3-1.2,0.7-1.7c0.5-0.4,1-0.7,1.7-0.9c0,0,4.9-1.8,5.6-1.8
			c0.7,0,1,0.2,1.4,0.6c0.4,0.4,0.6,0.8,0.6,1.3v20c0,1.1-0.4,2.2-1.2,3.1C190.1,146.6,188.3,148,188.3,148z"/>
		<path class="st8" d="M165.1,107.1c1.4,0,2.7,0.6,3.7,1.5c1,1,1.5,2.3,1.5,3.7l-1.4,39.8c0,1-0.4,2.1-1.1,2.8
			c-0.7,0.7-1.7,1.2-2.8,1.2H99.7c-0.6,0-1.1-0.1-1.7-0.4c-0.5-0.2-1-0.6-1.3-1c-0.4-0.4-0.6-1-0.8-1.5c-0.2-0.6-0.2-1.2-0.1-1.7
			l7.3-40.7c0.2-1.2,0.8-2.3,1.8-3.1c0.9-0.8,2.1-1.2,3.3-1.2L165.1,107.1z"/>
		<path class="st1" d="M193.2,120.8h-2.2c-0.6,0-1.1,0.2-1.6,0.5c-0.4,0.3-0.6,0.8-0.6,1.2v22.6c0,0.5,0.2,0.9,0.6,1.2
			c0.4,0.3,1,0.5,1.5,0.5h0.7c1.7,0,3.3-0.5,4.4-1.4c1.2-0.9,1.8-2.2,1.8-3.5v-17.3c0.1-3.4-0.5-3.6-0.5-3.6
			C196.5,120.7,193.9,120.8,193.2,120.8z"/>
		<path class="st1" d="M86.7,120.1h2.2c0.6,0,1.1,0.2,1.6,0.5c0.4,0.3,0.6,0.8,0.6,1.2v22.6c0,0.5-0.2,0.9-0.6,1.2
			c-0.4,0.3-1,0.5-1.5,0.5h-0.7c-1.7,0-3.3-0.5-4.4-1.4c-1.2-0.9-1.8-2.2-1.8-3.5v-17.3c-0.1-3.4,0.5-3.6,0.5-3.6
			C83.5,119.9,86.1,120.1,86.7,120.1z"/>
		<g>
			<path class="st1" d="M144.6,197.1c-0.6-0.4-1.2-0.7-1.9-0.7h-24.8c-0.7,0-1.3,0.2-1.9,0.7c-0.6,0.4-1.1,1.1-1.4,1.8l-0.5,2.4
				c-0.1,0.3-0.2,0.6-0.2,0.9c0,0.3,0.1,0.6,0.2,0.9c0.1,0.3,0.3,0.5,0.5,0.7c0.2,0.2,0.4,0.2,0.7,0.2H145c0.2,0,0.5-0.1,0.7-0.2
				c0.2-0.2,0.4-0.4,0.5-0.7c0.1-0.3,0.2-0.6,0.2-0.9c0-0.1-0.3-3-0.4-3.3C145.8,198.6,145.1,197.5,144.6,197.1z M115.8,198.7
				c0,0,0.1,0,0.1,0h28.7c0,0,0.1,0,0.1,0c0.2,0.2,0.3,0.5,0.5,0.8l0.2,2.1h-30.5l0.4-2.1C115.4,199.2,115.6,198.9,115.8,198.7z"/>
			<path class="st1" d="M146.4,202.1C146.4,202.3,146.4,201.8,146.4,202.1L146.4,202.1z"/>
		</g>
		<path class="st19" d="M158.4,165.2l-3.8-0.2h-45.7l-5.5,0.2l0.8,6l4.3,21.9l44.4-0.8l4.6-21.6L158.4,165.2z"/>
		<path class="st1" d="M95.3,192.3h7.3c0.3,0,0.5-0.1,0.7-0.2s0.4-0.4,0.6-0.6c0.1-0.3,0.2-0.6,0.3-0.9c0-0.3,0-0.7-0.1-1l-0.6-2.2
			c-0.3-1.3-1-2.4-1.8-3.1s-1.8-1.2-2.9-1.2h-5.7c0,0-0.1,0-0.1,0c0,0-0.1,0.1-0.1,0.1c0,0-0.1,0.1-0.1,0.2c0,0.1,0,0.1,0,0.2v5.3
			c0,0.9,0.3,1.8,0.8,2.4C93.9,192,94.6,192.3,95.3,192.3z M98.8,184.1c0.9,0,1.7,0.4,2.4,1c0.7,0.7,1.3,1.6,1.5,2.7l0.6,2.2
			c0,0.2,0.1,0.3,0,0.5c0,0.2-0.1,0.3-0.1,0.5c-0.1,0.1-0.2,0.3-0.3,0.3c-0.1,0.1-0.2,0.1-0.4,0.1h-7.3c-0.5,0-1-0.3-1.3-0.7
			c-0.4-0.5-0.6-1.1-0.6-1.7v-4.8H98.8z"/>
		<path class="st1" d="M167.8,192.3h-8.7c-0.3,0-0.6-0.1-0.9-0.2c-0.3-0.1-0.5-0.4-0.7-0.6c-0.2-0.3-0.3-0.6-0.3-0.9
			c0-0.3,0-0.7,0.1-1l0.7-2.2c0.4-1.3,1.2-2.4,2.2-3.1s2.2-1.2,3.4-1.2h6.9c0.1,0,0.1,0,0.2,0c0.1,0,0.1,0.1,0.1,0.1
			c0,0,0.1,0.1,0.1,0.2c0,0.1,0,0.1,0,0.2v5.3c0,0.9-0.3,1.8-0.9,2.4C169.5,192,168.7,192.3,167.8,192.3z M163.7,184.1
			c-1,0-2.1,0.4-2.9,1c-0.9,0.7-1.5,1.6-1.8,2.7l-0.7,2.2c-0.1,0.2-0.1,0.3,0,0.5c0,0.2,0.1,0.3,0.2,0.5c0.1,0.1,0.2,0.3,0.3,0.3
			c0.1,0.1,0.3,0.1,0.5,0.1h8.7c0.6,0,1.2-0.3,1.6-0.7c0.4-0.5,0.7-1.1,0.7-1.7v-4.8H163.7z"/>
		<path class="st20" d="M110.4,179.3h40.4c0.1,0,0.2-0.1,0.3-0.2c0.1-0.1,0.1-0.2,0.1-0.4c0-0.1,0-0.3-0.1-0.4
			c-0.1-0.1-0.2-0.2-0.3-0.2h-40.4c-0.1,0-0.2,0.1-0.3,0.2c-0.1,0.1-0.1,0.2-0.1,0.4c0,0.1,0,0.3,0.1,0.4
			C110.2,179.3,110.3,179.3,110.4,179.3z"/>
		<path class="st20" d="M109.6,172.3h42c0.1,0,0.2-0.1,0.3-0.2c0.1-0.1,0.1-0.2,0.1-0.4c0-0.1,0-0.3-0.1-0.4
			c-0.1-0.1-0.2-0.2-0.3-0.2h-42c-0.1,0-0.2,0.1-0.3,0.2c-0.1,0.1-0.1,0.2-0.1,0.4c0,0.1,0,0.3,0.1,0.4
			C109.4,172.2,109.5,172.3,109.6,172.3z"/>
		<path class="st20" d="M112.8,186.4h35.9c0.1,0,0.2-0.1,0.2-0.2c0.1-0.1,0.1-0.2,0.1-0.4c0-0.1,0-0.3-0.1-0.4
			c-0.1-0.1-0.1-0.2-0.2-0.2h-35.9c-0.1,0-0.2,0.1-0.2,0.2c-0.1,0.1-0.1,0.2-0.1,0.4c0,0.1,0,0.3,0.1,0.4
			C112.7,186.4,112.7,186.4,112.8,186.4z"/>
		<g>
			<g>
				<defs>
					<path id="SVGID_7_" d="M241.3,118.8c13.6,1.2,27.2,2.8,40.8,4c-0.1,4.8-0.1,7.5-0.1,12.3c-13.6-0.7-27.2-2-40.8-2.3
						C241.2,127.9,241.2,123.6,241.3,118.8z"/>
				</defs>
				<clipPath id="SVGID_2_">
					<use xlink:href="#SVGID_7_"  style="overflow:visible;"/>
				</clipPath>
				<g class="st5">
					<path class="st6" d="M244.9,124.6c0.7,0,1.3,0.3,1.9,0.8c0.5,0.4,1,1.1,1.2,1.8c-0.6,0.2-0.8,0.3-1.4,0.5
						c-0.2-0.4-0.4-0.7-0.7-1c-0.3-0.2-0.7-0.4-1.1-0.4c-0.3,0-0.6,0-0.8,0.1s-0.5,0.3-0.7,0.5c-0.4,0.5-0.6,1.2-0.6,1.8
						c0,0.7,0.2,1.3,0.6,1.8c0.2,0.2,0.4,0.4,0.7,0.5c0.3,0.1,0.5,0.2,0.8,0.2c0.4,0,0.7-0.1,1.1-0.3c0.3-0.2,0.6-0.5,0.8-0.8
						c0.5,0.3,0.8,0.4,1.4,0.6c-0.3,0.6-0.8,1.2-1.3,1.5c-0.6,0.3-1.2,0.5-1.9,0.5c-1,0-1.8-0.4-2.5-1.1c-0.6-0.8-1-1.8-1-2.9
						c0-1.1,0.4-2.3,1.1-3.1c0.3-0.4,0.8-0.7,1.2-0.9S244.4,124.6,244.9,124.6z"/>
					<path class="st6" d="M249.5,132.9c-0.6,0-0.9,0-1.5-0.1c1.2-2.8,1.8-4.5,3.1-7.6c0.5,0,0.7,0.1,1.2,0.1c1,3.3,1.6,5,2.7,7.9
						c-0.6,0-0.9-0.1-1.5-0.1c-0.2-0.5-0.3-0.8-0.5-1.3c-1.2-0.1-1.7-0.1-2.9-0.2C249.8,132.2,249.7,132.4,249.5,132.9z
						 M252.4,130.3c-0.3-1-0.5-1.6-0.9-2.7c-0.4,1-0.6,1.6-1,2.6C251.3,130.3,251.7,130.3,252.4,130.3z"/>
					<path class="st6" d="M255.6,125.6c1.2,0.1,1.8,0.2,3.1,0.3c0.3,0,0.6,0.1,0.9,0.3c0.3,0.2,0.5,0.4,0.8,0.6
						c0.2,0.3,0.4,0.5,0.5,0.9s0.2,0.7,0.2,1c0,0.5-0.1,0.9-0.3,1.3c-0.2,0.4-0.5,0.7-0.9,0.8c0.6,1.2,0.9,1.7,1.5,2.8
						c-0.6,0-0.9-0.1-1.6-0.1c-0.5-1-0.8-1.5-1.3-2.5c-0.6,0-0.8-0.1-1.4-0.1c0,1,0,1.5,0,2.4c-0.6,0-0.9-0.1-1.4-0.1
						C255.5,130.5,255.5,128.7,255.6,125.6z M258.6,127.4c-0.7-0.1-1-0.1-1.7-0.1c0,0.9,0,1.3,0,2.1c0.7,0.1,1,0.1,1.7,0.1
						c0.1,0,0.2,0,0.4,0c0.1,0,0.2-0.1,0.3-0.2c0.1-0.1,0.2-0.2,0.2-0.3c0-0.1,0.1-0.3,0.1-0.4c0-0.1,0-0.3-0.1-0.4
						c0-0.1-0.1-0.3-0.2-0.4s-0.2-0.2-0.3-0.3C258.9,127.5,258.7,127.4,258.6,127.4C258.6,127.4,258.6,127.4,258.6,127.4z"/>
					<path class="st7" d="M266,128.4c0.3,0.3,0.5,0.6,0.7,1.1c0.1,0.3,0.2,0.6,0.2,0.9c0,0.3,0,0.6-0.2,0.9
						c-0.1,0.3-0.3,0.5-0.5,0.7c-0.2,0.2-0.4,0.3-0.7,0.4c-0.5,0.2-1.1,0.2-1.6-0.1c-0.3-0.1-0.5-0.3-0.7-0.5
						c-0.2-0.2-0.3-0.5-0.4-0.8c-0.2-0.4-0.2-0.9-0.1-1.4c0.1-0.4,0.3-0.8,0.6-1.1c0.3,0.9,0.5,1.3,0.8,2.2c0.4-0.2,0.7-0.3,1.1-0.4
						c-0.6-1.5-0.8-2.3-1.4-3.9c0,0-0.1,0-0.2,0c-0.1,0-0.1,0-0.2,0c-0.9,0.4-1.5,1-1.9,2c-0.3,0.7-0.4,1.5-0.2,2.3
						c0.1,0.8,0.5,1.5,0.9,2c0.5,0.6,1.1,0.9,1.8,1.1c0.7,0.2,1.4,0.2,2-0.1c0.4-0.1,0.8-0.4,1.1-0.7c0.3-0.3,0.6-0.7,0.7-1.2
						c0.3-0.9,0.3-1.9-0.1-3c-0.1,0-0.2,0-0.2,0C267.1,128.9,266.6,128.7,266,128.4z"/>
					<path class="st7" d="M266.4,126.9c0.1,0.1,0.2,0.2,0.3,0.2c-0.1,0-0.1-0.1-0.1-0.1C266.5,126.9,266.5,126.9,266.4,126.9z"/>
					<path class="st7" d="M271.1,125.5c0-0.5-0.1-1-0.3-1.5c-0.2-0.5-0.4-0.9-0.8-1.3c-0.3-0.4-0.7-0.7-1.1-0.9
						c-0.4-0.2-0.9-0.4-1.3-0.4c-0.5-0.1-0.9,0-1.3,0.1c-0.4,0.1-0.8,0.4-1.1,0.7c-0.6,0.6-1,1.5-0.9,2.6c0,1,0.4,2.1,1,2.9
						c0.2,0.3,0.5,0.6,0.8,0.8c-0.3-0.3-1-2.2-1-2.2c0.5,0.1,1,0.3,1.4,0.7c-0.1-0.1-0.1-0.1-0.2-0.2c-0.4-0.5-0.6-1.1-0.6-1.7
						c0-0.6,0.2-1.2,0.5-1.6c0.2-0.2,0.4-0.3,0.6-0.4c0.2-0.1,0.5-0.1,0.8-0.1c0.3,0,0.5,0.1,0.8,0.3c0.2,0.1,0.5,0.3,0.7,0.5
						c0.4,0.5,0.6,1.1,0.6,1.7c0,0.6-0.2,1.2-0.5,1.6c-0.2,0.2-0.4,0.4-0.6,0.4c-0.2,0.1-0.5,0.1-0.8,0.1c-0.3,0-0.7-0.1-1-0.3
						c0,0,0,0,0,0c0.5,0.5,0.9,1.1,1.2,1.9c0.9,0,1.7-0.3,2.3-1C270.8,127.3,271.1,126.4,271.1,125.5
						C271.1,125.5,271.1,125.5,271.1,125.5z"/>
					<path class="st7" d="M266.7,127.1C266.7,127.1,266.7,127.1,266.7,127.1c-0.1-0.1-0.2-0.2-0.3-0.3c-0.4-0.3-0.9-0.6-1.4-0.7
						c0,0,0.7,1.9,1,2.2c0.5,0.3,1.1,0.5,1.7,0.6c0.1,0,0.2,0,0.2,0C267.7,128.3,267.3,127.6,266.7,127.1z"/>
					<path class="st6" d="M271.1,127.1c2,0.2,3,0.3,5,0.4c-0.2,0.5-0.3,0.8-0.6,1.4c-1.2-0.1-1.8-0.1-3-0.2c0,0.6,0,0.9,0,1.5
						c1.2,0.1,1.8,0.1,3,0.2c0,0.6,0,0.8,0,1.4c-1.2-0.1-1.8-0.1-3-0.2c0,1.2,0,1.7,0.1,2.8c-0.6,0-0.8-0.1-1.4-0.1
						C271.2,131.6,271.1,130,271.1,127.1z"/>
					<path class="st6" d="M276.8,127.6c2,0.2,3,0.2,5.1,0.4c-0.2,0.5-0.4,0.8-0.6,1.3c-1.2-0.1-1.8-0.1-3-0.2c0,0.6,0,0.9,0,1.5
						c1.2,0.1,1.8,0.1,3.1,0.2c0,0.5,0,0.8,0,1.4c-1.2-0.1-1.8-0.1-3-0.2c0,1.1,0,1.7,0,2.8c-0.6,0-0.8,0-1.4-0.1
						C276.9,132,276.9,130.5,276.8,127.6z"/>
				</g>
			</g>
		</g>
		<polyline class="st8" points="122.4,76.8 214.7,77.4 215.6,169.3 310.5,168.9 310.5,93.6 215.6,77.7 		"/>
		<polyline class="st8" points="309.8,168.8 309.8,192.3 251.8,195.2 		"/>
		<path class="st1" d="M277.7,173.8h7.5c3.1,0,5.6,7.9,5.6,17.8c0,9.9-2.5,17.8-5.6,17.8h-7.5c-3.1,0-5.6-7.9-5.6-17.8
			C272.2,181.7,274.7,173.8,277.7,173.8z"/>
		<path class="st0" d="M285.2,207.9c-3.1,0-5.6-7.5-5.6-16.8c0-9.3,2.5-16.8,5.6-16.8c3.1,0,5.6,7.5,5.6,16.8
			C290.8,200.4,288.3,207.9,285.2,207.9z"/>
		<path class="st1" d="M285.2,208.5c3.8,0,6.1-8.9,6.1-17.4c0-8.6-2.3-17.4-6.1-17.4c-3.8,0-6.1,8.9-6.1,17.4
			C279.1,199.7,281.4,208.5,285.2,208.5z M285.2,174.8c2.4,0,5,6.7,5,16.3c0,9.6-2.6,16.3-5,16.3c-2.4,0-5-6.7-5-16.3
			C280.2,181.5,282.8,174.8,285.2,174.8z"/>
		<line class="st8" x1="205.9" y1="101.3" x2="205.7" y2="169.1"/>
		<line class="st8" x1="206.8" y1="197.6" x2="266" y2="195.2"/>
		<path class="st8" d="M197.3,97.3l-18.7,2.7l-3.2,107.8c0,0-77,0.2-80.9-0.5c-3.9-0.7-5.4-7.7-5.4-7.7v-52.6l9.6-48.4l57.5,0"/>
		<path class="st1" d="M93.4,194.5h10.7c0,0,0,2.5-1.4,3.1c-1.5,0.6-8.8,1.1-9,0.3C93.5,197.2,93.4,194.5,93.4,194.5z"/>
		<path class="st1" d="M157.5,194.5l13.2,0c0,0,0.1,2.5-1.8,3.1s-10.9,1.1-11.1,0.4C157.5,197.2,157.5,194.5,157.5,194.5z"/>
		<path class="st8" d="M175.4,207.7l10.6-0.2c0,0,1-15.1,2.6-22.2c1.6-7.1,5.1-15.6,9.2-8.4c4,7.1,3.4,30.8,3.4,30.8l4-0.2l0.5-38.5
			"/>
		<polyline class="st8" points="98.7,98.4 126.5,93.1 199.5,93.1 		"/>
	</g>
</g>
</svg>
