<?xml version="1.0"?>
<svg width="384" height="262.6" xmlns="http://www.w3.org/2000/svg" xmlns:svg="http://www.w3.org/2000/svg" enable-background="new 0 0 384 262.6" version="1.1" xml:space="preserve">
 <style type="text/css">.st0{fill:#FFFFFF;}
	.st1{fill:#2F3339;}
	.st2{fill:none;stroke:#2F3339;stroke-width:3;stroke-miterlimit:10;}
	.st3{fill:#2F3339;stroke:#2F3339;stroke-width:2.9;stroke-linecap:round;stroke-linejoin:round;stroke-miterlimit:10;}
	.st4{fill:#FFFFFF;stroke:#FFFFFF;stroke-width:2;stroke-miterlimit:10;}
	.st5{clip-path:url(#SVGID_2_);}
	.st6{fill:#1D1D1B;}
	.st7{fill:#2F2FC0;}
	.st8{fill:none;stroke:#2F3339;stroke-width:3;stroke-linecap:round;stroke-linejoin:round;stroke-miterlimit:10;}
	.st9{fill:none;stroke:#2F2FC0;stroke-width:5;stroke-linecap:round;stroke-linejoin:round;stroke-miterlimit:10;}
	.st10{fill:none;stroke:#2F3339;stroke-width:2;stroke-linecap:round;stroke-linejoin:round;stroke-miterlimit:10;}
	.st11{fill:#2F3339;stroke:#2F3339;stroke-width:2.7116;stroke-linecap:round;stroke-linejoin:round;stroke-miterlimit:10;}
	.st12{fill:#FFFFFF;stroke:#FFFFFF;stroke-width:1.8311;stroke-miterlimit:10;}
	.st13{clip-path:url(#SVGID_4_);}
	.st14{fill:none;stroke:#2F2FC0;stroke-width:4.5779;stroke-linecap:round;stroke-linejoin:round;stroke-miterlimit:10;}
	.st15{fill:#2F3339;stroke:#2F3339;stroke-width:2.8083;stroke-linecap:round;stroke-linejoin:round;stroke-miterlimit:10;}
	.st16{fill:#FFFFFF;stroke:#FFFFFF;stroke-width:1.8964;stroke-miterlimit:10;}
	.st17{clip-path:url(#SVGID_6_);}
	.st18{fill:none;stroke:#2F2FC0;stroke-width:4.7411;stroke-linecap:round;stroke-linejoin:round;stroke-miterlimit:10;}
	.st19{fill:#2F3339;stroke:#2F3339;stroke-width:2.3651;stroke-linecap:round;stroke-linejoin:round;stroke-miterlimit:10;}
	.st20{fill:#FFFFFF;stroke:#FFFFFF;stroke-width:1.9275;stroke-miterlimit:10;}
	.st21{clip-path:url(#SVGID_8_);}
	.st22{fill:none;stroke:#2F2FC0;stroke-width:4.8188;stroke-linecap:round;stroke-linejoin:round;stroke-miterlimit:10;}</style>
 <g class="layer">
  <title>Layer 1</title>
  <g id="svg_1">
   <rect class="st0" height="262.6" id="svg_2" width="384"/>
   <g id="svg_3">
    <polygon class="st0" id="svg_4" points="197.1,52 332,68.3 332,166.7 197.1,166.4   "/>
    <path class="st1" d="m106.1,166.9l6.6,0c2.7,0 4.9,6.4 4.9,14.3s-2.2,14.3 -4.9,14.3l-6.6,0c-2.7,0 -4.9,-6.4 -4.9,-14.3s2.2,-14.3 4.9,-14.3z" id="svg_5"/>
    <path class="st1" d="m89.5,169.3l7.4,0c3,0 5.5,7.3 5.5,16.1c0,8.9 -2.4,16.1 -5.5,16.1l-7.4,0c-3,0 -5.5,-7.3 -5.5,-16.1c0.1,-8.8 2.5,-16.1 5.5,-16.1z" id="svg_6"/>
    <path class="st0" d="m96.9,201.3c-3,0 -5.5,-7.2 -5.5,-16c0,-8.9 2.4,-16.1 5.5,-16.1c3,0 5.5,7.2 5.5,16.1c0,8.8 -2.5,16 -5.5,16z" id="svg_7"/>
    <path class="st1" d="m170.2,167.3l6.3,0c2.6,0 4.7,6 4.7,13.5s-2.1,13.5 -4.7,13.5l-6.3,0c-2.6,0 -4.7,-6 -4.7,-13.5c0.1,-7.5 2.1,-13.5 4.7,-13.5z" id="svg_8"/>
    <path class="st0" d="m176.6,194.2c-2.6,0 -4.7,-6.1 -4.7,-13.6c0,-7.5 2.1,-13.6 4.7,-13.6c2.6,0 4.7,6.1 4.7,13.6c0,7.5 -2.1,13.6 -4.7,13.6z" id="svg_9"/>
    <path class="st1" d="m158.2,168.1l6.3,0c2.6,0 4.7,6 4.7,13.5c0,7.5 -2.1,13.5 -4.7,13.5l-6.3,0c-2.6,0 -4.7,-6 -4.7,-13.5c0.1,-7.5 2.1,-13.5 4.7,-13.5z" id="svg_10"/>
    <path class="st0" d="m164.6,195c-2.6,0 -4.7,-6.1 -4.7,-13.6c0,-7.5 2.1,-13.6 4.7,-13.6s4.7,6.1 4.7,13.6c0,7.5 -2.1,13.6 -4.7,13.6z" id="svg_11"/>
    <path class="st1" d="m145.7,168.1l6.6,0c2.7,0 4.9,6.4 4.9,14.3s-2.2,14.3 -4.9,14.3l-6.6,0c-2.7,0 -4.9,-6.4 -4.9,-14.3c0.1,-7.8 2.2,-14.3 4.9,-14.3z" id="svg_12"/>
    <path class="st0" d="m152.3,196.5c-2.7,0 -4.9,-6.4 -4.9,-14.3c0,-7.9 2.2,-14.3 4.9,-14.3c2.7,0 4.9,6.4 4.9,14.3c0,7.9 -2.2,14.3 -4.9,14.3z" id="svg_13"/>
    <path class="st1" d="m231.1,170.1l7.7,0c3.1,0 5.7,7.5 5.7,16.7c0,9.2 -2.5,16.7 -5.7,16.7l-7.7,0c-3.1,0 -5.7,-7.5 -5.7,-16.7c0,-9.2 2.5,-16.7 5.7,-16.7z" id="svg_14"/>
    <path class="st0" d="m171.4,195l0,-112l153.7,19.8l0,85.3l-153.7,6.9z" id="svg_15"/>
    <path class="st0" d="m107,51.4l89.6,0l0,115.8l-89.6,0l0,-115.8z" id="svg_16"/>
    <path class="st1" d="m107,167.7l14.3,0c0.1,0 0.3,-0.1 0.4,-0.2c0.1,-0.1 0.2,-0.2 0.2,-0.4c0,-0.1 -0.1,-0.3 -0.2,-0.4c-0.1,-0.1 -0.2,-0.2 -0.4,-0.2l-13.8,0l0,-114.6l88.6,0l0,115.2c0,0.1 0.1,0.3 0.2,0.4c0.1,0.1 0.2,0.2 0.4,0.2c0.1,0 0.3,-0.1 0.4,-0.2c0.1,-0.1 0.2,-0.2 0.2,-0.4l0,-115.7c0,-0.1 -0.1,-0.3 -0.2,-0.4c-0.1,-0.1 -0.2,-0.2 -0.4,-0.2l-89.7,0c-0.1,0 -0.3,0.1 -0.4,0.2c-0.1,0.1 -0.2,0.2 -0.2,0.4l0,115.8c0,0.1 0,0.1 0,0.2c0,0.1 0.1,0.1 0.1,0.2c0.1,0.1 0.1,0.1 0.2,0.1c0.1,0 0.2,0 0.3,0z" id="svg_17"/>
    <path class="st1" d="m163.6,177.1l8.9,0c3.6,0 6.6,8.8 6.6,19.7c0,10.9 -3,19.7 -6.6,19.7l-8.9,0c-3.6,0 -6.6,-8.8 -6.6,-19.7c0,-10.9 2.9,-19.7 6.6,-19.7z" id="svg_18"/>
    <path class="st0" d="m172.5,215.4c-3.6,0 -6.6,-8.6 -6.6,-19.3c0,-10.6 2.9,-19.3 6.6,-19.3c3.6,0 6.6,8.6 6.6,19.3c-0.1,10.7 -3,19.3 -6.6,19.3z" id="svg_19"/>
    <path class="st1" d="m172.5,216c4,0 7.1,-8.7 7.1,-19.8c0,-11.1 -3.1,-19.8 -7.1,-19.8s-7.1,8.7 -7.1,19.8c0,11.1 3.1,19.8 7.1,19.8zm0,-38.6c2.9,0 6,7.5 6,18.7s-3.1,18.7 -6,18.7c-2.9,0 -6,-7.5 -6,-18.7s3.1,-18.7 6,-18.7z" id="svg_20"/>
    <path class="st1" d="m91.3,176.3l8.8,0c3.6,0 6.5,9 6.5,20.1c0,11.1 -2.9,20.1 -6.5,20.1l-8.8,0c-3.6,0 -6.5,-9 -6.5,-20.1c0,-11.1 2.9,-20.1 6.5,-20.1z" id="svg_21"/>
    <path class="st0" d="m100.2,214.8c-3.7,0 -6.6,-8.7 -6.6,-19.4s3,-19.4 6.6,-19.4s6.6,8.7 6.6,19.4s-3,19.4 -6.6,19.4z" id="svg_22"/>
    <path class="st1" d="m100.2,215.3c4,0 7.2,-8.8 7.2,-20s-3.1,-20 -7.2,-20c-4,0 -7.2,8.8 -7.2,20s3.1,20 7.2,20zm0,-38.8c2.9,0 6.1,7.6 6.1,18.9s-3.1,18.9 -6.1,18.9s-6.1,-7.6 -6.1,-18.9s3.1,-18.9 6.1,-18.9z" id="svg_23"/>
    <path class="st0" d="m191.4,86.2l0.3,80.4l-3,2.6c-0.5,0.5 -1,1 -1.3,1.7c-0.3,0.7 -0.4,1.4 -0.4,2.1l1.2,29c0,0.3 0,0.6 -0.1,0.9c-0.1,0.3 -0.3,0.5 -0.5,0.7c-0.2,0.2 -0.4,0.4 -0.7,0.5c-0.3,0.1 -0.6,0.2 -0.8,0.2c-0.9,0 -4.3,0.1 -4.3,0c0,-18.1 -0.9,-33 -5.3,-33c-4.4,0 -7.9,14.7 -7.9,32.8c0,0.1 -10.5,0.2 -10.5,0.2l0,-117.8l33.3,-0.3z" id="svg_24"/>
    <path class="st0" d="m83.3,85.6l74.1,0l0,118.6l-80.4,0c-1.2,0 -2.3,-0.5 -3.1,-1.3c-0.8,-0.8 -1.3,-1.9 -1.3,-3.1l0,-38c0,-10.6 0.9,-21.1 2.8,-31.5l7.9,-44.7z" id="svg_25"/>
    <path class="st1" d="m84.9,141.9l62.1,0c1.3,0 2.5,-0.4 3.4,-1.1c0.9,-0.7 1.4,-1.7 1.4,-2.8l0,-9.5c0,-0.1 -0.1,-0.2 -0.2,-0.3s-0.2,-0.1 -0.4,-0.1l-29.6,0c-2.3,0 -4.7,0.4 -6.8,1.2c-2.2,0.8 -4.1,1.9 -5.8,3.2c-1.5,1.3 -3.4,2.3 -5.4,3.1c-2,0.7 -4.2,1.1 -6.4,1.1l-16.4,0c-0.1,0 -0.2,0 -0.3,0.1c-0.1,0.1 -0.2,0.2 -0.2,0.2l-0.1,0.4c-0.1,0.6 -0.1,1.1 0.1,1.7c0.2,0.6 0.5,1.1 0.9,1.5c0.4,0.4 1,0.8 1.6,1c0.7,0.2 1.4,0.3 2.1,0.3l0,0z" id="svg_26"/>
    <path class="st1" d="m165.6,138.3c0,0 0,0 0.5,0c0.5,-0.1 4.7,-4.3 4.7,-4.3s1.8,-1.6 2.8,-2.7c0.9,-1.1 1.4,-2.5 1.4,-3.9l0,-20.9c0,-0.8 -0.3,-1.6 -0.9,-2.2c-0.6,-0.6 -0.6,-0.9 -2.2,-0.9c-1.5,0 -5.7,1.9 -5.7,1.9s-1.6,0.6 -2.3,1.3c-0.7,0.7 -1,1.6 -1,2.5l0,26.6c0,0.7 0.3,1.4 0.8,1.9s1.2,0.7 1.9,0.7zm4.7,-5.4l-4.4,4.3c-0.2,0 -0.5,0 -0.7,0c-0.2,-0.1 -0.4,-0.2 -0.6,-0.3c-0.2,-0.1 -0.3,-0.3 -0.4,-0.5c-0.1,-0.2 -0.1,-0.4 -0.1,-0.7l0,-26.6c0,-0.7 0.3,-1.3 0.7,-1.7c0.5,-0.5 1,-0.7 1.6,-0.9c0,0 4.8,-1.9 5.5,-1.9c0.7,0 1,0.2 1.4,0.6c0.4,0.4 0.6,0.9 0.6,1.4l0,20.9c0,1.2 -0.4,2.3 -1.2,3.2c-0.7,0.8 -2.4,2.2 -2.4,2.2z" id="svg_27"/>
    <path class="st0" d="m97.4,60.2c0,0 3.6,-1.5 6.9,-1.5l73.7,0c1.9,0 3.8,0.6 5.4,1.7l-25.8,25.6l-74.3,0.1l6.9,-18.3l3.7,-5.2l3.5,-2.4z" id="svg_28"/>
    <path class="st8" d="m148.4,92.9c1.4,0 2.6,0.5 3.6,1.5c1,1 1.5,2.3 1.5,3.6l-1.4,39.2c0,1 -0.4,2 -1.1,2.8c-0.7,0.7 -1.7,1.1 -2.7,1.2l-64.2,0c-0.6,0 -1.1,-0.1 -1.6,-0.4c-0.5,-0.2 -1,-0.6 -1.3,-1c-0.4,-0.4 -0.6,-1 -0.8,-1.5c-0.1,-0.6 -0.2,-1.1 -0.1,-1.7l7.2,-40c0.2,-1.2 0.8,-2.3 1.7,-3c0.9,-0.8 2.1,-1.2 3.3,-1.2l55.9,0.5z" id="svg_29"/>
    <path class="st1" d="m175.1,105.5l-2.1,0c-0.6,0 -1.1,0.2 -1.5,0.5c-0.4,0.3 -0.6,0.8 -0.6,1.2l0,22.2c0,0.4 0.2,0.9 0.6,1.2c0.4,0.3 0.9,0.5 1.5,0.5l0.7,0c1.6,0 3.2,-0.5 4.4,-1.4c1.2,-0.9 1.8,-2.1 1.8,-3.4l0,-17c0.1,-3.3 -0.5,-3.6 -0.5,-3.6c-1.1,-0.4 -3.7,-0.2 -4.3,-0.2z" id="svg_30"/>
    <path class="st1" d="m70.3,104.7l2.1,0c0.6,0 1.1,0.2 1.5,0.5c0.4,0.3 0.6,0.8 0.6,1.2l0,22.2c0,0.4 -0.2,0.9 -0.6,1.2c-0.4,0.3 -0.9,0.5 -1.5,0.5l-0.7,0c-1.6,0 -3.2,-0.5 -4.4,-1.4c-1.2,-0.9 -1.8,-2.1 -1.8,-3.4l0,-17c-0.1,-3.3 0.5,-3.6 0.5,-3.6c1.2,-0.3 3.7,-0.2 4.3,-0.2z" id="svg_31"/>
    <g id="svg_32">
     <path class="st1" d="m127.2,193.7c-0.6,-0.4 -1.2,-0.7 -1.9,-0.7l-24.4,0c-0.7,0 -1.3,0.2 -1.9,0.7c-0.6,0.4 -1,1.1 -1.4,1.8l-0.5,2.3c-0.1,0.3 -0.2,0.6 -0.2,0.9c0,0.3 0.1,0.6 0.2,0.9c0.1,0.3 0.3,0.5 0.5,0.6c0.2,0.2 0.4,0.2 0.7,0.2l29.3,0c0.2,0 0.5,-0.1 0.7,-0.2c0.2,-0.2 0.4,-0.4 0.5,-0.6c0.1,-0.3 0.2,-0.6 0.2,-0.9c0,-0.1 -0.3,-3 -0.4,-3.2c-0.1,-0.2 -0.8,-1.4 -1.4,-1.8zm-28.3,1.6c0,0 0.1,0 0.1,0l28.3,0c0,0 0.1,0 0.1,0c0.2,0.2 0.3,0.5 0.5,0.8l0.2,2.1l-30.1,0l0.4,-2.1c0.1,-0.3 0.3,-0.6 0.5,-0.8z" id="svg_33"/>
     <path class="st1" d="m129,198.7c0,0.2 0,-0.3 0,0l0,0z" id="svg_34"/>
    </g>
    <path class="st15" d="m148.4,148.1l-11.3,1.8l-45,0l-12.5,-1.8l0,7.1l11.3,24.8l2.6,9.1l40.1,0l2.8,-9.4l11.4,-24.5l0.6,-7.1z" id="svg_35"/>
    <path class="st1" d="m78.8,189.1l7.2,0c0.2,0 0.5,-0.1 0.7,-0.2c0.2,-0.1 0.4,-0.4 0.6,-0.6c0.1,-0.3 0.2,-0.6 0.3,-0.9c0,-0.3 0,-0.6 -0.1,-0.9l-0.6,-2.1c-0.3,-1.2 -1,-2.3 -1.8,-3.1s-1.8,-1.2 -2.8,-1.2l-5.7,0c0,0 -0.1,0 -0.1,0c0,0 -0.1,0.1 -0.1,0.1c0,0 -0.1,0.1 -0.1,0.2c0,0.1 0,0.1 0,0.2l0,5.2c0,0.9 0.3,1.7 0.8,2.4c0.3,0.5 1,0.9 1.7,0.9zm3.4,-8.1c0.9,0 1.7,0.4 2.4,1c0.7,0.6 1.2,1.6 1.5,2.6l0.6,2.1c0,0.2 0.1,0.3 0,0.5c0,0.2 -0.1,0.3 -0.1,0.5c-0.1,0.1 -0.2,0.2 -0.3,0.3c-0.1,0.1 -0.2,0.1 -0.4,0.1l-7.2,0c-0.5,0 -1,-0.3 -1.3,-0.7c-0.3,-0.5 -0.5,-1.1 -0.5,-1.7l0,-4.7l5.3,0z" id="svg_36"/>
    <path class="st1" d="m150.1,189.1l-8.6,0c-0.3,0 -0.6,-0.1 -0.9,-0.2c-0.3,-0.1 -0.5,-0.4 -0.7,-0.6c-0.2,-0.3 -0.3,-0.6 -0.3,-0.9c0,-0.3 0,-0.6 0.1,-0.9l0.7,-2.1c0.4,-1.2 1.1,-2.3 2.1,-3.1c1,-0.8 2.2,-1.2 3.4,-1.2l6.8,0c0.1,0 0.1,0 0.2,0c0.1,0 0.1,0.1 0.1,0.1c0,0 0.1,0.1 0.1,0.2c0,0.1 0,0.1 0,0.2l0,5.2c0,0.9 -0.3,1.7 -0.9,2.4c-0.5,0.5 -1.2,0.9 -2.1,0.9zm-4.1,-8.1c-1,0 -2,0.4 -2.9,1c-0.8,0.6 -1.5,1.6 -1.8,2.6l-0.7,2.1c-0.1,0.2 -0.1,0.3 0,0.5c0,0.2 0.1,0.3 0.2,0.5c0.1,0.1 0.2,0.2 0.3,0.3c0.1,0.1 0.3,0.1 0.4,0.1l8.6,0c0.6,0 1.2,-0.3 1.6,-0.7c0.4,-0.5 0.7,-1.1 0.6,-1.7l0,-4.7l-6.3,0z" id="svg_37"/>
    <path class="st16" d="m86.8,156l53.6,0c0.1,0 0.3,-0.1 0.3,-0.2c0.1,-0.1 0.1,-0.2 0.1,-0.4c0,-0.1 -0.1,-0.3 -0.1,-0.4c-0.1,-0.1 -0.2,-0.2 -0.3,-0.2l-53.6,0c-0.1,0 -0.3,0.1 -0.3,0.2c-0.1,0.1 -0.1,0.2 -0.1,0.4c0,0.1 0.1,0.3 0.1,0.4c0.1,0.2 0.2,0.2 0.3,0.2z" id="svg_38"/>
    <path class="st16" d="m91.3,161.1l44.7,0c0.1,0 0.2,-0.1 0.3,-0.2c0.1,-0.1 0.1,-0.2 0.1,-0.4c0,-0.1 0,-0.3 -0.1,-0.4c-0.1,-0.1 -0.2,-0.2 -0.3,-0.2l-44.7,0c-0.1,0 -0.2,0.1 -0.3,0.2c-0.1,0.1 -0.1,0.2 -0.1,0.4c0,0.1 0,0.3 0.1,0.4c0.1,0.2 0.2,0.2 0.3,0.2z" id="svg_39"/>
    <path class="st16" d="m92.9,166.2l41.3,0c0.1,0 0.2,-0.1 0.3,-0.2c0.1,-0.1 0.1,-0.2 0.1,-0.4s0,-0.3 -0.1,-0.4c-0.1,-0.1 -0.2,-0.2 -0.3,-0.2l-41.3,0c-0.1,0 -0.2,0.1 -0.3,0.2c-0.1,0.1 -0.1,0.2 -0.1,0.4s0,0.3 0.1,0.4c0.1,0.1 0.2,0.2 0.3,0.2z" id="svg_40"/>
    <path class="st16" d="m93.6,176.3l39.8,0c0.1,0 0.2,-0.1 0.3,-0.2c0.1,-0.1 0.1,-0.2 0.1,-0.4c0,-0.1 0,-0.3 -0.1,-0.4c-0.1,-0.1 -0.2,-0.2 -0.3,-0.2l-39.8,0c-0.1,0 -0.2,0.1 -0.3,0.2c-0.1,0.1 -0.1,0.2 -0.1,0.4c0,0.1 0,0.3 0.1,0.4c0.2,0.1 0.3,0.2 0.3,0.2z" id="svg_41"/>
    <path class="st16" d="m92.9,171.2l41.3,0c0.1,0 0.2,-0.1 0.3,-0.2c0.1,-0.1 0.1,-0.2 0.1,-0.4c0,-0.1 0,-0.3 -0.1,-0.4c-0.1,-0.1 -0.2,-0.2 -0.3,-0.2l-41.3,0c-0.1,0 -0.2,0.1 -0.3,0.2c-0.1,0.1 -0.1,0.2 -0.1,0.4c0,0.1 0,0.3 0.1,0.4c0.1,0.2 0.2,0.2 0.3,0.2z" id="svg_42"/>
    <path class="st16" d="m96,181.3l35.3,0c0.1,0 0.2,-0.1 0.2,-0.2c0.1,-0.1 0.1,-0.2 0.1,-0.4s0,-0.3 -0.1,-0.4c-0.1,-0.1 -0.1,-0.2 -0.2,-0.2l-35.3,0c-0.1,0 -0.2,0.1 -0.2,0.2c-0.1,0.1 -0.1,0.2 -0.1,0.4s0,0.3 0.1,0.4c0,0.2 0.1,0.2 0.2,0.2z" id="svg_43"/>
    <polyline class="st8" id="svg_56" points="107.4000015258789,57.20000076293945 107.4000015258789,50.400001525878906 198.10000610351562,51 198.10000610351562,165.39999389648438 333,165.6999969482422 333,67.30000305175781 221.3000030517578,53.29999923706055 "/>
    <polyline class="st8" id="svg_57" points="325.6000061035156,166.1999969482422 325.6000061035156,186.60000610351562 268.5,189.10000610351562 "/>
    <path class="st1" d="m306.8,168.6l7.4,0c3,0 5.5,7.4 5.5,16.6c0,9.2 -2.5,16.6 -5.5,16.6l-7.4,0c-3,0 -5.5,-7.4 -5.5,-16.6c0,-9.2 2.5,-16.6 5.5,-16.6z" id="svg_58"/>
    <path class="st0" d="m314.3,200.9c-3,0 -5.5,-7.1 -5.5,-15.9s2.4,-15.9 5.5,-15.9c3,0 5.5,7.1 5.5,15.9s-2.5,15.9 -5.5,15.9z" id="svg_59"/>
    <path class="st1" d="m314.3,201.4c3.8,0 6,-8.3 6,-16.4s-2.2,-16.4 -6,-16.4c-3.8,0 -6,8.3 -6,16.4s2.2,16.4 6,16.4zm0,-31.7c2.3,0 4.9,6.3 4.9,15.3s-2.6,15.3 -4.9,15.3c-2.3,0 -4.9,-6.3 -4.9,-15.3s2.6,-15.3 4.9,-15.3z" id="svg_60"/>
    <path class="st1" d="m292.9,169.7l7.4,0c3,0 5.5,7.5 5.5,16.8c0,9.3 -2.5,16.8 -5.5,16.8l-7.4,0c-3,0 -5.5,-7.5 -5.5,-16.8c0.1,-9.3 2.5,-16.8 5.5,-16.8z" id="svg_61"/>
    <path class="st0" d="m300.3,201.8c-3,0 -5.5,-7.1 -5.5,-15.9c0,-8.8 2.4,-15.9 5.5,-15.9c3,0 5.5,7.1 5.5,15.9c0,8.8 -2.5,15.9 -5.5,15.9z" id="svg_62"/>
    <path class="st1" d="m300.3,202.4c3.8,0 6,-8.3 6,-16.4c0,-8.1 -2.2,-16.4 -6,-16.4c-3.8,0 -6,8.3 -6,16.4c0,8 2.2,16.4 6,16.4zm0,-31.7c2.3,0 4.9,6.3 4.9,15.3c0,9 -2.6,15.3 -4.9,15.3c-2.3,0 -4.9,-6.3 -4.9,-15.3c0,-9 2.6,-15.3 4.9,-15.3z" id="svg_63"/>
    <path class="st1" d="m278.3,169.2l7.7,0c3.2,0 5.7,8 5.7,17.7c0,9.8 -2.6,17.7 -5.7,17.7l-7.7,0c-3.2,0 -5.7,-8 -5.7,-17.7s2.5,-17.7 5.7,-17.7z" id="svg_64"/>
    <path class="st0" d="m286,203.6c-3.1,0 -5.7,-7.5 -5.7,-16.7c0,-9.2 2.5,-16.7 5.7,-16.7c3.1,0 5.7,7.5 5.7,16.7c-0.1,9.2 -2.6,16.7 -5.7,16.7z" id="svg_65"/>
    <path class="st1" d="m286,204.1c3.9,0 6.2,-8.8 6.2,-17.2c0,-8.5 -2.3,-17.2 -6.2,-17.2c-3.9,0 -6.2,8.8 -6.2,17.2c-0.1,8.5 2.3,17.2 6.2,17.2zm0,-33.3c2.4,0 5.2,6.6 5.2,16.1c0,9.5 -2.7,16.1 -5.2,16.1c-2.4,0 -5.1,-6.6 -5.1,-16.1s2.6,-16.1 5.1,-16.1z" id="svg_66"/>
    <path class="st8" d="m102.4,87.7l55.6,0.8l33.4,-0.3l-1.6,-13.8c0,0 -1,-13.6 -11.8,-13.6c-14.6,0 -73.7,-0.6 -73.7,-0.6s-8.8,3.3 -12.9,10c-3.9,6.4 -7.5,17.2 -7.5,17.2" id="svg_67"/>
    <line class="st8" id="svg_68" x1="192.4" x2="192.2" y1="85.2" y2="165.2"/>
    <line class="st8" id="svg_69" x1="189.4" x2="247.7" y1="193.2" y2="190.9"/>
    <path class="st1" d="m212.6,171.3l8.7,0c3.6,0 6.4,8.8 6.4,19.6c0,10.8 -2.9,19.6 -6.4,19.6l-8.7,0c-3.6,0 -6.4,-8.8 -6.4,-19.6c0,-10.8 2.9,-19.6 6.4,-19.6z" id="svg_70"/>
    <path class="st0" d="m221.3,209.2c-3.5,0 -6.4,-8.4 -6.4,-18.7c0,-10.3 2.9,-18.7 6.4,-18.7c3.5,0 6.4,8.4 6.4,18.7c0,10.4 -2.9,18.7 -6.4,18.7z" id="svg_71"/>
    <path class="st1" d="m221.3,209.8c3.9,0 6.9,-8.5 6.9,-19.3c0,-10.8 -3,-19.3 -6.9,-19.3c-3.9,0 -6.9,8.5 -6.9,19.3c0,10.8 3,19.3 6.9,19.3zm0,-37.5c2.8,0 5.9,7.3 5.9,18.2c0,10.9 -3,18.2 -5.9,18.2c-2.8,0 -5.9,-7.3 -5.9,-18.2c0,-10.9 3.1,-18.2 5.9,-18.2z" id="svg_72"/>
    <path class="st8" d="m84.9,84.4l-11.2,58.9l0,51.7c0,0 1.5,6.9 5.3,7.6c3.8,0.7 79.6,0.5 79.6,0.5l3.8,-118.4c0,0 4.1,-22.6 18.5,-26.6" id="svg_73"/>
    <path class="st1" d="m77.9,190.2l10.6,0c0,0 0,2.5 -1.4,3c-1.5,0.6 -8.7,1.1 -8.9,0.3c-0.3,-0.7 -0.3,-3.3 -0.3,-3.3z" id="svg_74"/>
    <path class="st1" d="m140.9,190.2l13,0c0,0 0.1,2.5 -1.7,3c-1.8,0.6 -10.7,1.1 -11,0.4s-0.3,-3.4 -0.3,-3.4z" id="svg_75"/>
    <path class="st8" d="m158.6,203.2l10.4,-0.2c0,0 1,-14.9 2.5,-21.8c1.5,-7 5.1,-15.3 9,-8.3c4,7 3.4,30.3 3.4,30.3l3.9,-0.2l0.2,-31c0,0 1.5,-5.1 4.2,-6.8" id="svg_76"/>
    <line class="st8" id="svg_77" x1="206.7" x2="206.7" y1="149.5" y2="159.6"/>
    <line class="st8" id="svg_78" x1="198.1" x2="317" y1="57.2" y2="71.3"/>
    <line class="st8" id="svg_79" x1="217" x2="217" y1="148.9" y2="159"/>
    <line class="st8" id="svg_80" x1="227.9" x2="227.9" y1="149.5" y2="159.6"/>
    <line class="st8" id="svg_81" x1="239.2" x2="239.2" y1="149.9" y2="160"/>
    <line class="st8" id="svg_82" x1="250.1" x2="250.1" y1="150" y2="160.1"/>
    <line class="st8" id="svg_83" x1="261.9" x2="261.9" y1="150" y2="160.1"/>
    <line class="st8" id="svg_84" x1="274.1" x2="274.1" y1="150" y2="160.1"/>
    <line class="st8" id="svg_85" x1="286.9" x2="286.9" y1="149.9" y2="160"/>
    <line class="st8" id="svg_86" x1="299.3" x2="299.3" y1="150" y2="160.1"/>
    <line class="st8" id="svg_87" x1="311.7" x2="311.7" y1="149.9" y2="160"/>
    <line class="st8" id="svg_88" x1="323.7" x2="323.7" y1="150" y2="160.1"/>
   </g>
  </g>
 </g>
</svg>