<?xml version="1.0" encoding="utf-8"?>
<!-- Generator: Adobe Illustrator 23.0.0, SVG Export Plug-In . SVG Version: 6.00 Build 0)  -->
<svg version="1.1" id="Слой_1" xmlns="http://www.w3.org/2000/svg" xmlns:xlink="http://www.w3.org/1999/xlink" x="0px" y="0px"
	 viewBox="0 0 384 262.6" style="enable-background:new 0 0 384 262.6;" xml:space="preserve">
<style type="text/css">
	.st0{fill:#FFFFFF;}
	.st1{fill:#2F3339;}
	.st2{fill:none;stroke:#2F3339;stroke-width:3;stroke-miterlimit:10;}
	.st3{fill:#2F3339;stroke:#2F3339;stroke-width:2.9;stroke-linecap:round;stroke-linejoin:round;stroke-miterlimit:10;}
	.st4{fill:#FFFFFF;stroke:#FFFFFF;stroke-width:2;stroke-miterlimit:10;}
	.st5{clip-path:url(#SVGID_2_);}
	.st6{fill:#1D1D1B;}
	.st7{fill:#2F2FC0;}
	.st8{fill:none;stroke:#2F3339;stroke-width:3;stroke-linecap:round;stroke-linejoin:round;stroke-miterlimit:10;}
	.st9{fill:none;stroke:#2F2FC0;stroke-width:5;stroke-linecap:round;stroke-linejoin:round;stroke-miterlimit:10;}
	.st10{fill:none;stroke:#2F3339;stroke-width:2;stroke-linecap:round;stroke-linejoin:round;stroke-miterlimit:10;}
	.st11{fill:#2F3339;stroke:#2F3339;stroke-width:2.7116;stroke-linecap:round;stroke-linejoin:round;stroke-miterlimit:10;}
	.st12{fill:#FFFFFF;stroke:#FFFFFF;stroke-width:1.8311;stroke-miterlimit:10;}
	.st13{clip-path:url(#SVGID_4_);}
	.st14{fill:none;stroke:#2F2FC0;stroke-width:4.5779;stroke-linecap:round;stroke-linejoin:round;stroke-miterlimit:10;}
	.st15{fill:#2F3339;stroke:#2F3339;stroke-width:2.8083;stroke-linecap:round;stroke-linejoin:round;stroke-miterlimit:10;}
	.st16{fill:#FFFFFF;stroke:#FFFFFF;stroke-width:1.8964;stroke-miterlimit:10;}
	.st17{clip-path:url(#SVGID_6_);}
	.st18{fill:none;stroke:#2F2FC0;stroke-width:4.7411;stroke-linecap:round;stroke-linejoin:round;stroke-miterlimit:10;}
	.st19{fill:#2F3339;stroke:#2F3339;stroke-width:2.3651;stroke-linecap:round;stroke-linejoin:round;stroke-miterlimit:10;}
	.st20{fill:#FFFFFF;stroke:#FFFFFF;stroke-width:1.9275;stroke-miterlimit:10;}
	.st21{clip-path:url(#SVGID_8_);}
	.st22{fill:none;stroke:#2F2FC0;stroke-width:4.8188;stroke-linecap:round;stroke-linejoin:round;stroke-miterlimit:10;}
</style>
<g>
	<rect class="st0" width="384" height="262.6"/>
	<g>
		<polygon class="st0" points="197.1,52 332,68.3 332,166.7 197.1,166.4 		"/>
		<path class="st1" d="M106.1,166.9h6.6c2.7,0,4.9,6.4,4.9,14.3s-2.2,14.3-4.9,14.3h-6.6c-2.7,0-4.9-6.4-4.9-14.3
			S103.4,166.9,106.1,166.9z"/>
		<path class="st1" d="M89.5,169.3h7.4c3,0,5.5,7.3,5.5,16.1c0,8.9-2.4,16.1-5.5,16.1h-7.4c-3,0-5.5-7.3-5.5-16.1
			C84.1,176.6,86.5,169.3,89.5,169.3z"/>
		<path class="st0" d="M96.9,201.3c-3,0-5.5-7.2-5.5-16c0-8.9,2.4-16.1,5.5-16.1c3,0,5.5,7.2,5.5,16.1
			C102.4,194.1,99.9,201.3,96.9,201.3z"/>
		<path class="st1" d="M170.2,167.3h6.3c2.6,0,4.7,6,4.7,13.5s-2.1,13.5-4.7,13.5h-6.3c-2.6,0-4.7-6-4.7-13.5
			C165.6,173.3,167.6,167.3,170.2,167.3z"/>
		<path class="st0" d="M176.6,194.2c-2.6,0-4.7-6.1-4.7-13.6c0-7.5,2.1-13.6,4.7-13.6c2.6,0,4.7,6.1,4.7,13.6
			C181.3,188.1,179.2,194.2,176.6,194.2z"/>
		<path class="st1" d="M158.2,168.1h6.3c2.6,0,4.7,6,4.7,13.5c0,7.5-2.1,13.5-4.7,13.5h-6.3c-2.6,0-4.7-6-4.7-13.5
			C153.6,174.1,155.6,168.1,158.2,168.1z"/>
		<path class="st0" d="M164.6,195c-2.6,0-4.7-6.1-4.7-13.6c0-7.5,2.1-13.6,4.7-13.6s4.7,6.1,4.7,13.6
			C169.3,188.9,167.2,195,164.6,195z"/>
		<path class="st1" d="M145.7,168.1h6.6c2.7,0,4.9,6.4,4.9,14.3s-2.2,14.3-4.9,14.3h-6.6c-2.7,0-4.9-6.4-4.9-14.3
			C140.9,174.6,143,168.1,145.7,168.1z"/>
		<path class="st0" d="M152.3,196.5c-2.7,0-4.9-6.4-4.9-14.3c0-7.9,2.2-14.3,4.9-14.3c2.7,0,4.9,6.4,4.9,14.3
			C157.2,190.1,155,196.5,152.3,196.5z"/>
		<path class="st1" d="M231.1,170.1h7.7c3.1,0,5.7,7.5,5.7,16.7c0,9.2-2.5,16.7-5.7,16.7h-7.7c-3.1,0-5.7-7.5-5.7-16.7
			C225.4,177.6,227.9,170.1,231.1,170.1z"/>
		<path class="st0" d="M171.4,195V83l153.7,19.8v85.3L171.4,195z"/>
		<path class="st0" d="M107,51.4h89.6v115.8H107V51.4z"/>
		<path class="st1" d="M107,167.7h14.3c0.1,0,0.3-0.1,0.4-0.2c0.1-0.1,0.2-0.2,0.2-0.4c0-0.1-0.1-0.3-0.2-0.4
			c-0.1-0.1-0.2-0.2-0.4-0.2h-13.8V51.9h88.6v115.2c0,0.1,0.1,0.3,0.2,0.4c0.1,0.1,0.2,0.2,0.4,0.2c0.1,0,0.3-0.1,0.4-0.2
			c0.1-0.1,0.2-0.2,0.2-0.4V51.4c0-0.1-0.1-0.3-0.2-0.4c-0.1-0.1-0.2-0.2-0.4-0.2H107c-0.1,0-0.3,0.1-0.4,0.2
			c-0.1,0.1-0.2,0.2-0.2,0.4v115.8c0,0.1,0,0.1,0,0.2c0,0.1,0.1,0.1,0.1,0.2c0.1,0.1,0.1,0.1,0.2,0.1
			C106.8,167.7,106.9,167.7,107,167.7z"/>
		<path class="st1" d="M163.6,177.1h8.9c3.6,0,6.6,8.8,6.6,19.7c0,10.9-3,19.7-6.6,19.7h-8.9c-3.6,0-6.6-8.8-6.6-19.7
			C157,185.9,159.9,177.1,163.6,177.1z"/>
		<path class="st0" d="M172.5,215.4c-3.6,0-6.6-8.6-6.6-19.3c0-10.6,2.9-19.3,6.6-19.3c3.6,0,6.6,8.6,6.6,19.3
			C179,206.8,176.1,215.4,172.5,215.4z"/>
		<path class="st1" d="M172.5,216c4,0,7.1-8.7,7.1-19.8c0-11.1-3.1-19.8-7.1-19.8s-7.1,8.7-7.1,19.8
			C165.4,207.3,168.5,216,172.5,216z M172.5,177.4c2.9,0,6,7.5,6,18.7s-3.1,18.7-6,18.7c-2.9,0-6-7.5-6-18.7
			S169.6,177.4,172.5,177.4z"/>
		<path class="st1" d="M91.3,176.3h8.8c3.6,0,6.5,9,6.5,20.1c0,11.1-2.9,20.1-6.5,20.1h-8.8c-3.6,0-6.5-9-6.5-20.1
			C84.8,185.3,87.7,176.3,91.3,176.3z"/>
		<path class="st0" d="M100.2,214.8c-3.7,0-6.6-8.7-6.6-19.4s3-19.4,6.6-19.4s6.6,8.7,6.6,19.4S103.8,214.8,100.2,214.8z"/>
		<path class="st1" d="M100.2,215.3c4,0,7.2-8.8,7.2-20s-3.1-20-7.2-20c-4,0-7.2,8.8-7.2,20S96.1,215.3,100.2,215.3z M100.2,176.5
			c2.9,0,6.1,7.6,6.1,18.9s-3.1,18.9-6.1,18.9s-6.1-7.6-6.1-18.9S97.2,176.5,100.2,176.5z"/>
		<path class="st0" d="M191.4,86.2l0.3,80.4l-3,2.6c-0.5,0.5-1,1-1.3,1.7c-0.3,0.7-0.4,1.4-0.4,2.1l1.2,29c0,0.3,0,0.6-0.1,0.9
			c-0.1,0.3-0.3,0.5-0.5,0.7c-0.2,0.2-0.4,0.4-0.7,0.5c-0.3,0.1-0.6,0.2-0.8,0.2c-0.9,0-4.3,0.1-4.3,0c0-18.1-0.9-33-5.3-33
			c-4.4,0-7.9,14.7-7.9,32.8c0,0.1-10.5,0.2-10.5,0.2V86.5L191.4,86.2z"/>
		<path class="st0" d="M83.3,85.6h74.1v118.6H77c-1.2,0-2.3-0.5-3.1-1.3c-0.8-0.8-1.3-1.9-1.3-3.1v-38c0-10.6,0.9-21.1,2.8-31.5
			L83.3,85.6z"/>
		<path class="st1" d="M84.9,141.9H147c1.3,0,2.5-0.4,3.4-1.1c0.9-0.7,1.4-1.7,1.4-2.8v-9.5c0-0.1-0.1-0.2-0.2-0.3s-0.2-0.1-0.4-0.1
			h-29.6c-2.3,0-4.7,0.4-6.8,1.2c-2.2,0.8-4.1,1.9-5.8,3.2c-1.5,1.3-3.4,2.3-5.4,3.1c-2,0.7-4.2,1.1-6.4,1.1H80.8
			c-0.1,0-0.2,0-0.3,0.1c-0.1,0.1-0.2,0.2-0.2,0.2l-0.1,0.4c-0.1,0.6-0.1,1.1,0.1,1.7c0.2,0.6,0.5,1.1,0.9,1.5c0.4,0.4,1,0.8,1.6,1
			C83.5,141.8,84.2,141.9,84.9,141.9L84.9,141.9z"/>
		<path class="st1" d="M165.6,138.3c0,0,0,0,0.5,0c0.5-0.1,4.7-4.3,4.7-4.3s1.8-1.6,2.8-2.7c0.9-1.1,1.4-2.5,1.4-3.9v-20.9
			c0-0.8-0.3-1.6-0.9-2.2c-0.6-0.6-0.6-0.9-2.2-0.9c-1.5,0-5.7,1.9-5.7,1.9s-1.6,0.6-2.3,1.3c-0.7,0.7-1,1.6-1,2.5v26.6
			c0,0.7,0.3,1.4,0.8,1.9S164.9,138.3,165.6,138.3z M170.3,132.9l-4.4,4.3c-0.2,0-0.5,0-0.7,0c-0.2-0.1-0.4-0.2-0.6-0.3
			c-0.2-0.1-0.3-0.3-0.4-0.5c-0.1-0.2-0.1-0.4-0.1-0.7v-26.6c0-0.7,0.3-1.3,0.7-1.7c0.5-0.5,1-0.7,1.6-0.9c0,0,4.8-1.9,5.5-1.9
			c0.7,0,1,0.2,1.4,0.6c0.4,0.4,0.6,0.9,0.6,1.4v20.9c0,1.2-0.4,2.3-1.2,3.2C172,131.5,170.3,132.9,170.3,132.9z"/>
		<path class="st0" d="M97.4,60.2c0,0,3.6-1.5,6.9-1.5H178c1.9,0,3.8,0.6,5.4,1.7L157.6,86l-74.3,0.1l6.9-18.3l3.7-5.2L97.4,60.2z"
			/>
		<path class="st8" d="M148.4,92.9c1.4,0,2.6,0.5,3.6,1.5c1,1,1.5,2.3,1.5,3.6l-1.4,39.2c0,1-0.4,2-1.1,2.8
			c-0.7,0.7-1.7,1.1-2.7,1.2H84.1c-0.6,0-1.1-0.1-1.6-0.4c-0.5-0.2-1-0.6-1.3-1c-0.4-0.4-0.6-1-0.8-1.5c-0.1-0.6-0.2-1.1-0.1-1.7
			l7.2-40c0.2-1.2,0.8-2.3,1.7-3c0.9-0.8,2.1-1.2,3.3-1.2L148.4,92.9z"/>
		<path class="st1" d="M175.1,105.5H173c-0.6,0-1.1,0.2-1.5,0.5c-0.4,0.3-0.6,0.8-0.6,1.2v22.2c0,0.4,0.2,0.9,0.6,1.2
			c0.4,0.3,0.9,0.5,1.5,0.5h0.7c1.6,0,3.2-0.5,4.4-1.4c1.2-0.9,1.8-2.1,1.8-3.4v-17c0.1-3.3-0.5-3.6-0.5-3.6
			C178.3,105.3,175.7,105.5,175.1,105.5z"/>
		<path class="st1" d="M70.3,104.7h2.1c0.6,0,1.1,0.2,1.5,0.5c0.4,0.3,0.6,0.8,0.6,1.2v22.2c0,0.4-0.2,0.9-0.6,1.2
			c-0.4,0.3-0.9,0.5-1.5,0.5h-0.7c-1.6,0-3.2-0.5-4.4-1.4c-1.2-0.9-1.8-2.1-1.8-3.4v-17c-0.1-3.3,0.5-3.6,0.5-3.6
			C67.2,104.6,69.7,104.7,70.3,104.7z"/>
		<g>
			<path class="st1" d="M127.2,193.7c-0.6-0.4-1.2-0.7-1.9-0.7h-24.4c-0.7,0-1.3,0.2-1.9,0.7c-0.6,0.4-1,1.1-1.4,1.8l-0.5,2.3
				c-0.1,0.3-0.2,0.6-0.2,0.9c0,0.3,0.1,0.6,0.2,0.9c0.1,0.3,0.3,0.5,0.5,0.6c0.2,0.2,0.4,0.2,0.7,0.2h29.3c0.2,0,0.5-0.1,0.7-0.2
				c0.2-0.2,0.4-0.4,0.5-0.6c0.1-0.3,0.2-0.6,0.2-0.9c0-0.1-0.3-3-0.4-3.2C128.5,195.3,127.8,194.1,127.2,193.7z M98.9,195.3
				c0,0,0.1,0,0.1,0h28.3c0,0,0.1,0,0.1,0c0.2,0.2,0.3,0.5,0.5,0.8l0.2,2.1H98l0.4-2.1C98.5,195.8,98.7,195.5,98.9,195.3z"/>
			<path class="st1" d="M129,198.7C129,198.9,129,198.4,129,198.7L129,198.7z"/>
		</g>
		<path class="st15" d="M148.4,148.1l-11.3,1.8h-45l-12.5-1.8v7.1L90.9,180l2.6,9.1h40.1l2.8-9.4l11.4-24.5L148.4,148.1z"/>
		<path class="st1" d="M78.8,189.1h7.2c0.2,0,0.5-0.1,0.7-0.2c0.2-0.1,0.4-0.4,0.6-0.6c0.1-0.3,0.2-0.6,0.3-0.9c0-0.3,0-0.6-0.1-0.9
			l-0.6-2.1c-0.3-1.2-1-2.3-1.8-3.1s-1.8-1.2-2.8-1.2h-5.7c0,0-0.1,0-0.1,0c0,0-0.1,0.1-0.1,0.1c0,0-0.1,0.1-0.1,0.2
			c0,0.1,0,0.1,0,0.2v5.2c0,0.9,0.3,1.7,0.8,2.4C77.4,188.7,78.1,189.1,78.8,189.1z M82.2,181c0.9,0,1.7,0.4,2.4,1
			c0.7,0.6,1.2,1.6,1.5,2.6l0.6,2.1c0,0.2,0.1,0.3,0,0.5c0,0.2-0.1,0.3-0.1,0.5c-0.1,0.1-0.2,0.2-0.3,0.3c-0.1,0.1-0.2,0.1-0.4,0.1
			h-7.2c-0.5,0-1-0.3-1.3-0.7c-0.3-0.5-0.5-1.1-0.5-1.7V181H82.2z"/>
		<path class="st1" d="M150.1,189.1h-8.6c-0.3,0-0.6-0.1-0.9-0.2c-0.3-0.1-0.5-0.4-0.7-0.6c-0.2-0.3-0.3-0.6-0.3-0.9
			c0-0.3,0-0.6,0.1-0.9l0.7-2.1c0.4-1.2,1.1-2.3,2.1-3.1c1-0.8,2.2-1.2,3.4-1.2h6.8c0.1,0,0.1,0,0.2,0c0.1,0,0.1,0.1,0.1,0.1
			c0,0,0.1,0.1,0.1,0.2c0,0.1,0,0.1,0,0.2v5.2c0,0.9-0.3,1.7-0.9,2.4C151.7,188.7,151,189.1,150.1,189.1z M146,181c-1,0-2,0.4-2.9,1
			c-0.8,0.6-1.5,1.6-1.8,2.6l-0.7,2.1c-0.1,0.2-0.1,0.3,0,0.5c0,0.2,0.1,0.3,0.2,0.5c0.1,0.1,0.2,0.2,0.3,0.3
			c0.1,0.1,0.3,0.1,0.4,0.1h8.6c0.6,0,1.2-0.3,1.6-0.7c0.4-0.5,0.7-1.1,0.6-1.7V181H146z"/>
		<path class="st16" d="M86.8,156h53.6c0.1,0,0.3-0.1,0.3-0.2c0.1-0.1,0.1-0.2,0.1-0.4c0-0.1-0.1-0.3-0.1-0.4
			c-0.1-0.1-0.2-0.2-0.3-0.2H86.8c-0.1,0-0.3,0.1-0.3,0.2c-0.1,0.1-0.1,0.2-0.1,0.4c0,0.1,0.1,0.3,0.1,0.4
			C86.6,156,86.7,156,86.8,156z"/>
		<path class="st16" d="M91.3,161.1H136c0.1,0,0.2-0.1,0.3-0.2c0.1-0.1,0.1-0.2,0.1-0.4c0-0.1,0-0.3-0.1-0.4
			c-0.1-0.1-0.2-0.2-0.3-0.2H91.3c-0.1,0-0.2,0.1-0.3,0.2c-0.1,0.1-0.1,0.2-0.1,0.4c0,0.1,0,0.3,0.1,0.4
			C91.1,161.1,91.2,161.1,91.3,161.1z"/>
		<path class="st16" d="M92.9,166.2h41.3c0.1,0,0.2-0.1,0.3-0.2c0.1-0.1,0.1-0.2,0.1-0.4s0-0.3-0.1-0.4c-0.1-0.1-0.2-0.2-0.3-0.2
			H92.9c-0.1,0-0.2,0.1-0.3,0.2c-0.1,0.1-0.1,0.2-0.1,0.4s0,0.3,0.1,0.4C92.7,166.1,92.8,166.2,92.9,166.2z"/>
		<path class="st16" d="M93.6,176.3h39.8c0.1,0,0.2-0.1,0.3-0.2c0.1-0.1,0.1-0.2,0.1-0.4c0-0.1,0-0.3-0.1-0.4
			c-0.1-0.1-0.2-0.2-0.3-0.2H93.6c-0.1,0-0.2,0.1-0.3,0.2c-0.1,0.1-0.1,0.2-0.1,0.4c0,0.1,0,0.3,0.1,0.4
			C93.5,176.2,93.6,176.3,93.6,176.3z"/>
		<path class="st16" d="M92.9,171.2h41.3c0.1,0,0.2-0.1,0.3-0.2c0.1-0.1,0.1-0.2,0.1-0.4c0-0.1,0-0.3-0.1-0.4
			c-0.1-0.1-0.2-0.2-0.3-0.2H92.9c-0.1,0-0.2,0.1-0.3,0.2c-0.1,0.1-0.1,0.2-0.1,0.4c0,0.1,0,0.3,0.1,0.4
			C92.7,171.2,92.8,171.2,92.9,171.2z"/>
		<path class="st16" d="M96,181.3h35.3c0.1,0,0.2-0.1,0.2-0.2c0.1-0.1,0.1-0.2,0.1-0.4s0-0.3-0.1-0.4c-0.1-0.1-0.1-0.2-0.2-0.2H96
			c-0.1,0-0.2,0.1-0.2,0.2c-0.1,0.1-0.1,0.2-0.1,0.4s0,0.3,0.1,0.4C95.8,181.3,95.9,181.3,96,181.3z"/>
		<g>
			<defs>
				
					<rect id="SVGID_5_" x="117.2" y="59.6" transform="matrix(1.110317e-02 -0.9999 0.9999 1.110317e-02 44.99 196.6167)" width="9.4" height="31.9"/>
			</defs>
			<clipPath id="SVGID_2_">
				<use xlink:href="#SVGID_5_"  style="overflow:visible;"/>
			</clipPath>
			<g class="st5">
				<path class="st6" d="M108.7,74.6c0.5,0,1,0.1,1.5,0.4c0.4,0.3,0.8,0.7,1,1.1l-1.1,0.4c-0.1-0.3-0.3-0.5-0.6-0.6
					c-0.2-0.2-0.5-0.2-0.8-0.2c-0.2,0-0.4,0-0.6,0.1c-0.2,0.1-0.4,0.2-0.5,0.4c-0.3,0.3-0.5,0.7-0.5,1.2c0,0.4,0.2,0.9,0.4,1.2
					c0.1,0.2,0.3,0.3,0.5,0.4c0.2,0.1,0.4,0.1,0.6,0.1c0.3,0,0.6-0.1,0.8-0.2c0.2-0.1,0.4-0.4,0.6-0.6l1.1,0.4
					c-0.2,0.5-0.6,0.8-1,1.1c-0.4,0.3-1,0.4-1.5,0.4c-0.8,0-1.4-0.3-2-0.8c-0.5-0.5-0.8-1.2-0.8-2c0-0.7,0.3-1.4,0.8-2
					c0.3-0.3,0.6-0.5,0.9-0.6C108,74.6,108.4,74.5,108.7,74.6z"/>
				<path class="st6" d="M112.4,80l-1.2,0l2.3-5.3l0.9,0l2.2,5.3l-1.2,0l-0.4-0.9l-2.3,0L112.4,80z M114.7,78.1l-0.7-1.8l-0.7,1.8
					L114.7,78.1z"/>
				<path class="st6" d="M117.1,74.7l2.4,0c0.2,0,0.5,0,0.7,0.1c0.2,0.1,0.4,0.2,0.6,0.4c0.2,0.2,0.3,0.4,0.4,0.6s0.1,0.5,0.1,0.7
					c0,0.3-0.1,0.6-0.3,0.9c-0.2,0.3-0.4,0.5-0.7,0.6l1.1,2l-1.2,0l-1-1.8l-1.1,0l0,1.8l-1.1,0L117.1,74.7z M119.5,75.8l-1.3,0
					l0,1.5l1.3,0c0.1,0,0.2,0,0.3,0c0.1,0,0.2-0.1,0.2-0.2c0.1-0.1,0.1-0.1,0.2-0.2c0-0.1,0.1-0.2,0.1-0.3c0-0.1,0-0.2,0-0.3
					c0-0.1-0.1-0.2-0.2-0.2c-0.1-0.1-0.1-0.1-0.2-0.2C119.7,75.8,119.6,75.8,119.5,75.8L119.5,75.8z"/>
				<path class="st7" d="M125.4,76.1c0.2,0.2,0.4,0.4,0.5,0.7c0.1,0.2,0.1,0.4,0.1,0.6c0,0.2,0,0.4-0.1,0.6
					c-0.1,0.2-0.2,0.4-0.4,0.5c-0.2,0.2-0.3,0.3-0.5,0.3c-0.4,0.2-0.9,0.2-1.3,0c-0.2-0.1-0.4-0.2-0.5-0.3c-0.1-0.2-0.3-0.3-0.3-0.5
					c-0.1-0.3-0.1-0.6-0.1-1c0.1-0.3,0.2-0.6,0.5-0.8l0.6,1.5l0.9-0.4l-1-2.7c0,0-0.1,0-0.1,0c-0.1,0-0.1,0-0.1,0
					c-0.7,0.3-1.2,0.8-1.5,1.5c-0.2,0.5-0.3,1.1-0.2,1.6c0.1,0.5,0.3,1,0.7,1.4c0.4,0.4,0.9,0.7,1.4,0.8c0.5,0.1,1.1,0.1,1.6-0.1
					c0.3-0.1,0.6-0.3,0.9-0.6c0.3-0.3,0.5-0.6,0.6-0.9c0.3-0.7,0.3-1.4,0-2.2c-0.1,0-0.1,0-0.2,0C126.3,76.4,125.8,76.3,125.4,76.1z
					"/>
				<path class="st7" d="M125.8,75c0.1,0.1,0.1,0.1,0.2,0.2c0,0-0.1,0-0.1-0.1C125.8,75,125.8,75,125.8,75z"/>
				<path class="st7" d="M129.5,73.7c0-0.4-0.1-0.7-0.2-1.1c-0.1-0.3-0.3-0.6-0.6-0.9c-0.3-0.3-0.6-0.5-0.9-0.6
					c-0.3-0.1-0.7-0.2-1-0.2c-0.4,0-0.7,0-1.1,0.2c-0.3,0.1-0.6,0.3-0.9,0.6c-0.5,0.5-0.8,1.2-0.8,2c0,0.7,0.3,1.4,0.8,2
					c0.2,0.2,0.4,0.4,0.6,0.5c-0.2-0.2-0.8-1.5-0.8-1.5c0.4,0,0.8,0.2,1.1,0.4c-0.1,0-0.1-0.1-0.2-0.1c-0.3-0.3-0.4-0.8-0.4-1.2
					c0-0.4,0.2-0.9,0.5-1.2c0.2-0.2,0.3-0.3,0.5-0.3c0.2-0.1,0.4-0.1,0.6-0.1c0.2,0,0.4,0,0.6,0.1c0.2,0.1,0.4,0.2,0.5,0.4
					c0.3,0.3,0.4,0.8,0.4,1.2c0,0.4-0.2,0.9-0.5,1.2c-0.1,0.2-0.3,0.3-0.5,0.4c-0.2,0.1-0.4,0.1-0.6,0.1c-0.3,0-0.5-0.1-0.8-0.2l0,0
					c0.4,0.3,0.7,0.8,0.9,1.3c0.7,0,1.4-0.3,1.8-0.8C129.2,75.1,129.5,74.4,129.5,73.7L129.5,73.7z"/>
				<path class="st7" d="M126,75.2L126,75.2c-0.1-0.1-0.2-0.1-0.2-0.2c-0.3-0.2-0.7-0.3-1.1-0.4c0,0,0.6,1.3,0.8,1.5
					c0.4,0.2,0.9,0.3,1.3,0.3c0.1,0,0.1,0,0.2,0C126.7,75.9,126.4,75.5,126,75.2z"/>
				<path class="st6" d="M129.4,74.9l3.9,0l-0.5,1l-2.3,0l0,1.1l2.4,0l0,1l-2.4,0l0,2.2l-1.1,0L129.4,74.9z"/>
				<path class="st6" d="M133.9,74.9l3.9,0l-0.5,1l-2.3,0l0,1.1l2.4,0l0,1l-2.4,0l0,2.2l-1.1,0L133.9,74.9z"/>
			</g>
		</g>
		<polyline class="st8" points="106.4,58.2 106.4,51.4 197.1,52 197.1,166.4 332,166.7 332,68.3 220.3,54.3 		"/>
		<polyline class="st8" points="324.6,167.2 324.6,187.6 267.5,190.1 		"/>
		<path class="st1" d="M305.8,169.6h7.4c3,0,5.5,7.4,5.5,16.6c0,9.2-2.5,16.6-5.5,16.6h-7.4c-3,0-5.5-7.4-5.5-16.6
			C300.3,177,302.8,169.6,305.8,169.6z"/>
		<path class="st0" d="M313.3,201.9c-3,0-5.5-7.1-5.5-15.9s2.4-15.9,5.5-15.9c3,0,5.5,7.1,5.5,15.9S316.3,201.9,313.3,201.9z"/>
		<path class="st1" d="M313.3,202.4c3.8,0,6-8.3,6-16.4s-2.2-16.4-6-16.4c-3.8,0-6,8.3-6,16.4S309.5,202.4,313.3,202.4z
			 M313.3,170.7c2.3,0,4.9,6.3,4.9,15.3s-2.6,15.3-4.9,15.3c-2.3,0-4.9-6.3-4.9-15.3S311,170.7,313.3,170.7z"/>
		<path class="st1" d="M291.9,170.7h7.4c3,0,5.5,7.5,5.5,16.8c0,9.3-2.5,16.8-5.5,16.8h-7.4c-3,0-5.5-7.5-5.5-16.8
			C286.5,178.2,288.9,170.7,291.9,170.7z"/>
		<path class="st0" d="M299.3,202.8c-3,0-5.5-7.1-5.5-15.9c0-8.8,2.4-15.9,5.5-15.9c3,0,5.5,7.1,5.5,15.9
			C304.8,195.7,302.3,202.8,299.3,202.8z"/>
		<path class="st1" d="M299.3,203.4c3.8,0,6-8.3,6-16.4c0-8.1-2.2-16.4-6-16.4c-3.8,0-6,8.3-6,16.4
			C293.3,195,295.5,203.4,299.3,203.4z M299.3,171.7c2.3,0,4.9,6.3,4.9,15.3c0,9-2.6,15.3-4.9,15.3c-2.3,0-4.9-6.3-4.9-15.3
			C294.4,178,297,171.7,299.3,171.7z"/>
		<path class="st1" d="M277.3,170.2h7.7c3.2,0,5.7,8,5.7,17.7c0,9.8-2.6,17.7-5.7,17.7h-7.7c-3.2,0-5.7-8-5.7-17.7
			S274.1,170.2,277.3,170.2z"/>
		<path class="st0" d="M285,204.6c-3.1,0-5.7-7.5-5.7-16.7c0-9.2,2.5-16.7,5.7-16.7c3.1,0,5.7,7.5,5.7,16.7
			C290.6,197.1,288.1,204.6,285,204.6z"/>
		<path class="st1" d="M285,205.1c3.9,0,6.2-8.8,6.2-17.2c0-8.5-2.3-17.2-6.2-17.2c-3.9,0-6.2,8.8-6.2,17.2
			C278.7,196.4,281.1,205.1,285,205.1z M285,171.8c2.4,0,5.2,6.6,5.2,16.1c0,9.5-2.7,16.1-5.2,16.1c-2.4,0-5.1-6.6-5.1-16.1
			S282.5,171.8,285,171.8z"/>
		<path class="st8" d="M102.4,85.7l55.6,0.8l33.4-0.3l-1.6-13.8c0,0-1-13.6-11.8-13.6c-14.6,0-73.7-0.6-73.7-0.6s-8.8,3.3-12.9,10
			c-3.9,6.4-7.5,17.2-7.5,17.2"/>
		<line class="st8" x1="191.4" y1="86.2" x2="191.2" y2="166.2"/>
		<line class="st8" x1="188.4" y1="194.2" x2="246.7" y2="191.9"/>
		<path class="st1" d="M211.6,172.3h8.7c3.6,0,6.4,8.8,6.4,19.6c0,10.8-2.9,19.6-6.4,19.6h-8.7c-3.6,0-6.4-8.8-6.4-19.6
			C205.2,181.1,208.1,172.3,211.6,172.3z"/>
		<path class="st0" d="M220.3,210.2c-3.5,0-6.4-8.4-6.4-18.7c0-10.3,2.9-18.7,6.4-18.7c3.5,0,6.4,8.4,6.4,18.7
			C226.7,201.9,223.8,210.2,220.3,210.2z"/>
		<path class="st1" d="M220.3,210.8c3.9,0,6.9-8.5,6.9-19.3c0-10.8-3-19.3-6.9-19.3c-3.9,0-6.9,8.5-6.9,19.3
			C213.4,202.3,216.4,210.8,220.3,210.8z M220.3,173.3c2.8,0,5.9,7.3,5.9,18.2c0,10.9-3,18.2-5.9,18.2c-2.8,0-5.9-7.3-5.9-18.2
			C214.4,180.6,217.5,173.3,220.3,173.3z"/>
		<path class="st8" d="M83.9,85.4l-11.2,58.9v51.7c0,0,1.5,6.9,5.3,7.6c3.8,0.7,79.6,0.5,79.6,0.5l3.8-118.4c0,0,4.1-22.6,18.5-26.6
			"/>
		<path class="st1" d="M76.9,191.2h10.6c0,0,0,2.5-1.4,3c-1.5,0.6-8.7,1.1-8.9,0.3C76.9,193.8,76.9,191.2,76.9,191.2z"/>
		<path class="st1" d="M139.9,191.2l13,0c0,0,0.1,2.5-1.7,3c-1.8,0.6-10.7,1.1-11,0.4S139.9,191.2,139.9,191.2z"/>
		<path class="st8" d="M157.6,204.2L168,204c0,0,1-14.9,2.5-21.8c1.5-7,5.1-15.3,9-8.3c4,7,3.4,30.3,3.4,30.3l3.9-0.2L187,173
			c0,0,1.5-5.1,4.2-6.8"/>
		<line class="st8" x1="205.7" y1="150.5" x2="205.7" y2="160.6"/>
		<line class="st8" x1="197.1" y1="58.2" x2="316" y2="72.3"/>
		<line class="st8" x1="216" y1="149.9" x2="216" y2="160"/>
		<line class="st8" x1="226.9" y1="150.5" x2="226.9" y2="160.6"/>
		<line class="st8" x1="238.2" y1="150.9" x2="238.2" y2="161"/>
		<line class="st8" x1="249.1" y1="151" x2="249.1" y2="161.1"/>
		<line class="st8" x1="260.9" y1="151" x2="260.9" y2="161.1"/>
		<line class="st8" x1="273.1" y1="151" x2="273.1" y2="161.1"/>
		<line class="st8" x1="285.9" y1="150.9" x2="285.9" y2="161"/>
		<line class="st8" x1="298.3" y1="151" x2="298.3" y2="161.1"/>
		<line class="st8" x1="310.7" y1="150.9" x2="310.7" y2="161"/>
		<line class="st8" x1="322.7" y1="151" x2="322.7" y2="161.1"/>
	</g>
</g>
</svg>
