<?xml version="1.0"?>
<svg width="386.4" height="262.6" xmlns="http://www.w3.org/2000/svg" xmlns:svg="http://www.w3.org/2000/svg" enable-background="new 0 0 386.4 262.6" version="1.1" xml:space="preserve">
 <style type="text/css">.st0{fill:#FFFFFF;}
	.st1{fill:#2F3339;}
	.st2{fill:none;stroke:#2F3339;stroke-width:3;stroke-miterlimit:10;}
	.st3{fill:#2F3339;stroke:#2F3339;stroke-width:2.9;stroke-linecap:round;stroke-linejoin:round;stroke-miterlimit:10;}
	.st4{fill:#FFFFFF;stroke:#FFFFFF;stroke-width:2;stroke-miterlimit:10;}
	.st5{clip-path:url(#SVGID_2_);}
	.st6{fill:#1D1D1B;}
	.st7{fill:#2F2FC0;}
	.st8{fill:none;stroke:#2F3339;stroke-width:3;stroke-linecap:round;stroke-linejoin:round;stroke-miterlimit:10;}
	.st9{fill:none;stroke:#2F2FC0;stroke-width:5;stroke-linecap:round;stroke-linejoin:round;stroke-miterlimit:10;}
	.st10{fill:none;stroke:#2F3339;stroke-width:2;stroke-linecap:round;stroke-linejoin:round;stroke-miterlimit:10;}
	.st11{fill:#2F3339;stroke:#2F3339;stroke-width:2.7116;stroke-linecap:round;stroke-linejoin:round;stroke-miterlimit:10;}
	.st12{fill:#FFFFFF;stroke:#FFFFFF;stroke-width:1.8311;stroke-miterlimit:10;}
	.st13{clip-path:url(#SVGID_4_);}
	.st14{fill:none;stroke:#2F2FC0;stroke-width:4.5779;stroke-linecap:round;stroke-linejoin:round;stroke-miterlimit:10;}
	.st15{fill:#2F3339;stroke:#2F3339;stroke-width:2.8083;stroke-linecap:round;stroke-linejoin:round;stroke-miterlimit:10;}
	.st16{fill:#FFFFFF;stroke:#FFFFFF;stroke-width:1.8964;stroke-miterlimit:10;}
	.st17{clip-path:url(#SVGID_6_);}
	.st18{fill:none;stroke:#2F2FC0;stroke-width:4.7411;stroke-linecap:round;stroke-linejoin:round;stroke-miterlimit:10;}
	.st19{fill:#2F3339;stroke:#2F3339;stroke-width:2.3651;stroke-linecap:round;stroke-linejoin:round;stroke-miterlimit:10;}
	.st20{fill:#FFFFFF;stroke:#FFFFFF;stroke-width:1.9275;stroke-miterlimit:10;}
	.st21{clip-path:url(#SVGID_8_);}
	.st22{fill:none;stroke:#2F2FC0;stroke-width:4.8188;stroke-linecap:round;stroke-linejoin:round;stroke-miterlimit:10;}</style>
 <g class="layer">
  <title>Layer 1</title>
  <g id="svg_1">
   <rect class="st0" height="262.6" id="svg_2" width="384" x="1.2" y="0.3"/>
   <g id="svg_3">
    <path class="st1" d="m87.5,165l6.4,0c2.6,0 4.7,6.2 4.7,13.8c0,7.6 -2.1,13.8 -4.7,13.8l-6.4,0c-2.6,0 -4.7,-6.2 -4.7,-13.8c0,-7.6 2.1,-13.8 4.7,-13.8z" id="svg_4"/>
    <path class="st1" d="m71.5,167.4l7.1,0c2.9,0 5.3,7 5.3,15.6c0,8.6 -2.4,15.6 -5.3,15.6l-7.1,0c-2.9,0 -5.3,-7 -5.3,-15.6c0,-8.6 2.4,-15.6 5.3,-15.6z" id="svg_5"/>
    <path class="st0" d="m78.6,198.3c-2.9,0 -5.3,-6.9 -5.3,-15.5c0,-8.6 2.4,-15.5 5.3,-15.5c2.9,0 5.3,6.9 5.3,15.5c0,8.5 -2.3,15.5 -5.3,15.5z" id="svg_6"/>
    <path class="st1" d="m149.4,165.4l6.1,0c2.5,0 4.5,5.8 4.5,13s-2,13 -4.5,13l-6.1,0c-2.5,0 -4.5,-5.8 -4.5,-13s2,-13 4.5,-13z" id="svg_7"/>
    <path class="st0" d="m155.6,191.3c-2.5,0 -4.5,-5.9 -4.5,-13.1c0,-7.2 2,-13.1 4.5,-13.1c2.5,0 4.5,5.9 4.5,13.1c0,7.3 -2,13.1 -4.5,13.1z" id="svg_8"/>
    <path class="st1" d="m137.9,166.2l6.1,0c2.5,0 4.5,5.8 4.5,13c0,7.2 -2,13 -4.5,13l-6.1,0c-2.5,0 -4.5,-5.8 -4.5,-13c-0.1,-7.2 2,-13 4.5,-13z" id="svg_9"/>
    <path class="st0" d="m144,192.1c-2.5,0 -4.5,-5.9 -4.5,-13.1s2,-13.1 4.5,-13.1c2.5,0 4.5,5.9 4.5,13.1s-2,13.1 -4.5,13.1z" id="svg_10"/>
    <path class="st1" d="m125.8,166.2l6.4,0c2.6,0 4.7,6.2 4.7,13.8c0,7.6 -2.1,13.8 -4.7,13.8l-6.4,0c-2.6,0 -4.7,-6.2 -4.7,-13.8s2.1,-13.8 4.7,-13.8z" id="svg_11"/>
    <path class="st0" d="m132.1,193.6c-2.6,0 -4.7,-6.2 -4.7,-13.8c0,-7.6 2.1,-13.8 4.7,-13.8c2.6,0 4.7,6.2 4.7,13.8c0,7.6 -2.1,13.8 -4.7,13.8z" id="svg_12"/>
    <path class="st0" d="m150.5,190.3l0,-60.6l201.5,10.7l0,46.2l-201.5,3.7z" id="svg_13"/>
    <path class="st1" d="m143,174.9l8.6,0c3.5,0 6.4,8.5 6.4,19c0,10.5 -2.9,19 -6.4,19l-8.6,0c-3.5,0 -6.4,-8.5 -6.4,-19c0,-10.5 2.9,-19 6.4,-19z" id="svg_14"/>
    <path class="st0" d="m151.6,211.9c-3.5,0 -6.3,-8.3 -6.3,-18.6c0,-10.3 2.8,-18.6 6.3,-18.6c3.5,0 6.3,8.3 6.3,18.6c0,10.2 -2.8,18.6 -6.3,18.6z" id="svg_15"/>
    <path class="st1" d="m151.6,212.4c3.8,0 6.9,-8.4 6.9,-19.1s-3,-19.1 -6.9,-19.1c-3.8,0 -6.9,8.4 -6.9,19.1s3.1,19.1 6.9,19.1zm0,-37.2c2.8,0 5.8,7.3 5.8,18.1c0,10.8 -3,18.1 -5.8,18.1c-2.8,0 -5.8,-7.3 -5.8,-18.1c0,-10.9 3,-18.1 5.8,-18.1z" id="svg_16"/>
    <path class="st1" d="m73.2,174.1l8.5,0c3.5,0 6.3,8.7 6.3,19.4c0,10.7 -2.8,19.4 -6.3,19.4l-8.5,0c-3.5,0 -6.3,-8.7 -6.3,-19.4c0,-10.7 2.8,-19.4 6.3,-19.4z" id="svg_17"/>
    <path class="st0" d="m81.8,211.3c-3.5,0 -6.4,-8.4 -6.4,-18.8c0,-10.4 2.9,-18.8 6.4,-18.8s6.4,8.4 6.4,18.8c0,10.4 -2.9,18.8 -6.4,18.8z" id="svg_18"/>
    <path class="st1" d="m81.8,211.8c3.9,0 6.9,-8.5 6.9,-19.3c0,-10.8 -3,-19.3 -6.9,-19.3c-3.9,0 -6.9,8.5 -6.9,19.3c0,10.8 3,19.3 6.9,19.3zm0,-37.5c2.8,0 5.9,7.3 5.9,18.2c0,10.9 -3,18.2 -5.9,18.2c-2.8,0 -5.9,-7.3 -5.9,-18.2c0,-10.9 3,-18.2 5.9,-18.2z" id="svg_19"/>
    <path class="st0" d="m169.9,61l0.3,95.4l-2.9,3c-0.5,0.6 -1,1.2 -1.2,2c-0.3,0.8 -0.4,1.6 -0.4,2.5l1.2,34.4c0,0.3 0,0.7 -0.1,1c-0.1,0.3 -0.2,0.6 -0.4,0.9c-0.2,0.3 -0.4,0.5 -0.7,0.6c-0.3,0.1 -0.5,0.2 -0.8,0.2c-0.9,0 -4.2,0.1 -4.2,0c0,-21.5 -0.9,-39.1 -5.1,-39.1c-4.2,0 -7.7,17.4 -7.7,38.9c0,0.1 -10.1,0.2 -10.1,0.2l0,-139.6l32.1,-0.4z" id="svg_20"/>
    <path class="st0" d="m65.5,86.5l71.6,0l0,114.5l-77.6,0c-1.1,0 -2.2,-0.5 -3,-1.3c-0.8,-0.8 -1.2,-1.9 -1.2,-3l0,-36.7c0,-10.2 0.9,-20.4 2.7,-30.4l7.5,-43.1z" id="svg_21"/>
    <path class="st1" d="m67.1,140.9l59.9,0c1.2,0 2.4,-0.4 3.2,-1.1c0.9,-0.7 1.4,-1.7 1.4,-2.7l0,-9.1c0,-0.1 -0.1,-0.2 -0.1,-0.3c-0.1,-0.1 -0.2,-0.1 -0.4,-0.1l-28.5,0c-2.3,0 -4.5,0.4 -6.6,1.1c-2.1,0.7 -4,1.8 -5.6,3.1c-1.5,1.3 -3.3,2.3 -5.2,2.9c-2,0.7 -4.1,1 -6.2,1.1l-15.9,0c-0.1,0 -0.2,0 -0.3,0.1c-0.1,0.1 -0.1,0.1 -0.2,0.2l-0.1,0.4c-0.1,0.5 -0.1,1.1 0.1,1.6c0.2,0.5 0.5,1 0.9,1.5c0.4,0.4 1,0.8 1.6,1c0.6,0.2 1.3,0.3 2,0.3l0,0z" id="svg_22"/>
    <path class="st1" d="m145,137.4c0,0 0,0 0.4,0c0.5,-0.1 4.6,-4.2 4.6,-4.2s1.8,-1.5 2.7,-2.6c0.9,-1.1 1.4,-2.4 1.4,-3.8l0,-20.2c0,-0.8 -0.3,-1.5 -0.9,-2.1c-0.6,-0.6 -0.6,-0.9 -2.1,-0.9c-1.5,0 -5.5,1.9 -5.5,1.9s-1.5,0.6 -2.2,1.2c-0.6,0.6 -1,1.5 -1,2.4l0,25.6c0,0.7 0.3,1.3 0.7,1.8s1.2,0.9 1.9,0.9zm4.5,-5.2l-4.2,4.2c-0.2,0 -0.4,0 -0.7,0c-0.2,-0.1 -0.4,-0.2 -0.6,-0.3c-0.2,-0.1 -0.3,-0.3 -0.4,-0.5c-0.1,-0.2 -0.1,-0.4 -0.1,-0.6l0,-25.6c0,-0.6 0.2,-1.2 0.7,-1.7c0.4,-0.4 0.9,-0.7 1.6,-0.9c0,0 4.6,-1.8 5.3,-1.8c0.7,0 1,0.2 1.3,0.6c0.4,0.4 0.6,0.8 0.6,1.3l0,20.2c0,1.1 -0.4,2.2 -1.1,3.1c-0.8,0.6 -2.4,2 -2.4,2z" id="svg_23"/>
    <path class="st0" d="m79.1,62c0,0 3.5,-1.4 6.7,-1.4l71.1,0c1.9,0 3.7,0.6 5.2,1.6l-24.9,24.7l-71.7,0.1l6.7,-17.7l3.6,-5l3.3,-2.3z" id="svg_24"/>
    <path class="st8" d="m128.3,93.5c1.3,0 2.6,0.5 3.5,1.5c0.9,0.9 1.4,2.2 1.4,3.5l-1.3,37.8c0,1 -0.4,2 -1.1,2.7c-0.7,0.7 -1.7,1.1 -2.6,1.1l-62,0c-0.5,0 -1.1,-0.1 -1.6,-0.4c-0.5,-0.2 -0.9,-0.6 -1.3,-1c-0.4,-0.4 -0.6,-0.9 -0.8,-1.5c-0.1,-0.5 -0.2,-1.1 -0.1,-1.6l7.1,-38.6c0.2,-1.1 0.8,-2.2 1.7,-2.9c0.9,-0.7 2,-1.2 3.2,-1.2l53.9,0.6z" id="svg_25"/>
    <path class="st1" d="m154.2,105.7l-2.1,0c-0.6,0 -1.1,0.2 -1.5,0.5c-0.4,0.3 -0.6,0.7 -0.6,1.2l0,21.4c0,0.4 0.2,0.8 0.6,1.1c0.4,0.3 0.9,0.5 1.5,0.5l0.7,0c1.6,0 3.1,-0.5 4.2,-1.4c1.1,-0.9 1.7,-2.1 1.7,-3.3l0,-16.4c0.1,-3.2 -0.5,-3.5 -0.5,-3.5c-1,-0.2 -3.4,-0.1 -4,-0.1z" id="svg_26"/>
    <path class="st1" d="m53,105l2,0c0.6,0 1.1,0.2 1.5,0.5c0.4,0.3 0.6,0.7 0.6,1.2l0,21.3c0,0.4 -0.2,0.8 -0.6,1.1c-0.4,0.3 -0.9,0.5 -1.5,0.5l-0.7,0c-1.6,0 -3.1,-0.5 -4.2,-1.4c-1.1,-0.9 -1.7,-2.1 -1.7,-3.3l0,-16.4c-0.1,-3.2 0.5,-3.5 0.5,-3.5c1,-0.2 3.5,0 4.1,0z" id="svg_27"/>
    <g id="svg_28">
     <path class="st1" d="m107.9,190.9c-0.6,-0.4 -1.2,-0.6 -1.8,-0.6l-23.6,0c-0.6,0 -1.3,0.2 -1.8,0.6c-0.6,0.4 -1,1 -1.3,1.7l-0.5,2.2c-0.1,0.3 -0.2,0.6 -0.2,0.9c0,0.3 0.1,0.6 0.2,0.9c0.1,0.3 0.3,0.5 0.5,0.6c0.2,0.1 0.4,0.2 0.7,0.2l28.2,0c0.2,0 0.5,-0.1 0.7,-0.2c0.2,-0.1 0.4,-0.4 0.5,-0.6c0.1,-0.3 0.2,-0.6 0.2,-0.9c0,-0.1 -0.3,-2.9 -0.4,-3.1c-0.2,-0.2 -0.8,-1.3 -1.4,-1.7zm-27.3,1.5c0,0.1 0,0.1 0,0l27.4,0c0,0 0,0 0.1,0c0.2,0.2 0.3,0.5 0.4,0.8l0.2,2l-29,0l0.4,-2c0.1,-0.3 0.3,-0.5 0.5,-0.8z" id="svg_29"/>
     <path class="st1" d="m109.6,195.7c0,0.2 0,-0.3 0,0l0,0z" id="svg_30"/>
    </g>
    <path class="st11" d="m128.3,146.8l-10.9,1.7l-43.4,0l-12.1,-1.7l0,6.8l10.9,24l2.5,8.8l38.8,0l2.8,-9.1l11,-23.7l0.4,-6.8z" id="svg_31"/>
    <path class="st1" d="m61.1,186.4l6.9,0c0.2,0 0.5,-0.1 0.7,-0.2c0.2,-0.1 0.4,-0.3 0.5,-0.6c0.1,-0.3 0.2,-0.5 0.3,-0.9c0,-0.3 0,-0.6 -0.1,-0.9l-0.6,-2.1c-0.3,-1.2 -0.9,-2.2 -1.7,-3c-0.8,-0.7 -1.8,-1.1 -2.7,-1.1l-5.4,0c0,0 -0.1,0 -0.1,0c0,0 -0.1,0.1 -0.1,0.1c0,0 -0.1,0.1 -0.1,0.1c0,0.1 0,0.1 0,0.2l0,5c0,0.9 0.3,1.7 0.7,2.3c0.4,0.8 1.1,1.1 1.7,1.1zm3.3,-7.8c0.8,0 1.6,0.3 2.3,1c0.7,0.6 1.2,1.5 1.5,2.5l0.6,2.1c0,0.2 0.1,0.3 0,0.5c0,0.2 -0.1,0.3 -0.1,0.5c-0.1,0.1 -0.2,0.2 -0.3,0.3c-0.1,0.1 -0.2,0.1 -0.4,0.1l-6.9,0c-0.5,0 -0.9,-0.3 -1.3,-0.7c-0.3,-0.4 -0.5,-1 -0.5,-1.6l0,-4.6l5.1,0l0,-0.1z" id="svg_32"/>
    <path class="st1" d="m130,186.4l-8.3,0c-0.3,0 -0.6,-0.1 -0.8,-0.2c-0.3,-0.1 -0.5,-0.3 -0.6,-0.6c-0.2,-0.3 -0.3,-0.5 -0.3,-0.9c0,-0.3 0,-0.6 0.1,-0.9l0.7,-2.1c0.4,-1.2 1.1,-2.2 2.1,-3c1,-0.7 2.1,-1.1 3.3,-1.1l6.5,0c0.1,0 0.1,0 0.2,0c0.1,0 0.1,0.1 0.1,0.1c0,0 0.1,0.1 0.1,0.1c0,0.1 0,0.1 0,0.2l0,5c0,0.9 -0.3,1.7 -0.9,2.3c-0.6,0.8 -1.4,1.1 -2.2,1.1zm-3.9,-7.8c-1,0 -2,0.3 -2.8,1c-0.8,0.6 -1.4,1.5 -1.8,2.5l-0.7,2.1c-0.1,0.2 -0.1,0.3 0,0.5c0,0.2 0.1,0.3 0.2,0.5c0.1,0.1 0.2,0.2 0.3,0.3c0.1,0.1 0.3,0.1 0.4,0.1l8.3,0c0.6,0 1.1,-0.3 1.5,-0.7c0.4,-0.4 0.6,-1 0.6,-1.6l0,-4.6l-6,0l0,-0.1z" id="svg_33"/>
    <path class="st12" d="m68.9,154.5l51.8,0c0.1,0 0.2,-0.1 0.3,-0.2c0.1,-0.1 0.1,-0.2 0.1,-0.4c0,-0.1 -0.1,-0.3 -0.1,-0.4c-0.1,-0.1 -0.2,-0.2 -0.3,-0.2l-51.8,0c-0.1,0 -0.2,0.1 -0.3,0.2c-0.1,0.1 -0.1,0.2 -0.1,0.4c0,0.1 0.1,0.3 0.1,0.4c0.1,0.2 0.2,0.2 0.3,0.2z" id="svg_34"/>
    <path class="st12" d="m73.2,159.4l43.2,0c0.1,0 0.2,-0.1 0.3,-0.2c0.1,-0.1 0.1,-0.2 0.1,-0.4c0,-0.1 0,-0.3 -0.1,-0.4c-0.1,-0.1 -0.2,-0.2 -0.3,-0.2l-43.2,0c-0.1,0 -0.2,0.1 -0.3,0.2c-0.1,0.1 -0.1,0.2 -0.1,0.4c0,0.1 0,0.3 0.1,0.4c0.1,0.2 0.2,0.2 0.3,0.2z" id="svg_35"/>
    <path class="st12" d="m74.7,164.3l39.9,0c0.1,0 0.2,-0.1 0.3,-0.2c0.1,-0.1 0.1,-0.2 0.1,-0.4s0,-0.3 -0.1,-0.4c-0.1,-0.1 -0.2,-0.2 -0.3,-0.2l-39.9,0c-0.1,0 -0.2,0.1 -0.3,0.2c-0.1,0.1 -0.1,0.2 -0.1,0.4s0,0.3 0.1,0.4c0.1,0.2 0.2,0.2 0.3,0.2z" id="svg_36"/>
    <path class="st12" d="m75.5,174.1l38.4,0c0.1,0 0.2,-0.1 0.3,-0.2c0.1,-0.1 0.1,-0.2 0.1,-0.4c0,-0.1 0,-0.3 -0.1,-0.4c-0.1,-0.1 -0.2,-0.2 -0.3,-0.2l-38.4,0c-0.1,0 -0.2,0.1 -0.3,0.2c-0.1,0.1 -0.1,0.2 -0.1,0.4c0,0.1 0,0.3 0.1,0.4c0.1,0.1 0.2,0.2 0.3,0.2z" id="svg_37"/>
    <path class="st12" d="m74.7,169.2l39.9,0c0.1,0 0.2,-0.1 0.3,-0.2c0.1,-0.1 0.1,-0.2 0.1,-0.4c0,-0.1 0,-0.3 -0.1,-0.4c-0.1,-0.1 -0.2,-0.2 -0.3,-0.2l-39.9,0c-0.1,0 -0.2,0.1 -0.3,0.2c-0.1,0.1 -0.1,0.2 -0.1,0.4c0,0.1 0,0.3 0.1,0.4c0.1,0.1 0.2,0.2 0.3,0.2z" id="svg_38"/>
    <path class="st12" d="m77.8,179l34.1,0c0.1,0 0.2,-0.1 0.2,-0.2c0.1,-0.1 0.1,-0.2 0.1,-0.4c0,-0.1 0,-0.3 -0.1,-0.4c-0.1,-0.1 -0.1,-0.2 -0.2,-0.2l-34.1,0c-0.1,0 -0.2,0.1 -0.2,0.2c-0.1,0.1 -0.1,0.2 -0.1,0.4c0,0.1 0,0.3 0.1,0.4c0,0.1 0.1,0.2 0.2,0.2z" id="svg_39"/>
    <polyline class="st8" id="svg_52" points="352,129.6 352,165.4 182.1,164.5 182.1,105.7 170.1,104.7   "/>
    <polyline class="st8" id="svg_53" points="334.4,167.3 334.2,186.4 330.3,186.6   "/>
    <path class="st8" d="m84,87.63l53.7,0.77l32.2,-0.29l-1.5,-12.91c0,0 -0.9,-12.72 -11.4,-12.72c-14.1,0 -71.1,-0.48 -71.1,-0.48s-8.5,3.08 -12.4,9.35c-3.7,5.97 -7.2,16.09 -7.2,16.09" id="svg_54"/>
    <line class="st8" id="svg_55" x1="169.9" x2="169.7" y1="87.1" y2="164.3"/>
    <line class="st8" id="svg_56" x1="167" x2="229.8" y1="191.4" y2="190.3"/>
    <path class="st8" d="m67.1,86.3l-10.9,56.9l0,49.9c0,0 1.4,6.6 5.1,7.3c3.7,0.7 76.8,0.5 76.8,0.5l3.7,-114.3c0,0 4,-21.8 17.9,-25.7" id="svg_57"/>
    <path class="st1" d="m59.3,188.5l10.2,0c0,0 0,2.4 -1.4,2.9c-1.4,0.6 -8.4,1 -8.6,0.3s-0.2,-3.2 -0.2,-3.2z" id="svg_58"/>
    <path class="st1" d="m120.2,188.5l12.6,0c0,0 0.1,2.4 -1.7,2.9c-1.7,0.6 -10.3,1.1 -10.6,0.4c-0.3,-0.8 -0.3,-3.3 -0.3,-3.3z" id="svg_59"/>
    <line class="st8" id="svg_60" x1="182.1" x2="352" y1="133.4" y2="136.8"/>
    <path class="st1" d="m210.3,169.6l8.4,0c3.4,0 6.2,8.5 6.2,18.9c0,10.4 -2.8,18.9 -6.2,18.9l-8.4,0c-3.4,0 -6.2,-8.5 -6.2,-18.9c0,-10.4 2.7,-18.9 6.2,-18.9z" id="svg_61"/>
    <path class="st0" d="m218.6,206.2c-3.4,0 -6.2,-8.1 -6.2,-18.1s2.8,-18.1 6.2,-18.1c3.4,0 6.2,8.1 6.2,18.1s-2.8,18.1 -6.2,18.1z" id="svg_62"/>
    <path class="st1" d="m218.6,206.7c3.7,0 6.7,-8.2 6.7,-18.6s-2.9,-18.6 -6.7,-18.6c-3.7,0 -6.7,8.2 -6.7,18.6s3,18.6 6.7,18.6zm0,-36.1c2.7,0 5.7,7.1 5.7,17.6c0,10.5 -2.9,17.6 -5.7,17.6c-2.7,0 -5.7,-7.1 -5.7,-17.6c0.1,-10.6 3,-17.6 5.7,-17.6z" id="svg_63"/>
    <path class="st1" d="m191.3,170.2l8.4,0c3.4,0 6.2,8.5 6.2,18.9c0,10.4 -2.8,18.9 -6.2,18.9l-8.4,0c-3.4,0 -6.2,-8.5 -6.2,-18.9c0,-10.4 2.8,-18.9 6.2,-18.9z" id="svg_64"/>
    <path class="st0" d="m199.7,206.9c-3.4,0 -6.2,-8.1 -6.2,-18.1s2.8,-18.1 6.2,-18.1c3.4,0 6.2,8.1 6.2,18.1s-2.8,18.1 -6.2,18.1z" id="svg_65"/>
    <path class="st1" d="m199.7,207.4c3.7,0 6.7,-8.2 6.7,-18.6s-2.9,-18.6 -6.7,-18.6c-3.7,0 -6.7,8.2 -6.7,18.6s3,18.6 6.7,18.6zm0,-36.2c2.7,0 5.7,7.1 5.7,17.6c0,10.5 -2.9,17.6 -5.7,17.6c-2.7,0 -5.7,-7.1 -5.7,-17.6c0.1,-10.5 3,-17.6 5.7,-17.6z" id="svg_66"/>
    <line class="st8" id="svg_67" x1="274.5" x2="274.5" y1="131" y2="163.3"/>
    <line class="st8" id="svg_68" x1="230.2" x2="230.2" y1="130.4" y2="163.3"/>
    <line class="st8" id="svg_69" x1="169.7" x2="182.1" y1="131.9" y2="133.4"/>
    <line class="st8" id="svg_70" x1="316.5" x2="316.5" y1="131.4" y2="163.6"/>
    <path class="st8" d="m182.1,164.5l-12.4,-0.2c-2.7,1.7 -4.1,6.6 -4.1,6.6l-0.1,30l-3.8,0.1c0,0 0.5,-22.5 -3.3,-29.3c-3.8,-6.8 -7.2,1.3 -8.7,8c-1.5,6.7 -2.5,21.1 -2.5,21.1l-10.1,0.2" id="svg_71"/>
    <polyline class="st8" id="svg_72" points="352,165.4 352,186.6 334.2,185.2   "/>
    <polyline class="st8" id="svg_73" points="231.8,164.3 231.5,192.2 227.6,192.4   "/>
    <path class="st8" d="m227.6,192.4c0,0 1,-25.4 -6.2,-26.7" id="svg_74"/>
    <path class="st8" d="m264.5,186.6l65.8,0c0,0 1,-20.1 -6.2,-21.2" id="svg_75"/>
    <path class="st1" d="m314.5,168.5l7.2,0c2.9,0 5.3,7.1 5.3,16.1c0,8.9 -2.4,16.1 -5.3,16.1l-7.2,0c-2.9,0 -5.3,-7.1 -5.3,-16.1c0,-9 2.4,-16.1 5.3,-16.1z" id="svg_76"/>
    <path class="st0" d="m321.8,199.6c-2.9,0 -5.3,-6.9 -5.3,-15.3c0,-8.5 2.4,-15.3 5.3,-15.3c2.9,0 5.3,6.9 5.3,15.3c0,8.5 -2.4,15.3 -5.3,15.3z" id="svg_77"/>
    <path class="st1" d="m321.8,200.2c3.6,0 5.8,-8 5.8,-15.8c0,-7.8 -2.2,-15.8 -5.8,-15.8c-3.6,0 -5.8,8 -5.8,15.8c0,7.7 2.1,15.8 5.8,15.8zm0,-30.7c2.3,0 4.8,6.1 4.8,14.8c0,8.7 -2.5,14.8 -4.8,14.8c-2.3,0 -4.8,-6.1 -4.8,-14.8c0,-8.7 2.5,-14.8 4.8,-14.8z" id="svg_78"/>
    <path class="st1" d="m297.3,168.5l7.2,0c2.9,0 5.3,7.2 5.3,16.2s-2.4,16.2 -5.3,16.2l-7.2,0c-2.9,0 -5.3,-7.2 -5.3,-16.2c0,-9 2.4,-16.2 5.3,-16.2z" id="svg_79"/>
    <path class="st0" d="m304.4,199.6c-2.9,0 -5.3,-6.9 -5.3,-15.3c0,-8.5 2.4,-15.3 5.3,-15.3c2.9,0 5.3,6.9 5.3,15.3c0,8.4 -2.4,15.3 -5.3,15.3z" id="svg_80"/>
    <path class="st1" d="m304.4,200.1c3.6,0 5.8,-8 5.8,-15.8s-2.2,-15.8 -5.8,-15.8c-3.6,0 -5.8,8 -5.8,15.8s2.2,15.8 5.8,15.8zm0,-30.6c2.3,0 4.8,6.1 4.8,14.8s-2.5,14.8 -4.8,14.8c-2.3,0 -4.8,-6.1 -4.8,-14.8s2.5,-14.8 4.8,-14.8z" id="svg_81"/>
    <path class="st1" d="m279.2,168l7.5,0c3.1,0 5.5,7.7 5.5,17.1c0,9.4 -2.5,17.1 -5.5,17.1l-7.5,0c-3.1,0 -5.5,-7.7 -5.5,-17.1s2.5,-17.1 5.5,-17.1z" id="svg_82"/>
    <path class="st0" d="m286.7,201.3c-3,0 -5.5,-7.2 -5.5,-16.1c0,-8.9 2.5,-16.1 5.5,-16.1c3,0 5.5,7.2 5.5,16.1c0,8.9 -2.5,16.1 -5.5,16.1z" id="svg_83"/>
    <path class="st1" d="m286.7,201.8c3.8,0 6,-8.5 6,-16.6c0,-8.2 -2.2,-16.6 -6,-16.6c-3.8,0 -6,8.5 -6,16.6c0,8.2 2.2,16.6 6,16.6zm0,-32.2c2.3,0 5,6.4 5,15.6c0,9.2 -2.6,15.6 -5,15.6c-2.4,0 -5,-6.4 -5,-15.6c0,-9.2 2.6,-15.6 5,-15.6z" id="svg_84"/>
   </g>
  </g>
 </g>
</svg>