<?xml version="1.0" encoding="utf-8"?>
<!-- Generator: Adobe Illustrator 23.0.0, SVG Export Plug-In . SVG Version: 6.00 Build 0)  -->
<svg version="1.1" id="Слой_1" xmlns="http://www.w3.org/2000/svg" xmlns:xlink="http://www.w3.org/1999/xlink" x="0px" y="0px"
	 viewBox="0 0 386.4 262.6" style="enable-background:new 0 0 386.4 262.6;" xml:space="preserve">
<style type="text/css">
	.st0{fill:#FFFFFF;}
	.st1{fill:#2F3339;}
	.st2{fill:none;stroke:#2F3339;stroke-width:3;stroke-miterlimit:10;}
	.st3{fill:#2F3339;stroke:#2F3339;stroke-width:2.9;stroke-linecap:round;stroke-linejoin:round;stroke-miterlimit:10;}
	.st4{fill:#FFFFFF;stroke:#FFFFFF;stroke-width:2;stroke-miterlimit:10;}
	.st5{clip-path:url(#SVGID_2_);}
	.st6{fill:#1D1D1B;}
	.st7{fill:#2F2FC0;}
	.st8{fill:none;stroke:#2F3339;stroke-width:3;stroke-linecap:round;stroke-linejoin:round;stroke-miterlimit:10;}
	.st9{fill:none;stroke:#2F2FC0;stroke-width:5;stroke-linecap:round;stroke-linejoin:round;stroke-miterlimit:10;}
	.st10{fill:none;stroke:#2F3339;stroke-width:2;stroke-linecap:round;stroke-linejoin:round;stroke-miterlimit:10;}
	.st11{fill:#2F3339;stroke:#2F3339;stroke-width:2.7116;stroke-linecap:round;stroke-linejoin:round;stroke-miterlimit:10;}
	.st12{fill:#FFFFFF;stroke:#FFFFFF;stroke-width:1.8311;stroke-miterlimit:10;}
	.st13{clip-path:url(#SVGID_4_);}
	.st14{fill:none;stroke:#2F2FC0;stroke-width:4.5779;stroke-linecap:round;stroke-linejoin:round;stroke-miterlimit:10;}
	.st15{fill:#2F3339;stroke:#2F3339;stroke-width:2.8083;stroke-linecap:round;stroke-linejoin:round;stroke-miterlimit:10;}
	.st16{fill:#FFFFFF;stroke:#FFFFFF;stroke-width:1.8964;stroke-miterlimit:10;}
	.st17{clip-path:url(#SVGID_6_);}
	.st18{fill:none;stroke:#2F2FC0;stroke-width:4.7411;stroke-linecap:round;stroke-linejoin:round;stroke-miterlimit:10;}
	.st19{fill:#2F3339;stroke:#2F3339;stroke-width:2.3651;stroke-linecap:round;stroke-linejoin:round;stroke-miterlimit:10;}
	.st20{fill:#FFFFFF;stroke:#FFFFFF;stroke-width:1.9275;stroke-miterlimit:10;}
	.st21{clip-path:url(#SVGID_8_);}
	.st22{fill:none;stroke:#2F2FC0;stroke-width:4.8188;stroke-linecap:round;stroke-linejoin:round;stroke-miterlimit:10;}
</style>
<g>
	<rect x="1.2" y="0.3" class="st0" width="384" height="262.6"/>
	<g>
		<path class="st1" d="M87.5,165h6.4c2.6,0,4.7,6.2,4.7,13.8c0,7.6-2.1,13.8-4.7,13.8h-6.4c-2.6,0-4.7-6.2-4.7-13.8
			C82.8,171.2,84.9,165,87.5,165z"/>
		<path class="st1" d="M71.5,167.4h7.1c2.9,0,5.3,7,5.3,15.6c0,8.6-2.4,15.6-5.3,15.6h-7.1c-2.9,0-5.3-7-5.3-15.6
			C66.2,174.4,68.6,167.4,71.5,167.4z"/>
		<path class="st0" d="M78.6,198.3c-2.9,0-5.3-6.9-5.3-15.5c0-8.6,2.4-15.5,5.3-15.5c2.9,0,5.3,6.9,5.3,15.5
			C83.9,191.3,81.6,198.3,78.6,198.3z"/>
		<path class="st1" d="M149.4,165.4h6.1c2.5,0,4.5,5.8,4.5,13s-2,13-4.5,13h-6.1c-2.5,0-4.5-5.8-4.5-13S146.9,165.4,149.4,165.4z"/>
		<path class="st0" d="M155.6,191.3c-2.5,0-4.5-5.9-4.5-13.1c0-7.2,2-13.1,4.5-13.1c2.5,0,4.5,5.9,4.5,13.1
			C160.1,185.5,158.1,191.3,155.6,191.3z"/>
		<path class="st1" d="M137.9,166.2h6.1c2.5,0,4.5,5.8,4.5,13c0,7.2-2,13-4.5,13h-6.1c-2.5,0-4.5-5.8-4.5-13
			C133.3,172,135.4,166.2,137.9,166.2z"/>
		<path class="st0" d="M144,192.1c-2.5,0-4.5-5.9-4.5-13.1s2-13.1,4.5-13.1c2.5,0,4.5,5.9,4.5,13.1S146.5,192.1,144,192.1z"/>
		<path class="st1" d="M125.8,166.2h6.4c2.6,0,4.7,6.2,4.7,13.8c0,7.6-2.1,13.8-4.7,13.8h-6.4c-2.6,0-4.7-6.2-4.7-13.8
			S123.2,166.2,125.8,166.2z"/>
		<path class="st0" d="M132.1,193.6c-2.6,0-4.7-6.2-4.7-13.8c0-7.6,2.1-13.8,4.7-13.8c2.6,0,4.7,6.2,4.7,13.8
			C136.8,187.4,134.7,193.6,132.1,193.6z"/>
		<path class="st0" d="M150.5,190.3v-60.6L352,140.4v46.2L150.5,190.3z"/>
		<path class="st1" d="M143,174.9h8.6c3.5,0,6.4,8.5,6.4,19c0,10.5-2.9,19-6.4,19H143c-3.5,0-6.4-8.5-6.4-19
			C136.6,183.4,139.5,174.9,143,174.9z"/>
		<path class="st0" d="M151.6,211.9c-3.5,0-6.3-8.3-6.3-18.6c0-10.3,2.8-18.6,6.3-18.6c3.5,0,6.3,8.3,6.3,18.6
			C157.9,203.5,155.1,211.9,151.6,211.9z"/>
		<path class="st1" d="M151.6,212.4c3.8,0,6.9-8.4,6.9-19.1s-3-19.1-6.9-19.1c-3.8,0-6.9,8.4-6.9,19.1S147.8,212.4,151.6,212.4z
			 M151.6,175.2c2.8,0,5.8,7.3,5.8,18.1c0,10.8-3,18.1-5.8,18.1c-2.8,0-5.8-7.3-5.8-18.1C145.8,182.4,148.8,175.2,151.6,175.2z"/>
		<path class="st1" d="M73.2,174.1h8.5c3.5,0,6.3,8.7,6.3,19.4c0,10.7-2.8,19.4-6.3,19.4h-8.5c-3.5,0-6.3-8.7-6.3-19.4
			C66.9,182.8,69.7,174.1,73.2,174.1z"/>
		<path class="st0" d="M81.8,211.3c-3.5,0-6.4-8.4-6.4-18.8c0-10.4,2.9-18.8,6.4-18.8s6.4,8.4,6.4,18.8
			C88.2,202.9,85.3,211.3,81.8,211.3z"/>
		<path class="st1" d="M81.8,211.8c3.9,0,6.9-8.5,6.9-19.3c0-10.8-3-19.3-6.9-19.3c-3.9,0-6.9,8.5-6.9,19.3
			C74.9,203.3,77.9,211.8,81.8,211.8z M81.8,174.3c2.8,0,5.9,7.3,5.9,18.2c0,10.9-3,18.2-5.9,18.2c-2.8,0-5.9-7.3-5.9-18.2
			C75.9,181.6,78.9,174.3,81.8,174.3z"/>
		<path class="st0" d="M169.9,61l0.3,95.4l-2.9,3c-0.5,0.6-1,1.2-1.2,2c-0.3,0.8-0.4,1.6-0.4,2.5l1.2,34.4c0,0.3,0,0.7-0.1,1
			c-0.1,0.3-0.2,0.6-0.4,0.9c-0.2,0.3-0.4,0.5-0.7,0.6c-0.3,0.1-0.5,0.2-0.8,0.2c-0.9,0-4.2,0.1-4.2,0c0-21.5-0.9-39.1-5.1-39.1
			c-4.2,0-7.7,17.4-7.7,38.9c0,0.1-10.1,0.2-10.1,0.2V61.4L169.9,61z"/>
		<path class="st0" d="M65.5,86.5h71.6V201H59.5c-1.1,0-2.2-0.5-3-1.3c-0.8-0.8-1.2-1.9-1.2-3v-36.7c0-10.2,0.9-20.4,2.7-30.4
			L65.5,86.5z"/>
		<path class="st1" d="M67.1,140.9H127c1.2,0,2.4-0.4,3.2-1.1c0.9-0.7,1.4-1.7,1.4-2.7V128c0-0.1-0.1-0.2-0.1-0.3
			c-0.1-0.1-0.2-0.1-0.4-0.1h-28.5c-2.3,0-4.5,0.4-6.6,1.1c-2.1,0.7-4,1.8-5.6,3.1c-1.5,1.3-3.3,2.3-5.2,2.9c-2,0.7-4.1,1-6.2,1.1
			H63.1c-0.1,0-0.2,0-0.3,0.1c-0.1,0.1-0.1,0.1-0.2,0.2l-0.1,0.4c-0.1,0.5-0.1,1.1,0.1,1.6c0.2,0.5,0.5,1,0.9,1.5
			c0.4,0.4,1,0.8,1.6,1C65.7,140.8,66.4,140.9,67.1,140.9L67.1,140.9z"/>
		<path class="st1" d="M145,137.4c0,0,0,0,0.4,0c0.5-0.1,4.6-4.2,4.6-4.2s1.8-1.5,2.7-2.6c0.9-1.1,1.4-2.4,1.4-3.8v-20.2
			c0-0.8-0.3-1.5-0.9-2.1c-0.6-0.6-0.6-0.9-2.1-0.9c-1.5,0-5.5,1.9-5.5,1.9s-1.5,0.6-2.2,1.2c-0.6,0.6-1,1.5-1,2.4v25.6
			c0,0.7,0.3,1.3,0.7,1.8S144.3,137.4,145,137.4z M149.5,132.2l-4.2,4.2c-0.2,0-0.4,0-0.7,0c-0.2-0.1-0.4-0.2-0.6-0.3
			c-0.2-0.1-0.3-0.3-0.4-0.5c-0.1-0.2-0.1-0.4-0.1-0.6v-25.6c0-0.6,0.2-1.2,0.7-1.7c0.4-0.4,0.9-0.7,1.6-0.9c0,0,4.6-1.8,5.3-1.8
			c0.7,0,1,0.2,1.3,0.6c0.4,0.4,0.6,0.8,0.6,1.3v20.2c0,1.1-0.4,2.2-1.1,3.1C151.1,130.8,149.5,132.2,149.5,132.2z"/>
		<path class="st0" d="M79.1,62c0,0,3.5-1.4,6.7-1.4h71.1c1.9,0,3.7,0.6,5.2,1.6l-24.9,24.7L65.5,87l6.7-17.7l3.6-5L79.1,62z"/>
		<path class="st8" d="M128.3,93.5c1.3,0,2.6,0.5,3.5,1.5c0.9,0.9,1.4,2.2,1.4,3.5l-1.3,37.8c0,1-0.4,2-1.1,2.7
			c-0.7,0.7-1.7,1.1-2.6,1.1H66.2c-0.5,0-1.1-0.1-1.6-0.4c-0.5-0.2-0.9-0.6-1.3-1c-0.4-0.4-0.6-0.9-0.8-1.5
			c-0.1-0.5-0.2-1.1-0.1-1.6L69.5,97c0.2-1.1,0.8-2.2,1.7-2.9c0.9-0.7,2-1.2,3.2-1.2L128.3,93.5z"/>
		<path class="st1" d="M154.2,105.7h-2.1c-0.6,0-1.1,0.2-1.5,0.5c-0.4,0.3-0.6,0.7-0.6,1.2v21.4c0,0.4,0.2,0.8,0.6,1.1
			c0.4,0.3,0.9,0.5,1.5,0.5h0.7c1.6,0,3.1-0.5,4.2-1.4c1.1-0.9,1.7-2.1,1.7-3.3v-16.4c0.1-3.2-0.5-3.5-0.5-3.5
			C157.2,105.6,154.8,105.7,154.2,105.7z"/>
		<path class="st1" d="M53,105H55c0.6,0,1.1,0.2,1.5,0.5c0.4,0.3,0.6,0.7,0.6,1.2V128c0,0.4-0.2,0.8-0.6,1.1
			c-0.4,0.3-0.9,0.5-1.5,0.5h-0.7c-1.6,0-3.1-0.5-4.2-1.4c-1.1-0.9-1.7-2.1-1.7-3.3v-16.4c-0.1-3.2,0.5-3.5,0.5-3.5
			C49.9,104.8,52.4,105,53,105z"/>
		<g>
			<path class="st1" d="M107.9,190.9c-0.6-0.4-1.2-0.6-1.8-0.6H82.5c-0.6,0-1.3,0.2-1.8,0.6c-0.6,0.4-1,1-1.3,1.7l-0.5,2.2
				c-0.1,0.3-0.2,0.6-0.2,0.9c0,0.3,0.1,0.6,0.2,0.9c0.1,0.3,0.3,0.5,0.5,0.6c0.2,0.1,0.4,0.2,0.7,0.2h28.2c0.2,0,0.5-0.1,0.7-0.2
				c0.2-0.1,0.4-0.4,0.5-0.6c0.1-0.3,0.2-0.6,0.2-0.9c0-0.1-0.3-2.9-0.4-3.1C109.1,192.4,108.5,191.3,107.9,190.9z M80.6,192.4
				C80.6,192.5,80.6,192.5,80.6,192.4l27.4,0c0,0,0,0,0.1,0c0.2,0.2,0.3,0.5,0.4,0.8l0.2,2H79.7l0.4-2
				C80.2,192.9,80.4,192.7,80.6,192.4z"/>
			<path class="st1" d="M109.6,195.7C109.6,195.9,109.6,195.4,109.6,195.7L109.6,195.7z"/>
		</g>
		<path class="st11" d="M128.3,146.8l-10.9,1.7H74l-12.1-1.7v6.8l10.9,24l2.5,8.8h38.8l2.8-9.1l11-23.7L128.3,146.8z"/>
		<path class="st1" d="M61.1,186.4H68c0.2,0,0.5-0.1,0.7-0.2c0.2-0.1,0.4-0.3,0.5-0.6c0.1-0.3,0.2-0.5,0.3-0.9c0-0.3,0-0.6-0.1-0.9
			l-0.6-2.1c-0.3-1.2-0.9-2.2-1.7-3c-0.8-0.7-1.8-1.1-2.7-1.1H59c0,0-0.1,0-0.1,0c0,0-0.1,0.1-0.1,0.1c0,0-0.1,0.1-0.1,0.1
			c0,0.1,0,0.1,0,0.2v5c0,0.9,0.3,1.7,0.7,2.3C59.8,186.1,60.5,186.4,61.1,186.4z M64.4,178.6c0.8,0,1.6,0.3,2.3,1
			c0.7,0.6,1.2,1.5,1.5,2.5l0.6,2.1c0,0.2,0.1,0.3,0,0.5c0,0.2-0.1,0.3-0.1,0.5c-0.1,0.1-0.2,0.2-0.3,0.3c-0.1,0.1-0.2,0.1-0.4,0.1
			h-6.9c-0.5,0-0.9-0.3-1.3-0.7c-0.3-0.4-0.5-1-0.5-1.6v-4.6H64.4z"/>
		<path class="st1" d="M130,186.4h-8.3c-0.3,0-0.6-0.1-0.8-0.2c-0.3-0.1-0.5-0.3-0.6-0.6c-0.2-0.3-0.3-0.5-0.3-0.9
			c0-0.3,0-0.6,0.1-0.9l0.7-2.1c0.4-1.2,1.1-2.2,2.1-3c1-0.7,2.1-1.1,3.3-1.1h6.5c0.1,0,0.1,0,0.2,0c0.1,0,0.1,0.1,0.1,0.1
			c0,0,0.1,0.1,0.1,0.1c0,0.1,0,0.1,0,0.2v5c0,0.9-0.3,1.7-0.9,2.3C131.6,186.1,130.8,186.4,130,186.4z M126.1,178.6
			c-1,0-2,0.3-2.8,1c-0.8,0.6-1.4,1.5-1.8,2.5l-0.7,2.1c-0.1,0.2-0.1,0.3,0,0.5c0,0.2,0.1,0.3,0.2,0.5c0.1,0.1,0.2,0.2,0.3,0.3
			c0.1,0.1,0.3,0.1,0.4,0.1h8.3c0.6,0,1.1-0.3,1.5-0.7c0.4-0.4,0.6-1,0.6-1.6v-4.6H126.1z"/>
		<path class="st12" d="M68.9,154.5h51.8c0.1,0,0.2-0.1,0.3-0.2c0.1-0.1,0.1-0.2,0.1-0.4c0-0.1-0.1-0.3-0.1-0.4
			c-0.1-0.1-0.2-0.2-0.3-0.2H68.9c-0.1,0-0.2,0.1-0.3,0.2c-0.1,0.1-0.1,0.2-0.1,0.4c0,0.1,0.1,0.3,0.1,0.4
			C68.7,154.5,68.8,154.5,68.9,154.5z"/>
		<path class="st12" d="M73.2,159.4h43.2c0.1,0,0.2-0.1,0.3-0.2c0.1-0.1,0.1-0.2,0.1-0.4c0-0.1,0-0.3-0.1-0.4
			c-0.1-0.1-0.2-0.2-0.3-0.2H73.2c-0.1,0-0.2,0.1-0.3,0.2c-0.1,0.1-0.1,0.2-0.1,0.4c0,0.1,0,0.3,0.1,0.4
			C73,159.4,73.1,159.4,73.2,159.4z"/>
		<path class="st12" d="M74.7,164.3h39.9c0.1,0,0.2-0.1,0.3-0.2c0.1-0.1,0.1-0.2,0.1-0.4s0-0.3-0.1-0.4c-0.1-0.1-0.2-0.2-0.3-0.2
			H74.7c-0.1,0-0.2,0.1-0.3,0.2c-0.1,0.1-0.1,0.2-0.1,0.4s0,0.3,0.1,0.4C74.5,164.3,74.6,164.3,74.7,164.3z"/>
		<path class="st12" d="M75.5,174.1h38.4c0.1,0,0.2-0.1,0.3-0.2c0.1-0.1,0.1-0.2,0.1-0.4c0-0.1,0-0.3-0.1-0.4
			c-0.1-0.1-0.2-0.2-0.3-0.2H75.5c-0.1,0-0.2,0.1-0.3,0.2c-0.1,0.1-0.1,0.2-0.1,0.4c0,0.1,0,0.3,0.1,0.4
			C75.3,174,75.4,174.1,75.5,174.1z"/>
		<path class="st12" d="M74.7,169.2h39.9c0.1,0,0.2-0.1,0.3-0.2c0.1-0.1,0.1-0.2,0.1-0.4c0-0.1,0-0.3-0.1-0.4
			c-0.1-0.1-0.2-0.2-0.3-0.2H74.7c-0.1,0-0.2,0.1-0.3,0.2c-0.1,0.1-0.1,0.2-0.1,0.4c0,0.1,0,0.3,0.1,0.4
			C74.5,169.1,74.6,169.2,74.7,169.2z"/>
		<path class="st12" d="M77.8,179h34.1c0.1,0,0.2-0.1,0.2-0.2c0.1-0.1,0.1-0.2,0.1-0.4c0-0.1,0-0.3-0.1-0.4
			c-0.1-0.1-0.1-0.2-0.2-0.2H77.8c-0.1,0-0.2,0.1-0.2,0.2c-0.1,0.1-0.1,0.2-0.1,0.4c0,0.1,0,0.3,0.1,0.4
			C77.6,178.9,77.7,179,77.8,179z"/>
		<g>
			<defs>
				
					<rect id="SVGID_3_" x="98.2" y="61.4" transform="matrix(1.110317e-02 -0.9999 0.9999 1.110317e-02 24.8058 178.7388)" width="9.1" height="30.8"/>
			</defs>
			<clipPath id="SVGID_2_">
				<use xlink:href="#SVGID_3_"  style="overflow:visible;"/>
			</clipPath>
			<g class="st5">
				<path class="st6" d="M90,75.9c0.5,0,1,0.1,1.4,0.4c0.4,0.3,0.7,0.6,0.9,1.1l-1,0.4c-0.1-0.2-0.3-0.4-0.5-0.6
					c-0.2-0.1-0.5-0.2-0.8-0.2c-0.2,0-0.4,0-0.6,0.1c-0.2,0.1-0.4,0.2-0.5,0.3c-0.3,0.3-0.4,0.7-0.4,1.1c0,0.4,0.1,0.8,0.4,1.2
					c0.1,0.2,0.3,0.3,0.5,0.4c0.2,0.1,0.4,0.1,0.6,0.1c0.3,0,0.6-0.1,0.8-0.2c0.2-0.1,0.4-0.3,0.6-0.6l1,0.4c-0.2,0.4-0.6,0.8-1,1.1
					c-0.4,0.3-0.9,0.4-1.4,0.4c-0.8,0-1.4-0.3-1.9-0.8c-0.5-0.5-0.7-1.2-0.7-1.9c0-0.7,0.3-1.4,0.8-1.9c0.3-0.2,0.6-0.4,0.9-0.6
					C89.3,75.9,89.7,75.8,90,75.9z"/>
				<path class="st6" d="M93.6,81.1l-1.1,0l2.2-5.1l0.9,0l2.1,5.2l-1.1,0l-0.4-0.9l-2.2,0L93.6,81.1z M95.8,79.3l-0.7-1.7l-0.7,1.7
					L95.8,79.3z"/>
				<path class="st6" d="M98.1,76l2.4,0c0.2,0,0.5,0,0.7,0.1c0.2,0.1,0.4,0.2,0.6,0.4c0.2,0.2,0.3,0.3,0.4,0.6
					c0.1,0.2,0.1,0.4,0.1,0.7c0,0.3-0.1,0.6-0.3,0.9c-0.2,0.3-0.4,0.5-0.7,0.6l1.1,1.9l-1.2,0l-1-1.7l-1.1,0l0,1.7l-1.1,0L98.1,76z
					 M100.5,77.1l-1.3,0l0,1.4l1.3,0c0.1,0,0.2,0,0.3,0c0.1,0,0.2-0.1,0.2-0.2c0.1-0.1,0.1-0.1,0.2-0.2c0-0.1,0.1-0.2,0-0.3
					c0-0.1,0-0.2,0-0.3c0-0.1-0.1-0.2-0.1-0.2c-0.1-0.1-0.1-0.1-0.2-0.2C100.7,77.1,100.6,77.1,100.5,77.1L100.5,77.1z"/>
				<path class="st7" d="M106.2,77.3c0.2,0.2,0.4,0.4,0.5,0.7c0.1,0.2,0.1,0.4,0.1,0.6c0,0.2,0,0.4-0.1,0.6
					c-0.1,0.2-0.2,0.4-0.4,0.5c-0.2,0.1-0.3,0.3-0.5,0.3c-0.4,0.2-0.8,0.2-1.2,0c-0.2-0.1-0.4-0.2-0.5-0.3c-0.1-0.1-0.3-0.3-0.3-0.5
					c-0.1-0.3-0.1-0.6-0.1-0.9c0.1-0.3,0.2-0.6,0.5-0.8l0.6,1.5l0.9-0.3l-1-2.6c0,0-0.1,0-0.1,0c-0.1,0-0.1,0-0.1,0
					c-0.7,0.3-1.2,0.8-1.5,1.4c-0.2,0.5-0.3,1-0.2,1.6c0.1,0.5,0.3,1,0.7,1.4c0.4,0.4,0.8,0.6,1.3,0.8c0.5,0.1,1,0.1,1.5-0.1
					c0.3-0.1,0.6-0.3,0.9-0.6c0.3-0.2,0.4-0.5,0.6-0.9c0.3-0.7,0.3-1.4,0-2.1c-0.1,0-0.1,0-0.2,0C107,77.6,106.6,77.5,106.2,77.3z"
					/>
				<path class="st7" d="M106.5,76.3c0.1,0.1,0.1,0.1,0.2,0.1c0,0-0.1,0-0.1-0.1C106.6,76.3,106.5,76.3,106.5,76.3z"/>
				<path class="st7" d="M110.1,75c0-0.4-0.1-0.7-0.2-1c-0.1-0.3-0.3-0.6-0.6-0.9c-0.2-0.3-0.5-0.4-0.9-0.6c-0.3-0.1-0.7-0.2-1-0.2
					c-0.4,0-0.7,0-1,0.2c-0.3,0.1-0.6,0.3-0.9,0.6c-0.5,0.5-0.8,1.2-0.8,1.9c0,0.7,0.3,1.4,0.7,1.9c0.2,0.2,0.4,0.3,0.6,0.5
					c-0.2-0.2-0.8-1.4-0.8-1.4c0.4,0,0.8,0.2,1.1,0.4c-0.1,0-0.1-0.1-0.2-0.1c-0.3-0.3-0.4-0.7-0.4-1.2c0-0.4,0.2-0.8,0.4-1.1
					c0.1-0.1,0.3-0.3,0.5-0.3c0.2-0.1,0.4-0.1,0.6-0.1c0.2,0,0.4,0,0.6,0.1c0.2,0.1,0.4,0.2,0.5,0.3c0.3,0.3,0.4,0.7,0.4,1.2
					c0,0.4-0.2,0.8-0.5,1.1c-0.1,0.1-0.3,0.3-0.5,0.3c-0.2,0.1-0.4,0.1-0.6,0.1c-0.3,0-0.5-0.1-0.7-0.2l0,0c0.4,0.3,0.7,0.7,0.9,1.2
					c0.7,0,1.3-0.3,1.8-0.8S110.1,75.7,110.1,75L110.1,75z"/>
				<path class="st7" d="M106.7,76.4L106.7,76.4c-0.1-0.1-0.2-0.1-0.2-0.2c-0.3-0.2-0.7-0.3-1.1-0.4c0,0,0.5,1.2,0.8,1.4
					c0.4,0.2,0.8,0.3,1.3,0.3c0.1,0,0.1,0,0.2,0C107.4,77.2,107.1,76.7,106.7,76.4z"/>
				<path class="st6" d="M110,76.2l3.8,0l-0.4,1l-2.2,0l0,1.1l2.3,0l0,1l-2.3,0l0,2.1l-1.1,0L110,76.2z"/>
				<path class="st6" d="M114.4,76.2l3.8,0l-0.4,1l-2.2,0l0,1.1l2.3,0l0,1l-2.3,0l0,2.1l-1.1,0L114.4,76.2z"/>
			</g>
		</g>
		<polyline class="st8" points="352,129.6 352,165.4 182.1,164.5 182.1,105.7 170.1,104.7 		"/>
		<polyline class="st8" points="334.4,167.3 334.2,186.4 330.3,186.6 		"/>
		<path class="st8" d="M84,86.6l53.7,0.8l32.2-0.3l-1.5-13.4c0,0-0.9-13.2-11.4-13.2c-14.1,0-71.1-0.5-71.1-0.5s-8.5,3.2-12.4,9.7
			c-3.7,6.2-7.2,16.7-7.2,16.7"/>
		<line class="st8" x1="169.9" y1="87.1" x2="169.7" y2="164.3"/>
		<line class="st8" x1="167" y1="191.4" x2="229.8" y2="190.3"/>
		<path class="st8" d="M66.1,86.3l-10.9,56.9v49.9c0,0,1.4,6.6,5.1,7.3c3.7,0.7,76.8,0.5,76.8,0.5l3.7-114.3c0,0,4-21.8,17.9-25.7"
			/>
		<path class="st1" d="M59.3,188.5h10.2c0,0,0,2.4-1.4,2.9c-1.4,0.6-8.4,1-8.6,0.3S59.3,188.5,59.3,188.5z"/>
		<path class="st1" d="M120.2,188.5l12.6,0c0,0,0.1,2.4-1.7,2.9c-1.7,0.6-10.3,1.1-10.6,0.4C120.2,191,120.2,188.5,120.2,188.5z"/>
		<line class="st8" x1="182.1" y1="133.4" x2="352" y2="136.8"/>
		<path class="st1" d="M210.3,169.6h8.4c3.4,0,6.2,8.5,6.2,18.9c0,10.4-2.8,18.9-6.2,18.9h-8.4c-3.4,0-6.2-8.5-6.2-18.9
			C204.1,178.1,206.8,169.6,210.3,169.6z"/>
		<path class="st0" d="M218.6,206.2c-3.4,0-6.2-8.1-6.2-18.1s2.8-18.1,6.2-18.1c3.4,0,6.2,8.1,6.2,18.1S222,206.2,218.6,206.2z"/>
		<path class="st1" d="M218.6,206.7c3.7,0,6.7-8.2,6.7-18.6s-2.9-18.6-6.7-18.6c-3.7,0-6.7,8.2-6.7,18.6S214.9,206.7,218.6,206.7z
			 M218.6,170.6c2.7,0,5.7,7.1,5.7,17.6c0,10.5-2.9,17.6-5.7,17.6c-2.7,0-5.7-7.1-5.7-17.6C213,177.6,215.9,170.6,218.6,170.6z"/>
		<path class="st1" d="M191.3,170.2h8.4c3.4,0,6.2,8.5,6.2,18.9c0,10.4-2.8,18.9-6.2,18.9h-8.4c-3.4,0-6.2-8.5-6.2-18.9
			C185.1,178.7,187.9,170.2,191.3,170.2z"/>
		<path class="st0" d="M199.7,206.9c-3.4,0-6.2-8.1-6.2-18.1s2.8-18.1,6.2-18.1c3.4,0,6.2,8.1,6.2,18.1S203.1,206.9,199.7,206.9z"/>
		<path class="st1" d="M199.7,207.4c3.7,0,6.7-8.2,6.7-18.6s-2.9-18.6-6.7-18.6c-3.7,0-6.7,8.2-6.7,18.6S196,207.4,199.7,207.4z
			 M199.7,171.2c2.7,0,5.7,7.1,5.7,17.6c0,10.5-2.9,17.6-5.7,17.6c-2.7,0-5.7-7.1-5.7-17.6C194.1,178.3,197,171.2,199.7,171.2z"/>
		<line class="st8" x1="274.5" y1="131" x2="274.5" y2="163.3"/>
		<line class="st8" x1="230.2" y1="130.4" x2="230.2" y2="163.3"/>
		<line class="st8" x1="169.7" y1="131.9" x2="182.1" y2="133.4"/>
		<line class="st8" x1="316.5" y1="131.4" x2="316.5" y2="163.6"/>
		<path class="st8" d="M182.1,164.5l-12.4-0.2c-2.7,1.7-4.1,6.6-4.1,6.6l-0.1,30l-3.8,0.1c0,0,0.5-22.5-3.3-29.3
			c-3.8-6.8-7.2,1.3-8.7,8c-1.5,6.7-2.5,21.1-2.5,21.1l-10.1,0.2"/>
		<polyline class="st8" points="352,165.4 352,186.6 334.2,185.2 		"/>
		<polyline class="st8" points="231.8,164.3 231.5,192.2 227.6,192.4 		"/>
		<path class="st8" d="M227.6,192.4c0,0,1-25.4-6.2-26.7"/>
		<path class="st8" d="M264.5,186.6h65.8c0,0,1-20.1-6.2-21.2"/>
		<path class="st1" d="M314.5,168.5h7.2c2.9,0,5.3,7.1,5.3,16.1c0,8.9-2.4,16.1-5.3,16.1h-7.2c-2.9,0-5.3-7.1-5.3-16.1
			C309.2,175.6,311.6,168.5,314.5,168.5z"/>
		<path class="st0" d="M321.8,199.6c-2.9,0-5.3-6.9-5.3-15.3c0-8.5,2.4-15.3,5.3-15.3c2.9,0,5.3,6.9,5.3,15.3
			C327.1,192.8,324.7,199.6,321.8,199.6z"/>
		<path class="st1" d="M321.8,200.2c3.6,0,5.8-8,5.8-15.8c0-7.8-2.2-15.8-5.8-15.8c-3.6,0-5.8,8-5.8,15.8
			C316,192.1,318.1,200.2,321.8,200.2z M321.8,169.5c2.3,0,4.8,6.1,4.8,14.8c0,8.7-2.5,14.8-4.8,14.8c-2.3,0-4.8-6.1-4.8-14.8
			C317,175.6,319.5,169.5,321.8,169.5z"/>
		<path class="st1" d="M297.3,168.5h7.2c2.9,0,5.3,7.2,5.3,16.2s-2.4,16.2-5.3,16.2h-7.2c-2.9,0-5.3-7.2-5.3-16.2
			C292,175.7,294.4,168.5,297.3,168.5z"/>
		<path class="st0" d="M304.4,199.6c-2.9,0-5.3-6.9-5.3-15.3c0-8.5,2.4-15.3,5.3-15.3c2.9,0,5.3,6.9,5.3,15.3
			C309.7,192.7,307.3,199.6,304.4,199.6z"/>
		<path class="st1" d="M304.4,200.1c3.6,0,5.8-8,5.8-15.8s-2.2-15.8-5.8-15.8c-3.6,0-5.8,8-5.8,15.8S300.8,200.1,304.4,200.1z
			 M304.4,169.5c2.3,0,4.8,6.1,4.8,14.8s-2.5,14.8-4.8,14.8c-2.3,0-4.8-6.1-4.8-14.8S302.1,169.5,304.4,169.5z"/>
		<path class="st1" d="M279.2,168h7.5c3.1,0,5.5,7.7,5.5,17.1c0,9.4-2.5,17.1-5.5,17.1h-7.5c-3.1,0-5.5-7.7-5.5-17.1
			S276.2,168,279.2,168z"/>
		<path class="st0" d="M286.7,201.3c-3,0-5.5-7.2-5.5-16.1c0-8.9,2.5-16.1,5.5-16.1c3,0,5.5,7.2,5.5,16.1
			C292.2,194.1,289.7,201.3,286.7,201.3z"/>
		<path class="st1" d="M286.7,201.8c3.8,0,6-8.5,6-16.6c0-8.2-2.2-16.6-6-16.6c-3.8,0-6,8.5-6,16.6
			C280.7,193.4,282.9,201.8,286.7,201.8z M286.7,169.6c2.3,0,5,6.4,5,15.6c0,9.2-2.6,15.6-5,15.6c-2.4,0-5-6.4-5-15.6
			C281.7,176,284.3,169.6,286.7,169.6z"/>
	</g>
</g>
</svg>
