<?xml version="1.0" encoding="utf-8"?>
<!-- Generator: Adobe Illustrator 23.0.0, SVG Export Plug-In . SVG Version: 6.00 Build 0)  -->
<svg version="1.1" id="Слой_1" xmlns="http://www.w3.org/2000/svg" xmlns:xlink="http://www.w3.org/1999/xlink" x="0px" y="0px"
	 viewBox="0 0 384 262.6" style="enable-background:new 0 0 384 262.6;" xml:space="preserve">
<style type="text/css">
	.st0{fill:#FFFFFF;}
	.st1{fill:#2F3339;}
	.st2{fill:none;stroke:#2F3339;stroke-width:3;stroke-miterlimit:10;}
	.st3{fill:#2F3339;stroke:#2F3339;stroke-width:2.9;stroke-linecap:round;stroke-linejoin:round;stroke-miterlimit:10;}
	.st4{fill:#FFFFFF;stroke:#FFFFFF;stroke-width:2;stroke-miterlimit:10;}
	.st5{clip-path:url(#SVGID_2_);}
	.st6{fill:#1D1D1B;}
	.st7{fill:#2F2FC0;}
	.st8{fill:none;stroke:#2F3339;stroke-width:3;stroke-linecap:round;stroke-linejoin:round;stroke-miterlimit:10;}
	.st9{fill:none;stroke:#2F2FC0;stroke-width:5;stroke-linecap:round;stroke-linejoin:round;stroke-miterlimit:10;}
	.st10{fill:none;stroke:#2F3339;stroke-width:2;stroke-linecap:round;stroke-linejoin:round;stroke-miterlimit:10;}
	.st11{fill:#2F3339;stroke:#2F3339;stroke-width:2.7116;stroke-linecap:round;stroke-linejoin:round;stroke-miterlimit:10;}
	.st12{fill:#FFFFFF;stroke:#FFFFFF;stroke-width:1.8311;stroke-miterlimit:10;}
	.st13{clip-path:url(#SVGID_4_);}
	.st14{fill:none;stroke:#2F2FC0;stroke-width:4.5779;stroke-linecap:round;stroke-linejoin:round;stroke-miterlimit:10;}
	.st15{fill:#2F3339;stroke:#2F3339;stroke-width:2.8083;stroke-linecap:round;stroke-linejoin:round;stroke-miterlimit:10;}
	.st16{fill:#FFFFFF;stroke:#FFFFFF;stroke-width:1.8964;stroke-miterlimit:10;}
	.st17{clip-path:url(#SVGID_6_);}
	.st18{fill:none;stroke:#2F2FC0;stroke-width:4.7411;stroke-linecap:round;stroke-linejoin:round;stroke-miterlimit:10;}
	.st19{fill:#2F3339;stroke:#2F3339;stroke-width:2.3651;stroke-linecap:round;stroke-linejoin:round;stroke-miterlimit:10;}
	.st20{fill:#FFFFFF;stroke:#FFFFFF;stroke-width:1.9275;stroke-miterlimit:10;}
	.st21{clip-path:url(#SVGID_8_);}
	.st22{fill:none;stroke:#2F2FC0;stroke-width:4.8188;stroke-linecap:round;stroke-linejoin:round;stroke-miterlimit:10;}
</style>
<g>
	<rect class="st0" width="384" height="262.6"/>
	<polygon class="st0" points="190.3,40 332.5,57.2 332.5,161 190.3,160.6 	"/>
	<path class="st1" d="M94.3,161.1h6.9c2.8,0,5.1,6.8,5.1,15.1c0,8.3-2.3,15.1-5.1,15.1h-6.9c-2.8,0-5.1-6.8-5.1-15.1
		C89.2,167.9,91.5,161.1,94.3,161.1z"/>
	<path class="st1" d="M76.8,163.7h7.8c3.2,0,5.8,7.7,5.8,17c0,9.3-2.6,17-5.8,17h-7.8c-3.2,0-5.8-7.7-5.8-17
		C71,171.3,73.6,163.7,76.8,163.7z"/>
	<path class="st0" d="M84.6,197.4c-3.2,0-5.8-7.6-5.8-16.9c0-9.3,2.6-16.9,5.8-16.9s5.8,7.6,5.8,16.9
		C90.3,189.8,87.8,197.4,84.6,197.4z"/>
	<path class="st1" d="M161.9,161.6h6.7c2.7,0,4.9,6.3,4.9,14.2c0,7.9-2.2,14.2-4.9,14.2h-6.7c-2.7,0-4.9-6.3-4.9-14.2
		C157,167.9,159.2,161.6,161.9,161.6z"/>
	<path class="st0" d="M168.6,189.9c-2.7,0-4.9-6.4-4.9-14.3s2.2-14.3,4.9-14.3c2.7,0,4.9,6.4,4.9,14.3S171.3,189.9,168.6,189.9z"/>
	<path class="st1" d="M149.3,162.4h6.7c2.7,0,4.9,6.3,4.9,14.2c0,7.9-2.2,14.2-4.9,14.2h-6.7c-2.7,0-4.9-6.3-4.9-14.2
		C144.3,168.7,146.5,162.4,149.3,162.4z"/>
	<path class="st0" d="M155.9,190.7c-2.7,0-4.9-6.4-4.9-14.3s2.2-14.3,4.9-14.3s4.9,6.4,4.9,14.3S158.7,190.7,155.9,190.7z"/>
	<path class="st1" d="M136,162.4h6.9c2.8,0,5.1,6.8,5.1,15.1c0,8.3-2.3,15.1-5.1,15.1H136c-2.8,0-5.1-6.8-5.1-15.1
		S133.2,162.4,136,162.4z"/>
	<path class="st0" d="M143,192.3c-2.8,0-5.1-6.7-5.1-15.1s2.3-15.1,5.1-15.1c2.8,0,5.1,6.7,5.1,15.1S145.8,192.3,143,192.3z"/>
	<path class="st1" d="M226,164.5h8.1c3.3,0,6,7.9,6,17.6c0,9.7-2.7,17.6-6,17.6H226c-3.3,0-6-7.9-6-17.6
		C220.1,172.4,222.7,164.5,226,164.5z"/>
	<path class="st0" d="M163.1,190.7V72.6l162.1,20.9v90L163.1,190.7z"/>
	<path class="st0" d="M78.8,39.3h110.9v122.1H78.8V39.3z"/>
	<path class="st1" d="M154.9,171.9h9.4c3.8,0,7,9.3,7,20.8c0,11.5-3.1,20.8-7,20.8h-9.4c-3.8,0-7-9.3-7-20.8
		C147.9,181.2,151,171.9,154.9,171.9z"/>
	<path class="st0" d="M164.3,212.3c-3.8,0-6.9-9.1-6.9-20.3c0-11.2,3.1-20.3,6.9-20.3c3.8,0,6.9,9.1,6.9,20.3
		C171.2,203.2,168.1,212.3,164.3,212.3z"/>
	<path class="st1" d="M164.3,212.9c4.2,0,7.5-9.2,7.5-20.9c0-11.7-3.3-20.9-7.5-20.9c-4.2,0-7.5,9.2-7.5,20.9
		S160.1,212.9,164.3,212.9z M164.3,172.2c3.1,0,6.4,7.9,6.4,19.8s-3.3,19.8-6.4,19.8c-3.1,0-6.4-7.9-6.4-19.8
		S161.2,172.2,164.3,172.2z"/>
	<path class="st1" d="M78.6,171h9.3c3.8,0,6.9,9.5,6.9,21.2c0,11.7-3.1,21.2-6.9,21.2h-9.3c-3.8,0-6.9-9.5-6.9-21.2
		C71.8,180.5,74.8,171,78.6,171z"/>
	<path class="st0" d="M88,211.6c-3.9,0-7-9.2-7-20.5c0-11.3,3.1-20.5,7-20.5s7,9.2,7,20.5C95,202.5,91.9,211.6,88,211.6z"/>
	<path class="st1" d="M88,212.2c4.2,0,7.5-9.2,7.5-21.1c0-11.8-3.3-21.1-7.5-21.1c-4.2,0-7.5,9.2-7.5,21.1
		C80.5,202.9,83.8,212.2,88,212.2z M88,171.2c3.1,0,6.4,8,6.4,19.9c0,11.9-3.3,19.9-6.4,19.9s-6.4-8-6.4-19.9
		C81.6,179.2,84.9,171.2,88,171.2z"/>
	<path class="st0" d="M184.2,76l0.3,84.8l-3.2,2.7c-0.6,0.5-1,1.1-1.3,1.8c-0.3,0.7-0.4,1.5-0.4,2.2l1.3,30.6c0,0.3,0,0.6-0.1,0.9
		c-0.1,0.3-0.3,0.6-0.5,0.8c-0.2,0.2-0.5,0.4-0.7,0.5c-0.3,0.1-0.6,0.2-0.9,0.2c-1,0-4.5,0.1-4.5,0c0-19.1-0.9-34.8-5.6-34.8
		c-4.6,0-8.4,15.5-8.4,34.6c0,0.1-11.1,0.2-11.1,0.2V76.4L184.2,76z"/>
	<path class="st0" d="M70.2,75.4h78.2v125.1H63.6c-1.2,0-2.4-0.5-3.2-1.4c-0.9-0.9-1.3-2.1-1.3-3.3v-40.1c0-11.1,1-22.3,2.9-33.2
		L70.2,75.4z"/>
	<path class="st1" d="M71.9,134.8h65.5c1.3,0,2.6-0.4,3.5-1.2c0.9-0.8,1.5-1.8,1.5-2.9v-10.1c0-0.1-0.1-0.2-0.2-0.3
		c-0.1-0.1-0.2-0.1-0.4-0.1h-31.2c-2.5,0-4.9,0.4-7.2,1.2c-2.3,0.8-4.3,2-6.1,3.4c-1.6,1.4-3.6,2.5-5.7,3.2
		c-2.1,0.7-4.4,1.1-6.8,1.1H67.6c-0.1,0-0.2,0-0.3,0.1c-0.1,0.1-0.2,0.2-0.2,0.3L67,130c-0.1,0.6-0.1,1.2,0.1,1.8
		c0.2,0.6,0.5,1.1,1,1.6c0.5,0.5,1.1,0.8,1.7,1.1C70.5,134.7,71.2,134.8,71.9,134.8L71.9,134.8z"/>
	<path class="st1" d="M157.1,131c0,0,0,0,0.5-0.1c0.5-0.1,5-4.6,5-4.6s1.9-1.7,2.9-2.8c1-1.2,1.5-2.6,1.5-4.1V97.4
		c0-0.9-0.3-1.7-0.9-2.3c-0.6-0.6-0.7-0.9-2.3-0.9c-1.6,0-6,2-6,2s-1.7,0.6-2.4,1.3c-0.7,0.7-1.1,1.7-1.1,2.6v28
		c0,0.7,0.3,1.5,0.8,2C155.6,130.7,156.3,131,157.1,131z M162,125.2l-4.6,4.6c-0.2,0-0.5,0-0.7,0c-0.2-0.1-0.4-0.2-0.6-0.3
		c-0.2-0.2-0.3-0.4-0.4-0.6c-0.1-0.2-0.2-0.5-0.2-0.7v-28c0-0.7,0.3-1.4,0.8-1.8c0.5-0.5,1-0.7,1.7-1c0,0,5.1-2,5.8-2
		c0.8,0,1.1,0.2,1.5,0.6c0.4,0.4,0.6,0.9,0.6,1.5v22.1c0,1.2-0.4,2.4-1.2,3.4C163.8,123.8,162,125.2,162,125.2z"/>
	<path class="st2" d="M138.8,83c1.4,0,2.8,0.6,3.8,1.6c1,1,1.6,2.4,1.6,3.8l-1.4,41.3c0,1.1-0.4,2.1-1.2,2.9
		c-0.8,0.8-1.8,1.2-2.9,1.2H71c-0.6,0-1.2-0.1-1.7-0.4c-0.5-0.3-1-0.6-1.4-1.1c-0.4-0.5-0.7-1-0.8-1.6c-0.2-0.6-0.2-1.2-0.1-1.8
		l7.6-42.2c0.2-1.2,0.9-2.4,1.8-3.2c1-0.8,2.2-1.3,3.5-1.3L138.8,83z"/>
	<path class="st1" d="M167.1,96.3h-2.2c-0.6,0-1.2,0.2-1.6,0.5c-0.4,0.3-0.7,0.8-0.7,1.3v23.4c0,0.5,0.2,0.9,0.7,1.2
		c0.4,0.3,1,0.5,1.6,0.5h0.8c1.7,0,3.4-0.5,4.6-1.5c1.2-1,1.9-2.2,1.9-3.6v-18c0.1-3.5-0.6-3.8-0.6-3.8
		C170.4,96.2,167.7,96.3,167.1,96.3z"/>
	<path class="st1" d="M56.5,95.5h2.2c0.6,0,1.2,0.2,1.6,0.5c0.4,0.3,0.7,0.8,0.7,1.3v23.4c0,0.5-0.2,0.9-0.7,1.2
		c-0.4,0.3-1,0.5-1.6,0.5H58c-1.7,0-3.4-0.5-4.6-1.5c-1.2-1-1.9-2.2-1.9-3.6v-18c-0.1-3.5,0.6-3.8,0.6-3.8
		C53.2,95.4,55.9,95.5,56.5,95.5z"/>
	<g>
		<path class="st1" d="M116.5,189.4c-0.6-0.5-1.3-0.7-2-0.7H88.8c-0.7,0-1.4,0.2-2,0.7c-0.6,0.5-1.1,1.1-1.4,1.9l-0.5,2.4
			c-0.1,0.3-0.2,0.6-0.2,0.9c0,0.3,0.1,0.7,0.2,0.9c0.1,0.3,0.3,0.5,0.5,0.7c0.2,0.2,0.5,0.2,0.7,0.2H117c0.3,0,0.5-0.1,0.7-0.3
			c0.2-0.2,0.4-0.4,0.5-0.7c0.1-0.3,0.2-0.6,0.2-0.9c0-0.2-0.3-3.1-0.4-3.4C117.8,191,117.1,189.9,116.5,189.4z M86.7,191.1
			c0,0,0.1,0,0.1,0h29.8c0,0,0.1,0,0.1,0c0.2,0.2,0.4,0.5,0.5,0.8l0.2,2.2H85.8l0.5-2.2C86.3,191.6,86.5,191.3,86.7,191.1z"/>
		<path class="st1" d="M118.4,194.7C118.4,194.8,118.4,194.4,118.4,194.7L118.4,194.7z"/>
	</g>
	<path class="st3" d="M138.8,141.3l-11.9,1.9H79.5l-13.2-1.9v7.4l11.9,26.2l2.7,9.6h42.3l3-10l12-25.8L138.8,141.3z"/>
	<path class="st1" d="M65.4,184.5H73c0.3,0,0.5-0.1,0.7-0.2c0.2-0.2,0.4-0.4,0.6-0.7c0.2-0.3,0.3-0.6,0.3-0.9c0-0.3,0-0.7-0.1-1
		l-0.6-2.2c-0.4-1.3-1-2.4-1.9-3.2c-0.9-0.8-1.9-1.2-3-1.2h-6c-0.1,0-0.1,0-0.1,0c0,0-0.1,0.1-0.1,0.1c0,0-0.1,0.1-0.1,0.2
		c0,0.1,0,0.1,0,0.2v5.5c0,0.9,0.3,1.8,0.8,2.5C64,184.1,64.7,184.5,65.4,184.5z M69.1,176c0.9,0,1.8,0.4,2.5,1.1
		c0.7,0.7,1.3,1.6,1.6,2.8l0.6,2.2c0,0.2,0.1,0.4,0,0.5c0,0.2-0.1,0.3-0.2,0.5c-0.1,0.1-0.2,0.3-0.3,0.3c-0.1,0.1-0.3,0.1-0.4,0.1
		h-7.5c-0.5,0-1-0.3-1.4-0.8c-0.4-0.5-0.6-1.1-0.6-1.8v-5H69.1z"/>
	<path class="st1" d="M140.7,184.5h-9c-0.3,0-0.6-0.1-0.9-0.2c-0.3-0.2-0.5-0.4-0.7-0.7c-0.2-0.3-0.3-0.6-0.3-0.9c0-0.3,0-0.7,0.1-1
		l0.7-2.2c0.4-1.3,1.2-2.4,2.3-3.2c1-0.8,2.3-1.2,3.6-1.2h7.1c0.1,0,0.1,0,0.2,0c0.1,0,0.1,0.1,0.2,0.1c0,0,0.1,0.1,0.1,0.2
		c0,0.1,0,0.1,0,0.2v5.5c0,0.9-0.3,1.8-1,2.5C142.4,184.1,141.6,184.5,140.7,184.5z M136.4,176c-1.1,0-2.1,0.4-3,1.1
		c-0.9,0.7-1.6,1.6-1.9,2.8l-0.7,2.2c-0.1,0.2-0.1,0.4-0.1,0.5c0,0.2,0.1,0.3,0.2,0.5c0.1,0.1,0.2,0.3,0.4,0.3
		c0.1,0.1,0.3,0.1,0.5,0.1h9c0.6,0,1.2-0.3,1.7-0.8c0.4-0.5,0.7-1.1,0.7-1.8v-5H136.4z"/>
	<path class="st4" d="M74,149.7h56.6c0.1,0,0.3-0.1,0.4-0.2c0.1-0.1,0.2-0.2,0.2-0.4c0-0.1-0.1-0.3-0.2-0.4
		c-0.1-0.1-0.2-0.2-0.4-0.2H74c-0.1,0-0.3,0.1-0.4,0.2c-0.1,0.1-0.2,0.2-0.2,0.4c0,0.1,0.1,0.3,0.2,0.4
		C73.7,149.6,73.8,149.7,74,149.7z"/>
	<path class="st4" d="M78.7,155h47.2c0.1,0,0.2-0.1,0.3-0.2c0.1-0.1,0.1-0.2,0.1-0.4c0-0.1,0-0.3-0.1-0.4c-0.1-0.1-0.2-0.2-0.3-0.2
		H78.7c-0.1,0-0.2,0.1-0.3,0.2c-0.1,0.1-0.1,0.2-0.1,0.4c0,0.1,0,0.3,0.1,0.4C78.4,155,78.5,155,78.7,155z"/>
	<path class="st4" d="M80.3,160.3h43.6c0.1,0,0.2-0.1,0.3-0.2c0.1-0.1,0.1-0.2,0.1-0.4s0-0.3-0.1-0.4c-0.1-0.1-0.2-0.2-0.3-0.2H80.3
		c-0.1,0-0.2,0.1-0.3,0.2c-0.1,0.1-0.1,0.2-0.1,0.4s0,0.3,0.1,0.4C80.1,160.3,80.2,160.3,80.3,160.3z"/>
	<path class="st4" d="M81.1,171h41.9c0.1,0,0.2-0.1,0.3-0.2c0.1-0.1,0.1-0.2,0.1-0.4c0-0.1,0-0.3-0.1-0.4c-0.1-0.1-0.2-0.2-0.3-0.2
		H81.1c-0.1,0-0.2,0.1-0.3,0.2c-0.1,0.1-0.1,0.2-0.1,0.4c0,0.1,0,0.3,0.1,0.4C80.9,171,81,171,81.1,171z"/>
	<path class="st4" d="M80.3,165.7h43.6c0.1,0,0.2-0.1,0.3-0.2c0.1-0.1,0.1-0.2,0.1-0.4c0-0.1,0-0.3-0.1-0.4
		c-0.1-0.1-0.2-0.2-0.3-0.2H80.3c-0.1,0-0.2,0.1-0.3,0.2c-0.1,0.1-0.1,0.2-0.1,0.4c0,0.1,0,0.3,0.1,0.4
		C80.1,165.6,80.2,165.7,80.3,165.7z"/>
	<path class="st4" d="M83.6,176.4h37.2c0.1,0,0.2-0.1,0.2-0.2c0.1-0.1,0.1-0.2,0.1-0.4s0-0.3-0.1-0.4c-0.1-0.1-0.2-0.2-0.2-0.2H83.6
		c-0.1,0-0.2,0.1-0.2,0.2c-0.1,0.1-0.1,0.2-0.1,0.4s0,0.3,0.1,0.4C83.4,176.3,83.5,176.4,83.6,176.4z"/>
	<g>
		<defs>
			
				<rect id="SVGID_1_" x="113.7" y="33.8" transform="matrix(1.110317e-02 -0.9999 0.9999 1.110317e-02 66.7166 168.7531)" width="9.9" height="33.6"/>
		</defs>
		<clipPath id="SVGID_2_">
			<use xlink:href="#SVGID_1_"  style="overflow:visible;"/>
		</clipPath>
		<g class="st5">
			<path class="st6" d="M104.8,49.6c0.5,0,1.1,0.2,1.6,0.4c0.5,0.3,0.8,0.7,1,1.2l-1.1,0.4c-0.1-0.3-0.3-0.5-0.6-0.6
				c-0.3-0.2-0.6-0.2-0.9-0.2c-0.2,0-0.4,0-0.7,0.1c-0.2,0.1-0.4,0.2-0.6,0.4c-0.3,0.3-0.5,0.8-0.5,1.3c0,0.5,0.2,0.9,0.5,1.3
				c0.2,0.2,0.3,0.3,0.5,0.4c0.2,0.1,0.4,0.1,0.7,0.1c0.3,0,0.6-0.1,0.9-0.2c0.3-0.2,0.5-0.4,0.6-0.6l1.1,0.4
				c-0.2,0.5-0.6,0.9-1.1,1.1c-0.5,0.3-1,0.4-1.6,0.4c-0.8,0-1.5-0.3-2.1-0.9c-0.5-0.6-0.8-1.3-0.8-2.1c0-0.8,0.3-1.5,0.8-2.1
				c0.3-0.3,0.6-0.5,1-0.6C104,49.6,104.4,49.6,104.8,49.6z"/>
			<path class="st6" d="M108.7,55.3l-1.2,0l2.4-5.6l1,0l2.3,5.6l-1.2,0l-0.4-1l-2.4,0L108.7,55.3z M111,53.3l-0.7-1.9l-0.8,1.9
				L111,53.3z"/>
			<path class="st6" d="M113.6,49.8l2.6,0c0.3,0,0.5,0,0.8,0.1c0.2,0.1,0.5,0.2,0.6,0.4c0.2,0.2,0.3,0.4,0.4,0.6
				c0.1,0.2,0.1,0.5,0.1,0.7c0,0.3-0.1,0.7-0.3,1c-0.2,0.3-0.4,0.5-0.7,0.7l1.2,2.1l-1.3,0l-1.1-1.9l-1.2,0l0,1.9l-1.2,0L113.6,49.8
				z M116.2,50.9l-1.4,0l0,1.5l1.4,0c0.1,0,0.2,0,0.3,0c0.1,0,0.2-0.1,0.2-0.2c0.1-0.1,0.1-0.2,0.2-0.3c0-0.1,0.1-0.2,0.1-0.3
				c0-0.1,0-0.2,0-0.3c0-0.1-0.1-0.2-0.2-0.3c-0.1-0.1-0.2-0.1-0.2-0.2C116.4,50.9,116.3,50.9,116.2,50.9L116.2,50.9z"/>
			<path class="st7" d="M122.4,51.2c0.2,0.2,0.4,0.5,0.5,0.7c0.1,0.2,0.1,0.4,0.1,0.7c0,0.2-0.1,0.5-0.1,0.7
				c-0.1,0.2-0.2,0.4-0.4,0.6c-0.2,0.2-0.4,0.3-0.6,0.4c-0.4,0.2-0.9,0.2-1.3,0c-0.2-0.1-0.4-0.2-0.5-0.4c-0.2-0.2-0.3-0.4-0.4-0.6
				c-0.1-0.3-0.2-0.7-0.1-1c0.1-0.3,0.2-0.6,0.5-0.8l0.6,1.6l0.9-0.4l-1.1-2.8c0,0-0.1,0-0.1,0c-0.1,0-0.1,0-0.1,0
				c-0.8,0.3-1.3,0.8-1.6,1.6c-0.2,0.5-0.3,1.1-0.2,1.7c0.1,0.6,0.4,1.1,0.8,1.5c0.4,0.4,0.9,0.7,1.5,0.8c0.6,0.1,1.1,0.1,1.7-0.1
				c0.4-0.1,0.7-0.3,1-0.6c0.3-0.3,0.5-0.6,0.6-1c0.3-0.7,0.3-1.5,0-2.3c-0.1,0-0.1,0-0.2,0C123.3,51.5,122.8,51.4,122.4,51.2z"/>
			<path class="st7" d="M122.8,50c0.1,0.1,0.2,0.1,0.2,0.2c0,0-0.1,0-0.1-0.1C122.8,50.1,122.8,50.1,122.8,50z"/>
			<path class="st7" d="M126.7,48.7c0-0.4-0.1-0.8-0.2-1.1c-0.1-0.4-0.3-0.7-0.6-1c-0.3-0.3-0.6-0.5-0.9-0.6
				c-0.4-0.1-0.7-0.2-1.1-0.2c-0.4,0-0.8,0.1-1.1,0.2c-0.4,0.1-0.7,0.4-1,0.6c-0.5,0.5-0.8,1.3-0.8,2.1c0,0.8,0.3,1.5,0.8,2.1
				c0.2,0.2,0.4,0.4,0.7,0.5c-0.2-0.2-0.8-1.6-0.8-1.6c0.4,0,0.8,0.2,1.2,0.4c-0.1,0-0.1-0.1-0.2-0.2c-0.3-0.3-0.5-0.8-0.5-1.3
				c0-0.5,0.2-0.9,0.5-1.3c0.2-0.2,0.3-0.3,0.6-0.4c0.2-0.1,0.4-0.1,0.7-0.1c0.2,0,0.4,0,0.6,0.1c0.2,0.1,0.4,0.2,0.5,0.4
				c0.3,0.3,0.5,0.8,0.5,1.3c0,0.5-0.2,0.9-0.5,1.3c-0.2,0.2-0.3,0.3-0.5,0.4c-0.2,0.1-0.4,0.1-0.7,0.1c-0.3,0-0.5-0.1-0.8-0.2l0,0
				c0.4,0.3,0.8,0.8,1,1.3c0.7,0,1.4-0.3,1.9-0.9C126.4,50.1,126.7,49.4,126.7,48.7L126.7,48.7z"/>
			<path class="st7" d="M123,50.2L123,50.2c-0.1-0.1-0.2-0.1-0.3-0.2c-0.4-0.2-0.8-0.4-1.2-0.4c0,0,0.6,1.4,0.8,1.6
				c0.4,0.2,0.9,0.3,1.4,0.3c0.1,0,0.1,0,0.2,0C123.8,51,123.4,50.6,123,50.2z"/>
			<path class="st6" d="M126.6,49.9l4.1,0l-0.5,1.1l-2.5,0l0,1.2l2.5,0l0,1.1l-2.5,0l0,2.3l-1.2,0L126.6,49.9z"/>
			<path class="st6" d="M131.4,50l4.1,0l-0.5,1.1l-2.5,0l0,1.2l2.5,0l0,1.1l-2.5,0l0,2.3l-1.2,0L131.4,50z"/>
		</g>
	</g>
	<polyline class="st8" points="94.6,39.3 190.3,40 190.3,160.6 332.5,161 332.5,57.2 190.3,40 	"/>
	<polyline class="st8" points="324.7,161.4 324.7,183 264.5,185.6 	"/>
	<path class="st1" d="M304.9,164h7.8c3.2,0,5.8,7.8,5.8,17.5c0,9.7-2.6,17.6-5.8,17.6h-7.8c-3.2,0-5.8-7.8-5.8-17.6
		C299.1,171.8,301.7,164,304.9,164z"/>
	<path class="st0" d="M312.8,198c-3.2,0-5.8-7.5-5.8-16.7s2.6-16.7,5.8-16.7c3.2,0,5.8,7.5,5.8,16.7S316,198,312.8,198z"/>
	<path class="st1" d="M312.8,198.6c4,0,6.3-8.8,6.3-17.3s-2.4-17.3-6.3-17.3c-4,0-6.3,8.8-6.3,17.3
		C306.4,189.8,308.8,198.6,312.8,198.6z M312.8,165.2c2.5,0,5.2,6.6,5.2,16.2s-2.7,16.1-5.2,16.1c-2.5,0-5.2-6.6-5.2-16.1
		S310.3,165.2,312.8,165.2z"/>
	<path class="st1" d="M290.3,165.1h7.8c3.2,0,5.8,7.9,5.8,17.7c0,9.8-2.6,17.7-5.8,17.7h-7.8c-3.2,0-5.8-7.9-5.8-17.7
		C284.5,173,287.1,165.1,290.3,165.1z"/>
	<path class="st0" d="M298,199c-3.2,0-5.8-7.5-5.8-16.7c0-9.2,2.6-16.7,5.8-16.7c3.2,0,5.8,7.5,5.8,16.7
		C303.8,191.5,301.2,199,298,199z"/>
	<path class="st1" d="M298,199.6c4,0,6.3-8.8,6.3-17.3S302,165,298,165c-4,0-6.3,8.8-6.3,17.3C291.7,190.8,294,199.6,298,199.6z
		 M298,166.2c2.5,0,5.2,6.6,5.2,16.2s-2.7,16.2-5.2,16.2c-2.5,0-5.2-6.6-5.2-16.2S295.5,166.2,298,166.2z"/>
	<path class="st1" d="M274.8,164.6h8.2c3.3,0,6,8.4,6,18.7c0,10.3-2.7,18.7-6,18.7h-8.2c-3.3,0-6-8.4-6-18.7
		S271.4,164.6,274.8,164.6z"/>
	<path class="st0" d="M282.9,200.9c-3.3,0-6-7.9-6-17.6c0-9.7,2.7-17.6,6-17.6c3.3,0,6,7.9,6,17.6
		C288.9,193,286.2,200.9,282.9,200.9z"/>
	<path class="st1" d="M282.9,201.5c4.1,0,6.6-9.2,6.6-18.2c0-8.9-2.5-18.2-6.6-18.2c-4.1,0-6.6,9.2-6.6,18.2
		C276.3,192.2,278.8,201.5,282.9,201.5z M282.9,166.3c2.6,0,5.4,7,5.4,17c0,10-2.9,17-5.4,17c-2.6,0-5.4-7-5.4-17
		C277.5,173.3,280.3,166.3,282.9,166.3z"/>
	<line class="st8" x1="184.2" y1="76" x2="184" y2="160.3"/>
	<line class="st8" x1="181.1" y1="189.9" x2="242.6" y2="187.4"/>
	<path class="st1" d="M205.6,166.8h9.2c3.8,0,6.8,9.3,6.8,20.6c0,11.3-3,20.6-6.8,20.6h-9.2c-3.8,0-6.8-9.3-6.8-20.6
		C198.8,176.1,201.8,166.8,205.6,166.8z"/>
	<path class="st0" d="M214.7,206.8c-3.7,0-6.7-8.8-6.7-19.8c0-10.9,3-19.8,6.7-19.8c3.7,0,6.7,8.8,6.7,19.8
		C221.4,198,218.4,206.8,214.7,206.8z"/>
	<path class="st1" d="M214.7,207.4c4.1,0,7.3-8.9,7.3-20.3s-3.2-20.3-7.3-20.3c-4.1,0-7.3,8.9-7.3,20.3S210.6,207.4,214.7,207.4z
		 M214.7,167.9c3,0,6.2,7.7,6.2,19.2c0,11.5-3.2,19.2-6.2,19.2c-3,0-6.2-7.7-6.2-19.2C208.5,175.6,211.7,167.9,214.7,167.9z"/>
	<path class="st8" d="M177.2,66.6l-24.5,4.7l-4.2,129.1c0,0-79.9,0.2-83.9-0.6s-5.6-8-5.6-8v-54.5l12.6-66.1l59.6-0.1"/>
	<path class="st1" d="M63.5,186.7h11.1c0,0,0,2.6-1.5,3.2c-1.5,0.6-9.1,1.1-9.4,0.4S63.5,186.7,63.5,186.7z"/>
	<path class="st1" d="M129.9,186.8l13.7,0c0,0,0.1,2.6-1.8,3.2c-1.9,0.6-11.3,1.2-11.6,0.4C130,189.5,129.9,186.8,129.9,186.8z"/>
	<path class="st8" d="M148.5,200.5l11-0.2c0,0,1.1-15.7,2.7-23c1.6-7.3,5.3-16.2,9.5-8.8c4.2,7.4,3.6,32,3.6,32l4.2-0.2l0.1-32.8
		c0,0,1.5-5.3,4.5-7.2"/>
	<polyline class="st8" points="71.6,71.3 104.7,64.3 177.2,65.4 	"/>
	<polyline class="st8" points="157,40.4 156.7,61.4 177.2,60 177.2,39.9 	"/>
	<polyline class="st8" points="156.7,61.4 84.6,60.5 84.6,40.9 156.9,41.9 	"/>
	<line class="st10" x1="162" y1="45.4" x2="172" y2="45.4"/>
	<line class="st10" x1="161.8" y1="54.6" x2="172.1" y2="54.1"/>
	<line class="st10" x1="161.8" y1="50.2" x2="172" y2="49.9"/>
</g>
</svg>
