<?xml version="1.0"?>
<svg width="384" height="262.6" xmlns="http://www.w3.org/2000/svg" xmlns:svg="http://www.w3.org/2000/svg" enable-background="new 0 0 384 262.6" version="1.1" xml:space="preserve">
 <style type="text/css">.st0{fill:#FFFFFF;}
	.st1{fill:#2F3339;}
	.st2{fill:none;stroke:#2F3339;stroke-width:3;stroke-miterlimit:10;}
	.st3{fill:#2F3339;stroke:#2F3339;stroke-width:2.9;stroke-linecap:round;stroke-linejoin:round;stroke-miterlimit:10;}
	.st4{fill:#FFFFFF;stroke:#FFFFFF;stroke-width:2;stroke-miterlimit:10;}
	.st5{clip-path:url(#SVGID_2_);}
	.st6{fill:#1D1D1B;}
	.st7{fill:#2F2FC0;}
	.st8{fill:none;stroke:#2F3339;stroke-width:3;stroke-linecap:round;stroke-linejoin:round;stroke-miterlimit:10;}
	.st9{fill:none;stroke:#2F2FC0;stroke-width:5;stroke-linecap:round;stroke-linejoin:round;stroke-miterlimit:10;}
	.st10{fill:none;stroke:#2F3339;stroke-width:2;stroke-linecap:round;stroke-linejoin:round;stroke-miterlimit:10;}
	.st11{fill:#2F3339;stroke:#2F3339;stroke-width:2.7116;stroke-linecap:round;stroke-linejoin:round;stroke-miterlimit:10;}
	.st12{fill:#FFFFFF;stroke:#FFFFFF;stroke-width:1.8311;stroke-miterlimit:10;}
	.st13{clip-path:url(#SVGID_4_);}
	.st14{fill:none;stroke:#2F2FC0;stroke-width:4.5779;stroke-linecap:round;stroke-linejoin:round;stroke-miterlimit:10;}
	.st15{fill:#2F3339;stroke:#2F3339;stroke-width:2.8083;stroke-linecap:round;stroke-linejoin:round;stroke-miterlimit:10;}
	.st16{fill:#FFFFFF;stroke:#FFFFFF;stroke-width:1.8964;stroke-miterlimit:10;}
	.st17{clip-path:url(#SVGID_6_);}
	.st18{fill:none;stroke:#2F2FC0;stroke-width:4.7411;stroke-linecap:round;stroke-linejoin:round;stroke-miterlimit:10;}
	.st19{fill:#2F3339;stroke:#2F3339;stroke-width:2.3651;stroke-linecap:round;stroke-linejoin:round;stroke-miterlimit:10;}
	.st20{fill:#FFFFFF;stroke:#FFFFFF;stroke-width:1.9275;stroke-miterlimit:10;}
	.st21{clip-path:url(#SVGID_8_);}
	.st22{fill:none;stroke:#2F2FC0;stroke-width:4.8188;stroke-linecap:round;stroke-linejoin:round;stroke-miterlimit:10;}</style>
 <g class="layer">
  <title>Layer 1</title>
  <g id="svg_1">
   <rect class="st0" height="262.6" id="svg_2" width="384"/>
   <polygon class="st0" id="svg_3" points="190.3,40 332.5,57.2 332.5,161 190.3,160.6  "/>
   <path class="st1" d="m94.3,161.1l6.9,0c2.8,0 5.1,6.8 5.1,15.1c0,8.3 -2.3,15.1 -5.1,15.1l-6.9,0c-2.8,0 -5.1,-6.8 -5.1,-15.1c0,-8.3 2.3,-15.1 5.1,-15.1z" id="svg_4"/>
   <path class="st1" d="m76.8,163.7l7.8,0c3.2,0 5.8,7.7 5.8,17c0,9.3 -2.6,17 -5.8,17l-7.8,0c-3.2,0 -5.8,-7.7 -5.8,-17c0,-9.4 2.6,-17 5.8,-17z" id="svg_5"/>
   <path class="st0" d="m84.6,197.4c-3.2,0 -5.8,-7.6 -5.8,-16.9c0,-9.3 2.6,-16.9 5.8,-16.9s5.8,7.6 5.8,16.9c-0.1,9.3 -2.6,16.9 -5.8,16.9z" id="svg_6"/>
   <path class="st1" d="m161.9,161.6l6.7,0c2.7,0 4.9,6.3 4.9,14.2c0,7.9 -2.2,14.2 -4.9,14.2l-6.7,0c-2.7,0 -4.9,-6.3 -4.9,-14.2c0,-7.9 2.2,-14.2 4.9,-14.2z" id="svg_7"/>
   <path class="st0" d="m168.6,189.9c-2.7,0 -4.9,-6.4 -4.9,-14.3s2.2,-14.3 4.9,-14.3c2.7,0 4.9,6.4 4.9,14.3s-2.2,14.3 -4.9,14.3z" id="svg_8"/>
   <path class="st1" d="m149.3,162.4l6.7,0c2.7,0 4.9,6.3 4.9,14.2c0,7.9 -2.2,14.2 -4.9,14.2l-6.7,0c-2.7,0 -4.9,-6.3 -4.9,-14.2c-0.1,-7.9 2.1,-14.2 4.9,-14.2z" id="svg_9"/>
   <path class="st0" d="m155.9,190.7c-2.7,0 -4.9,-6.4 -4.9,-14.3s2.2,-14.3 4.9,-14.3s4.9,6.4 4.9,14.3s-2.1,14.3 -4.9,14.3z" id="svg_10"/>
   <path class="st1" d="m136,162.4l6.9,0c2.8,0 5.1,6.8 5.1,15.1c0,8.3 -2.3,15.1 -5.1,15.1l-6.9,0c-2.8,0 -5.1,-6.8 -5.1,-15.1s2.3,-15.1 5.1,-15.1z" id="svg_11"/>
   <path class="st0" d="m143,192.3c-2.8,0 -5.1,-6.7 -5.1,-15.1s2.3,-15.1 5.1,-15.1c2.8,0 5.1,6.7 5.1,15.1s-2.3,15.1 -5.1,15.1z" id="svg_12"/>
   <path class="st1" d="m226,164.5l8.1,0c3.3,0 6,7.9 6,17.6c0,9.7 -2.7,17.6 -6,17.6l-8.1,0c-3.3,0 -6,-7.9 -6,-17.6c0.1,-9.7 2.7,-17.6 6,-17.6z" id="svg_13"/>
   <path class="st0" d="m163.1,190.7l0,-118.1l162.1,20.9l0,90l-162.1,7.2z" id="svg_14"/>
   <path class="st0" d="m78.8,39.3l110.9,0l0,122.1l-110.9,0l0,-122.1z" id="svg_15"/>
   <path class="st1" d="m154.9,171.9l9.4,0c3.8,0 7,9.3 7,20.8c0,11.5 -3.1,20.8 -7,20.8l-9.4,0c-3.8,0 -7,-9.3 -7,-20.8c0,-11.5 3.1,-20.8 7,-20.8z" id="svg_16"/>
   <path class="st0" d="m164.3,212.3c-3.8,0 -6.9,-9.1 -6.9,-20.3c0,-11.2 3.1,-20.3 6.9,-20.3c3.8,0 6.9,9.1 6.9,20.3c0,11.2 -3.1,20.3 -6.9,20.3z" id="svg_17"/>
   <path class="st1" d="m164.3,212.9c4.2,0 7.5,-9.2 7.5,-20.9c0,-11.7 -3.3,-20.9 -7.5,-20.9c-4.2,0 -7.5,9.2 -7.5,20.9s3.3,20.9 7.5,20.9zm0,-40.7c3.1,0 6.4,7.9 6.4,19.8s-3.3,19.8 -6.4,19.8c-3.1,0 -6.4,-7.9 -6.4,-19.8s3.3,-19.8 6.4,-19.8z" id="svg_18"/>
   <path class="st1" d="m78.6,171l9.3,0c3.8,0 6.9,9.5 6.9,21.2c0,11.7 -3.1,21.2 -6.9,21.2l-9.3,0c-3.8,0 -6.9,-9.5 -6.9,-21.2c0.1,-11.7 3.1,-21.2 6.9,-21.2z" id="svg_19"/>
   <path class="st0" d="m88,211.6c-3.9,0 -7,-9.2 -7,-20.5c0,-11.3 3.1,-20.5 7,-20.5s7,9.2 7,20.5c0,11.4 -3.1,20.5 -7,20.5z" id="svg_20"/>
   <path class="st1" d="m88,212.2c4.2,0 7.5,-9.2 7.5,-21.1c0,-11.8 -3.3,-21.1 -7.5,-21.1c-4.2,0 -7.5,9.2 -7.5,21.1c0,11.8 3.3,21.1 7.5,21.1zm0,-41c3.1,0 6.4,8 6.4,19.9c0,11.9 -3.3,19.9 -6.4,19.9s-6.4,-8 -6.4,-19.9c0,-11.9 3.3,-19.9 6.4,-19.9z" id="svg_21"/>
   <path class="st0" d="m184.2,76l0.3,84.8l-3.2,2.7c-0.6,0.5 -1,1.1 -1.3,1.8c-0.3,0.7 -0.4,1.5 -0.4,2.2l1.3,30.6c0,0.3 0,0.6 -0.1,0.9c-0.1,0.3 -0.3,0.6 -0.5,0.8c-0.2,0.2 -0.5,0.4 -0.7,0.5c-0.3,0.1 -0.6,0.2 -0.9,0.2c-1,0 -4.5,0.1 -4.5,0c0,-19.1 -0.9,-34.8 -5.6,-34.8c-4.6,0 -8.4,15.5 -8.4,34.6c0,0.1 -11.1,0.2 -11.1,0.2l0,-124.1l35.1,-0.4z" id="svg_22"/>
   <path class="st0" d="m70.2,75.4l78.2,0l0,125.1l-84.8,0c-1.2,0 -2.4,-0.5 -3.2,-1.4c-0.9,-0.9 -1.3,-2.1 -1.3,-3.3l0,-40.1c0,-11.1 1,-22.3 2.9,-33.2l8.2,-47.1z" id="svg_23"/>
   <path class="st1" d="m71.9,134.8l65.5,0c1.3,0 2.6,-0.4 3.5,-1.2c0.9,-0.8 1.5,-1.8 1.5,-2.9l0,-10.1c0,-0.1 -0.1,-0.2 -0.2,-0.3c-0.1,-0.1 -0.2,-0.1 -0.4,-0.1l-31.2,0c-2.5,0 -4.9,0.4 -7.2,1.2c-2.3,0.8 -4.3,2 -6.1,3.4c-1.6,1.4 -3.6,2.5 -5.7,3.2c-2.1,0.7 -4.4,1.1 -6.8,1.1l-17.2,0c-0.1,0 -0.2,0 -0.3,0.1c-0.1,0.1 -0.2,0.2 -0.2,0.3l-0.1,0.5c-0.1,0.6 -0.1,1.2 0.1,1.8c0.2,0.6 0.5,1.1 1,1.6c0.5,0.5 1.1,0.8 1.7,1.1c0.7,0.2 1.4,0.3 2.1,0.3l0,0z" id="svg_24"/>
   <path class="st1" d="m157.1,131c0,0 0,0 0.5,-0.1c0.5,-0.1 5,-4.6 5,-4.6s1.9,-1.7 2.9,-2.8c1,-1.2 1.5,-2.6 1.5,-4.1l0,-22c0,-0.9 -0.3,-1.7 -0.9,-2.3c-0.6,-0.6 -0.7,-0.9 -2.3,-0.9c-1.6,0 -6,2 -6,2s-1.7,0.6 -2.4,1.3c-0.7,0.7 -1.1,1.7 -1.1,2.6l0,28c0,0.7 0.3,1.5 0.8,2c0.5,0.6 1.2,0.9 2,0.9zm4.9,-5.8l-4.6,4.6c-0.2,0 -0.5,0 -0.7,0c-0.2,-0.1 -0.4,-0.2 -0.6,-0.3c-0.2,-0.2 -0.3,-0.4 -0.4,-0.6c-0.1,-0.2 -0.2,-0.5 -0.2,-0.7l0,-28c0,-0.7 0.3,-1.4 0.8,-1.8c0.5,-0.5 1,-0.7 1.7,-1c0,0 5.1,-2 5.8,-2c0.8,0 1.1,0.2 1.5,0.6c0.4,0.4 0.6,0.9 0.6,1.5l0,22.1c0,1.2 -0.4,2.4 -1.2,3.4c-0.9,0.8 -2.7,2.2 -2.7,2.2z" id="svg_25"/>
   <path class="st2" d="m138.8,83c1.4,0 2.8,0.6 3.8,1.6c1,1 1.6,2.4 1.6,3.8l-1.4,41.3c0,1.1 -0.4,2.1 -1.2,2.9c-0.8,0.8 -1.8,1.2 -2.9,1.2l-67.7,0c-0.6,0 -1.2,-0.1 -1.7,-0.4c-0.5,-0.3 -1,-0.6 -1.4,-1.1c-0.4,-0.5 -0.7,-1 -0.8,-1.6c-0.2,-0.6 -0.2,-1.2 -0.1,-1.8l7.6,-42.2c0.2,-1.2 0.9,-2.4 1.8,-3.2c1,-0.8 2.2,-1.3 3.5,-1.3l58.9,0.8z" id="svg_26"/>
   <path class="st1" d="m167.1,96.3l-2.2,0c-0.6,0 -1.2,0.2 -1.6,0.5c-0.4,0.3 -0.7,0.8 -0.7,1.3l0,23.4c0,0.5 0.2,0.9 0.7,1.2c0.4,0.3 1,0.5 1.6,0.5l0.8,0c1.7,0 3.4,-0.5 4.6,-1.5c1.2,-1 1.9,-2.2 1.9,-3.6l0,-18c0.1,-3.5 -0.6,-3.8 -0.6,-3.8c-1.2,-0.1 -3.9,0 -4.5,0z" id="svg_27"/>
   <path class="st1" d="m56.5,95.5l2.2,0c0.6,0 1.2,0.2 1.6,0.5c0.4,0.3 0.7,0.8 0.7,1.3l0,23.4c0,0.5 -0.2,0.9 -0.7,1.2c-0.4,0.3 -1,0.5 -1.6,0.5l-0.7,0c-1.7,0 -3.4,-0.5 -4.6,-1.5c-1.2,-1 -1.9,-2.2 -1.9,-3.6l0,-18c-0.1,-3.5 0.6,-3.8 0.6,-3.8c1.1,-0.1 3.8,0 4.4,0z" id="svg_28"/>
   <g id="svg_29">
    <path class="st1" d="m116.5,189.4c-0.6,-0.5 -1.3,-0.7 -2,-0.7l-25.7,0c-0.7,0 -1.4,0.2 -2,0.7c-0.6,0.5 -1.1,1.1 -1.4,1.9l-0.5,2.4c-0.1,0.3 -0.2,0.6 -0.2,0.9c0,0.3 0.1,0.7 0.2,0.9c0.1,0.3 0.3,0.5 0.5,0.7c0.2,0.2 0.5,0.2 0.7,0.2l30.9,0c0.3,0 0.5,-0.1 0.7,-0.3c0.2,-0.2 0.4,-0.4 0.5,-0.7c0.1,-0.3 0.2,-0.6 0.2,-0.9c0,-0.2 -0.3,-3.1 -0.4,-3.4c-0.2,-0.1 -0.9,-1.2 -1.5,-1.7zm-29.8,1.7c0,0 0.1,0 0.1,0l29.8,0c0,0 0.1,0 0.1,0c0.2,0.2 0.4,0.5 0.5,0.8l0.2,2.2l-31.6,0l0.5,-2.2c0,-0.3 0.2,-0.6 0.4,-0.8z" id="svg_30"/>
    <path class="st1" d="m118.4,194.7c0,0.1 0,-0.3 0,0l0,0z" id="svg_31"/>
   </g>
   <path class="st3" d="m138.8,141.3l-11.9,1.9l-47.4,0l-13.2,-1.9l0,7.4l11.9,26.2l2.7,9.6l42.3,0l3,-10l12,-25.8l0.6,-7.4z" id="svg_32"/>
   <path class="st1" d="m65.4,184.5l7.6,0c0.3,0 0.5,-0.1 0.7,-0.2c0.2,-0.2 0.4,-0.4 0.6,-0.7c0.2,-0.3 0.3,-0.6 0.3,-0.9c0,-0.3 0,-0.7 -0.1,-1l-0.6,-2.2c-0.4,-1.3 -1,-2.4 -1.9,-3.2c-0.9,-0.8 -1.9,-1.2 -3,-1.2l-6,0c-0.1,0 -0.1,0 -0.1,0c0,0 -0.1,0.1 -0.1,0.1c0,0 -0.1,0.1 -0.1,0.2c0,0.1 0,0.1 0,0.2l0,5.5c0,0.9 0.3,1.8 0.8,2.5c0.5,0.5 1.2,0.9 1.9,0.9zm3.7,-8.5c0.9,0 1.8,0.4 2.5,1.1c0.7,0.7 1.3,1.6 1.6,2.8l0.6,2.2c0,0.2 0.1,0.4 0,0.5c0,0.2 -0.1,0.3 -0.2,0.5c-0.1,0.1 -0.2,0.3 -0.3,0.3c-0.1,0.1 -0.3,0.1 -0.4,0.1l-7.5,0c-0.5,0 -1,-0.3 -1.4,-0.8c-0.4,-0.5 -0.6,-1.1 -0.6,-1.8l0,-5l5.7,0l0,0.1z" id="svg_33"/>
   <path class="st1" d="m140.7,184.5l-9,0c-0.3,0 -0.6,-0.1 -0.9,-0.2c-0.3,-0.2 -0.5,-0.4 -0.7,-0.7c-0.2,-0.3 -0.3,-0.6 -0.3,-0.9c0,-0.3 0,-0.7 0.1,-1l0.7,-2.2c0.4,-1.3 1.2,-2.4 2.3,-3.2c1,-0.8 2.3,-1.2 3.6,-1.2l7.1,0c0.1,0 0.1,0 0.2,0c0.1,0 0.1,0.1 0.2,0.1c0,0 0.1,0.1 0.1,0.2c0,0.1 0,0.1 0,0.2l0,5.5c0,0.9 -0.3,1.8 -1,2.5c-0.7,0.5 -1.5,0.9 -2.4,0.9zm-4.3,-8.5c-1.1,0 -2.1,0.4 -3,1.1c-0.9,0.7 -1.6,1.6 -1.9,2.8l-0.7,2.2c-0.1,0.2 -0.1,0.4 -0.1,0.5c0,0.2 0.1,0.3 0.2,0.5c0.1,0.1 0.2,0.3 0.4,0.3c0.1,0.1 0.3,0.1 0.5,0.1l9,0c0.6,0 1.2,-0.3 1.7,-0.8c0.4,-0.5 0.7,-1.1 0.7,-1.8l0,-5l-6.8,0l0,0.1z" id="svg_34"/>
   <path class="st4" d="m74,149.7l56.6,0c0.1,0 0.3,-0.1 0.4,-0.2c0.1,-0.1 0.2,-0.2 0.2,-0.4c0,-0.1 -0.1,-0.3 -0.2,-0.4c-0.1,-0.1 -0.2,-0.2 -0.4,-0.2l-56.6,0c-0.1,0 -0.3,0.1 -0.4,0.2c-0.1,0.1 -0.2,0.2 -0.2,0.4c0,0.1 0.1,0.3 0.2,0.4c0.1,0.1 0.2,0.2 0.4,0.2z" id="svg_35"/>
   <path class="st4" d="m78.7,155l47.2,0c0.1,0 0.2,-0.1 0.3,-0.2c0.1,-0.1 0.1,-0.2 0.1,-0.4c0,-0.1 0,-0.3 -0.1,-0.4c-0.1,-0.1 -0.2,-0.2 -0.3,-0.2l-47.2,0c-0.1,0 -0.2,0.1 -0.3,0.2c-0.1,0.1 -0.1,0.2 -0.1,0.4c0,0.1 0,0.3 0.1,0.4c0,0.2 0.1,0.2 0.3,0.2z" id="svg_36"/>
   <path class="st4" d="m80.3,160.3l43.6,0c0.1,0 0.2,-0.1 0.3,-0.2c0.1,-0.1 0.1,-0.2 0.1,-0.4s0,-0.3 -0.1,-0.4c-0.1,-0.1 -0.2,-0.2 -0.3,-0.2l-43.6,0c-0.1,0 -0.2,0.1 -0.3,0.2c-0.1,0.1 -0.1,0.2 -0.1,0.4s0,0.3 0.1,0.4c0.1,0.2 0.2,0.2 0.3,0.2z" id="svg_37"/>
   <path class="st4" d="m81.1,171l41.9,0c0.1,0 0.2,-0.1 0.3,-0.2c0.1,-0.1 0.1,-0.2 0.1,-0.4c0,-0.1 0,-0.3 -0.1,-0.4c-0.1,-0.1 -0.2,-0.2 -0.3,-0.2l-41.9,0c-0.1,0 -0.2,0.1 -0.3,0.2c-0.1,0.1 -0.1,0.2 -0.1,0.4c0,0.1 0,0.3 0.1,0.4c0.1,0.2 0.2,0.2 0.3,0.2z" id="svg_38"/>
   <path class="st4" d="m80.3,165.7l43.6,0c0.1,0 0.2,-0.1 0.3,-0.2c0.1,-0.1 0.1,-0.2 0.1,-0.4c0,-0.1 0,-0.3 -0.1,-0.4c-0.1,-0.1 -0.2,-0.2 -0.3,-0.2l-43.6,0c-0.1,0 -0.2,0.1 -0.3,0.2c-0.1,0.1 -0.1,0.2 -0.1,0.4c0,0.1 0,0.3 0.1,0.4c0.1,0.1 0.2,0.2 0.3,0.2z" id="svg_39"/>
   <path class="st4" d="m83.6,176.4l37.2,0c0.1,0 0.2,-0.1 0.2,-0.2c0.1,-0.1 0.1,-0.2 0.1,-0.4s0,-0.3 -0.1,-0.4c-0.1,-0.1 -0.2,-0.2 -0.2,-0.2l-37.2,0c-0.1,0 -0.2,0.1 -0.2,0.2c-0.1,0.1 -0.1,0.2 -0.1,0.4s0,0.3 0.1,0.4c0,0.1 0.1,0.2 0.2,0.2z" id="svg_40"/>
   <polyline class="st8" id="svg_53" points="94.6,39.3 190.3,40 190.3,160.6 332.5,161 332.5,57.2 190.3,40  "/>
   <polyline class="st8" id="svg_54" points="324.7,161.4 324.7,183 264.5,185.6  "/>
   <path class="st1" d="m304.9,164l7.8,0c3.2,0 5.8,7.8 5.8,17.5c0,9.7 -2.6,17.6 -5.8,17.6l-7.8,0c-3.2,0 -5.8,-7.8 -5.8,-17.6c0,-9.7 2.6,-17.5 5.8,-17.5z" id="svg_55"/>
   <path class="st0" d="m312.8,198c-3.2,0 -5.8,-7.5 -5.8,-16.7s2.6,-16.7 5.8,-16.7c3.2,0 5.8,7.5 5.8,16.7s-2.6,16.7 -5.8,16.7z" id="svg_56"/>
   <path class="st1" d="m312.8,198.6c4,0 6.3,-8.8 6.3,-17.3s-2.4,-17.3 -6.3,-17.3c-4,0 -6.3,8.8 -6.3,17.3c-0.1,8.5 2.3,17.3 6.3,17.3zm0,-33.4c2.5,0 5.2,6.6 5.2,16.2s-2.7,16.1 -5.2,16.1c-2.5,0 -5.2,-6.6 -5.2,-16.1s2.7,-16.2 5.2,-16.2z" id="svg_57"/>
   <path class="st1" d="m290.3,165.1l7.8,0c3.2,0 5.8,7.9 5.8,17.7c0,9.8 -2.6,17.7 -5.8,17.7l-7.8,0c-3.2,0 -5.8,-7.9 -5.8,-17.7c0,-9.8 2.6,-17.7 5.8,-17.7z" id="svg_58"/>
   <path class="st0" d="m298,199c-3.2,0 -5.8,-7.5 -5.8,-16.7c0,-9.2 2.6,-16.7 5.8,-16.7c3.2,0 5.8,7.5 5.8,16.7c0,9.2 -2.6,16.7 -5.8,16.7z" id="svg_59"/>
   <path class="st1" d="m298,199.6c4,0 6.3,-8.8 6.3,-17.3s-2.3,-17.3 -6.3,-17.3c-4,0 -6.3,8.8 -6.3,17.3c0,8.5 2.3,17.3 6.3,17.3zm0,-33.4c2.5,0 5.2,6.6 5.2,16.2s-2.7,16.2 -5.2,16.2c-2.5,0 -5.2,-6.6 -5.2,-16.2s2.7,-16.2 5.2,-16.2z" id="svg_60"/>
   <path class="st1" d="m274.8,164.6l8.2,0c3.3,0 6,8.4 6,18.7c0,10.3 -2.7,18.7 -6,18.7l-8.2,0c-3.3,0 -6,-8.4 -6,-18.7s2.6,-18.7 6,-18.7z" id="svg_61"/>
   <path class="st0" d="m282.9,200.9c-3.3,0 -6,-7.9 -6,-17.6c0,-9.7 2.7,-17.6 6,-17.6c3.3,0 6,7.9 6,17.6c0,9.7 -2.7,17.6 -6,17.6z" id="svg_62"/>
   <path class="st1" d="m282.9,201.5c4.1,0 6.6,-9.2 6.6,-18.2c0,-8.9 -2.5,-18.2 -6.6,-18.2c-4.1,0 -6.6,9.2 -6.6,18.2c0,8.9 2.5,18.2 6.6,18.2zm0,-35.2c2.6,0 5.4,7 5.4,17c0,10 -2.9,17 -5.4,17c-2.6,0 -5.4,-7 -5.4,-17c0,-10 2.8,-17 5.4,-17z" id="svg_63"/>
   <line class="st8" id="svg_64" x1="184.2" x2="184" y1="76" y2="160.3"/>
   <line class="st8" id="svg_65" x1="181.1" x2="242.6" y1="189.9" y2="187.4"/>
   <path class="st1" d="m205.6,166.8l9.2,0c3.8,0 6.8,9.3 6.8,20.6c0,11.3 -3,20.6 -6.8,20.6l-9.2,0c-3.8,0 -6.8,-9.3 -6.8,-20.6c0,-11.3 3,-20.6 6.8,-20.6z" id="svg_66"/>
   <path class="st0" d="m214.7,206.8c-3.7,0 -6.7,-8.8 -6.7,-19.8c0,-10.9 3,-19.8 6.7,-19.8c3.7,0 6.7,8.8 6.7,19.8c0,11 -3,19.8 -6.7,19.8z" id="svg_67"/>
   <path class="st1" d="m214.7,207.4c4.1,0 7.3,-8.9 7.3,-20.3s-3.2,-20.3 -7.3,-20.3c-4.1,0 -7.3,8.9 -7.3,20.3s3.2,20.3 7.3,20.3zm0,-39.5c3,0 6.2,7.7 6.2,19.2c0,11.5 -3.2,19.2 -6.2,19.2c-3,0 -6.2,-7.7 -6.2,-19.2c0,-11.5 3.2,-19.2 6.2,-19.2z" id="svg_68"/>
   <path class="st8" d="m177.2,66.6l-24.5,4.7l-4.2,129.1c0,0 -79.9,0.2 -83.9,-0.6s-5.6,-8 -5.6,-8l0,-54.5l12.6,-66.1l59.6,-0.1" id="svg_69"/>
   <path class="st1" d="m63.5,186.7l11.1,0c0,0 0,2.6 -1.5,3.2c-1.5,0.6 -9.1,1.1 -9.4,0.4s-0.2,-3.6 -0.2,-3.6z" id="svg_70"/>
   <path class="st1" d="m129.9,186.8l13.7,0c0,0 0.1,2.6 -1.8,3.2c-1.9,0.6 -11.3,1.2 -11.6,0.4c-0.2,-0.9 -0.3,-3.6 -0.3,-3.6z" id="svg_71"/>
   <path class="st8" d="m148.5,200.5l11,-0.2c0,0 1.1,-15.7 2.7,-23c1.6,-7.3 5.3,-16.2 9.5,-8.8c4.2,7.4 3.6,32 3.6,32l4.2,-0.2l0.1,-32.8c0,0 1.5,-5.3 4.5,-7.2" id="svg_72"/>
   <polyline class="st8" id="svg_73" points="71.6,71.3 104.7,64.3 177.2,65.4  "/>
   <polyline class="st8" id="svg_74" points="157,40.4 156.7,61.4 177.2,60 177.2,39.9  "/>
   <polyline class="st8" id="svg_75" points="155.6999969482422,60.400001525878906 83.5999984741211,59.5 83.5999984741211,39.900001525878906 155.89999389648438,40.900001525878906 " transform="matrix(1 0 0 1 0 0)"/>
   <line class="st10" id="svg_76" x1="162" x2="172" y1="45.4" y2="45.4"/>
   <line class="st10" id="svg_77" x1="161.8" x2="172.1" y1="54.6" y2="54.1"/>
   <line class="st10" id="svg_78" x1="161.8" x2="172" y1="50.2" y2="49.9"/>
  </g>
 </g>
</svg>